<svg width="153" height="154" viewBox="0 0 153 154" fill="none" xmlns="http://www.w3.org/2000/svg">
<path d="M106.122 116.926C110.501 115.931 114.532 116.678 118.215 119.166C121.897 121.654 124.186 125.088 125.082 129.467C125.978 133.846 125.231 137.877 122.843 141.559C120.454 145.242 117.07 147.581 112.691 148.576C108.113 149.372 103.833 148.377 99.8518 145.59C97.8612 147.183 95.5721 148.178 92.9844 148.576C91.591 148.974 90.1976 149.173 88.8042 149.173C84.8231 149.173 81.2401 148.079 78.0552 145.889C77.0599 145.292 76.1642 144.695 75.368 144.097L74.1736 146.486C72.1831 150.467 69.6949 152.756 66.709 153.354C66.3109 153.354 65.9128 153.354 65.5147 153.354C62.927 153.354 60.3393 152.06 57.7515 149.472L49.3912 141.112C49.3912 141.112 49.3912 141.012 49.3912 140.813L30.879 122.599L12.3669 104.087L4.00653 95.7269C1.02069 92.7411 -0.273169 89.7552 0.124942 86.7694C0.722109 83.7836 3.01125 81.2954 6.99236 79.3048L25.8031 69.4516L37.4479 63.4799L49.6898 57.2096L55.96 50.9394C58.3487 48.5507 61.235 47.3564 64.619 47.3564C68.0029 47.3564 70.8892 48.5507 73.2779 50.9394L80.1453 57.5082L87.6099 50.0436C89.0033 48.4512 90.3967 48.4014 91.7901 49.8943C93.1834 51.3873 93.1834 52.8304 91.7901 54.2238L84.3255 61.6884L91.4915 69.153L123.738 37.2046L116.274 29.74L110.899 35.1145C109.506 36.5079 108.113 36.5079 106.719 35.1145C105.326 33.7211 105.326 32.3277 106.719 30.9343L114.184 23.4697V23.1711L127.62 10.0335L133.89 3.76321C136.08 1.57359 138.717 0.47879 141.803 0.47879C144.888 0.47879 147.526 1.57359 149.715 3.76321C151.905 5.95282 153 8.5903 153 11.6757C153 14.761 151.905 17.3985 149.715 19.5881L143.445 25.8584L130.009 38.9961V39.2946L95.9702 73.3332L102.539 80.2006C104.132 81.793 105.226 83.6343 105.823 85.7244C106.421 87.8144 106.421 89.9045 105.823 91.9946C105.226 94.0847 104.132 95.926 102.539 97.5184L96.2688 103.789L93.283 109.76C98.0603 110.756 101.842 113.244 104.629 117.225C105.226 117.026 105.724 116.926 106.122 116.926ZM145.535 7.94337C145.535 7.94337 145.286 7.69455 144.789 7.19691C144.291 6.69928 143.296 6.45045 141.803 6.45045C140.31 6.45045 139.066 6.9481 138.07 7.94337L133.89 12.1236L141.355 19.5881L145.535 15.408C146.53 14.4127 147.028 13.1686 147.028 11.6757C147.028 10.1828 146.53 8.93866 145.535 7.94337ZM120.454 25.5598L127.919 32.7258L137.175 23.7683L129.71 16.3037L120.454 25.5598ZM74.4722 115.433C76.0647 113.841 77.9557 112.547 80.1453 111.552L38.3436 69.7502L32.0734 73.0346L74.4722 115.433ZM50.8841 63.1813L44.0167 66.7643L86.4156 109.462H86.7141L90.2971 102.594L50.8841 63.1813ZM60.1402 55.1196L55.6615 59.5983L93.8801 97.817L98.3589 93.3382C99.5532 92.1439 100.15 90.651 100.15 88.8595C100.15 87.068 99.5532 85.5751 98.3589 84.3807L69.0977 55.1196C67.9034 53.9252 66.4105 53.3281 64.619 53.3281C62.8275 53.3281 61.3345 53.9252 60.1402 55.1196ZM68.7991 143.799L71.4864 138.723C70.4911 137.13 69.7944 135.339 69.3963 133.348C68.401 128.77 68.9982 124.391 71.1878 120.211L26.6989 75.7218L9.67961 84.6793C7.49 85.6746 6.29567 86.6699 6.09661 87.6652C5.89756 88.6604 6.69378 89.9543 8.48528 91.5467L15.0541 98.4142L27.5946 91.8453C29.3861 90.85 30.7795 91.2482 31.7748 93.0397C32.7701 94.8312 32.372 96.2245 30.5805 97.2198L19.5329 102.893L32.9691 116.329L42.5238 106.774C43.9172 105.381 45.3106 105.381 46.704 106.774C48.0973 108.168 48.0973 109.561 46.704 110.955L37.1493 120.509L50.5855 133.946L56.2586 122.898C57.2539 121.107 58.6473 120.708 60.4388 121.704C62.2303 122.699 62.6284 124.092 61.6331 125.884L55.0643 138.424L61.9317 144.993C63.5242 146.785 64.818 147.581 65.8133 147.382C66.6095 147.183 67.6048 145.988 68.7991 143.799ZM111.497 142.605C114.283 142.007 116.423 140.564 117.916 138.275C119.409 135.986 119.857 133.448 119.26 130.661C118.663 127.874 117.219 125.735 114.93 124.242C112.641 122.749 110.103 122.201 107.316 122.599C106.52 122.798 105.724 123.097 104.928 123.495C103.136 124.291 101.842 123.893 101.046 122.301C98.2594 117.723 94.1787 115.433 88.8042 115.433C88.008 115.433 87.1122 115.533 86.117 115.732C82.3349 116.329 79.3988 118.27 77.3088 121.554C75.2187 124.839 74.5717 128.372 75.368 132.154C76.1642 135.936 78.1547 138.872 81.3396 140.962C84.5245 143.052 88.008 143.699 91.7901 142.903C94.1787 142.306 96.2688 141.211 98.0603 139.619C99.4537 138.424 100.847 138.524 102.24 139.917C104.828 142.505 107.914 143.401 111.497 142.605ZM142.549 126.481C145.535 126.481 148.023 127.476 150.014 129.467C152.004 131.457 153 133.896 153 136.782C153 139.668 152.004 142.157 150.014 144.247C148.023 146.337 145.585 147.382 142.699 147.382C139.812 147.382 137.324 146.337 135.234 144.247C133.144 142.157 132.099 139.718 132.099 136.931C132.099 134.941 132.596 133.149 133.592 131.557C134.587 129.964 135.881 128.72 137.473 127.825C139.066 126.929 140.758 126.481 142.549 126.481ZM142.549 141.41C143.146 141.41 143.744 141.261 144.341 140.962C144.938 140.664 145.436 140.315 145.834 139.917C146.232 139.519 146.53 139.071 146.729 138.574C146.928 138.076 147.028 137.529 147.028 136.931C147.028 135.737 146.58 134.692 145.684 133.796C144.789 132.901 143.744 132.453 142.549 132.453C141.355 132.453 140.31 132.901 139.414 133.796C138.518 134.692 138.07 135.737 138.07 136.931C138.07 138.126 138.518 139.171 139.414 140.067C140.31 140.962 141.355 141.41 142.549 141.41ZM138.07 85.5751C138.07 85.5751 138.717 86.222 140.011 87.5159C141.305 88.8097 141.952 91.2482 141.952 94.8312C141.952 98.4142 140.658 101.45 138.07 103.938C135.483 106.426 132.397 107.67 128.814 107.67C125.231 107.67 122.196 106.426 119.708 103.938C117.219 101.45 115.975 98.4142 115.975 94.8312C115.975 91.2482 117.219 88.1628 119.708 85.5751C122.196 82.9874 125.231 81.6935 128.814 81.6935C132.397 81.6935 135.483 82.9874 138.07 85.5751ZM123.888 99.6085C123.888 99.6085 124.211 99.9568 124.858 100.654C125.505 101.35 126.824 101.699 128.814 101.699C130.805 101.699 132.497 101.002 133.89 99.6085C135.284 98.2151 135.98 96.5729 135.98 94.6819C135.98 92.7908 135.284 91.1486 133.89 89.7552C132.497 88.3619 130.805 87.6652 128.814 87.6652C126.824 87.6652 125.182 88.3619 123.888 89.7552C122.594 91.1486 121.947 92.7908 121.947 94.6819C121.947 96.5729 122.594 98.2151 123.888 99.6085ZM101.345 44.6691C100.748 45.2663 100.051 45.5649 99.2546 45.5649C98.4584 45.5649 97.7617 45.2663 97.1646 44.6691C95.7712 43.2757 95.7712 41.8824 97.1646 40.489C98.5579 39.0956 99.9513 39.0956 101.345 40.489C102.738 41.8824 102.738 43.2757 101.345 44.6691Z" fill="#CCEFF3"/>
</svg>
