<svg width="86" height="87" viewBox="0 0 86 87" fill="none" xmlns="http://www.w3.org/2000/svg">
<rect y="0.769531" width="86" height="86" rx="43" fill="#6DC2ED"/>
<g clip-path="url(#clip0_900_727)">
<path d="M52.7886 56.4388C54.2355 56.11 55.5672 56.3566 56.7838 57.1787C58.0004 58.0007 58.7567 59.1351 59.0527 60.5819C59.3486 62.0288 59.102 63.3605 58.3128 64.5771C57.5237 65.7937 56.4057 66.5665 54.9589 66.8953C53.4463 67.1584 52.0324 66.8295 50.7171 65.9088C50.0594 66.4349 49.3032 66.7638 48.4482 66.8953C47.9879 67.0268 47.5275 67.0926 47.0672 67.0926C45.7519 67.0926 44.5681 66.7309 43.5159 66.0075C43.1871 65.8102 42.8912 65.6129 42.6281 65.4156L42.2335 66.2048C41.5759 67.5201 40.7538 68.2763 39.7674 68.4736C39.6358 68.4736 39.5043 68.4736 39.3728 68.4736C38.5179 68.4736 37.6629 68.0462 36.808 67.1912L34.0459 64.4291C34.0459 64.4291 34.0459 64.3963 34.0459 64.3305L27.9298 58.3131L21.8138 52.197L19.0517 49.4349C18.0652 48.4485 17.6378 47.462 17.7693 46.4756C17.9666 45.4891 18.7229 44.6671 20.0382 44.0094L26.2529 40.7541L30.1001 38.7812L34.1445 36.7096L36.2161 34.638C37.0053 33.8489 37.9589 33.4543 39.0768 33.4543C40.1948 33.4543 41.1484 33.8489 41.9376 34.638L44.2064 36.8083L46.6726 34.3421C47.1329 33.816 47.5933 33.7995 48.0536 34.2928C48.514 34.786 48.514 35.2628 48.0536 35.7231L45.5875 38.1893L47.955 40.6555L58.6088 30.1003L56.1426 27.6342L54.367 29.4098C53.9066 29.8702 53.4463 29.8702 52.9859 29.4098C52.5256 28.9495 52.5256 28.4891 52.9859 28.0288L55.4521 25.5626V25.464L59.8912 21.1235L61.9627 19.052C62.6861 18.3286 63.5575 17.9669 64.5768 17.9669C65.5962 17.9669 66.4676 18.3286 67.191 19.052C67.9144 19.7754 68.2761 20.6467 68.2761 21.6661C68.2761 22.6854 67.9144 23.5568 67.191 24.2802L65.1194 26.3518L60.6803 30.6922V30.7908L49.4347 42.0365L51.6049 44.3054C52.131 44.8315 52.4927 45.4398 52.69 46.1303C52.8873 46.8208 52.8873 47.5114 52.69 48.2019C52.4927 48.8924 52.131 49.5007 51.6049 50.0268L49.5333 52.0984L48.5469 54.0713C50.1252 54.4001 51.3747 55.2222 52.2954 56.5375C52.4927 56.4717 52.6571 56.4388 52.7886 56.4388ZM65.8099 20.433C65.8099 20.433 65.7277 20.3508 65.5633 20.1864C65.3989 20.022 65.0701 19.9398 64.5768 19.9398C64.0836 19.9398 63.6726 20.1042 63.3438 20.433L61.9627 21.8141L64.4289 24.2802L65.8099 22.8992C66.1387 22.5703 66.3032 22.1593 66.3032 21.6661C66.3032 21.1729 66.1387 20.7618 65.8099 20.433ZM57.5237 26.2531L59.9898 28.6206L63.0478 25.6613L60.5817 23.1951L57.5237 26.2531ZM42.3322 55.9456C42.8583 55.4195 43.483 54.992 44.2064 54.6632L30.396 40.8527L28.3244 41.9378L42.3322 55.9456ZM34.5391 38.6825L32.2703 39.8663L46.278 53.9727H46.3767L47.5604 51.7038L34.5391 38.6825ZM37.5972 36.0191L36.1175 37.4988L48.7442 50.1255L50.2239 48.6458C50.6184 48.2512 50.8157 47.758 50.8157 47.1661C50.8157 46.5742 50.6184 46.081 50.2239 45.6864L40.5565 36.0191C40.162 35.6245 39.6687 35.4272 39.0768 35.4272C38.485 35.4272 37.9917 35.6245 37.5972 36.0191ZM40.4579 65.317L41.3457 63.64C41.0169 63.1139 40.7867 62.522 40.6552 61.8643C40.3264 60.3518 40.5237 58.905 41.2471 57.5239L26.5488 42.8257L20.926 45.785C20.2026 46.1139 19.808 46.4427 19.7422 46.7715C19.6765 47.1003 19.9395 47.5278 20.5314 48.0539L22.7016 50.3228L26.8447 48.1525C27.4366 47.8237 27.897 47.9553 28.2258 48.5471C28.5546 49.139 28.4231 49.5994 27.8312 49.9282L24.1813 51.8025L28.6204 56.2415L31.777 53.0849C32.2374 52.6245 32.6977 52.6245 33.1581 53.0849C33.6184 53.5452 33.6184 54.0055 33.1581 54.4659L30.0014 57.6226L34.4405 62.0616L36.3148 58.4117C36.6436 57.8199 37.1039 57.6883 37.6958 58.0172C38.2877 58.346 38.4192 58.8063 38.0904 59.3982L35.9202 63.5413L38.189 65.7115C38.7151 66.3034 39.1426 66.5665 39.4714 66.5007C39.7345 66.4349 40.0633 66.0404 40.4579 65.317ZM54.5643 64.9224C55.485 64.7251 56.1919 64.2483 56.6852 63.492C57.1784 62.7357 57.3264 61.8972 57.1291 60.9765C56.9318 60.0558 56.455 59.3489 55.6987 58.8556C54.9424 58.3624 54.1039 58.1816 53.1832 58.3131C52.9202 58.3789 52.6571 58.4775 52.3941 58.609C51.8022 58.8721 51.3747 58.7406 51.1117 58.2144C50.191 56.7019 48.8428 55.9456 47.0672 55.9456C46.8041 55.9456 46.5082 55.9785 46.1794 56.0442C44.9298 56.2415 43.9598 56.8827 43.2693 57.9678C42.5788 59.0529 42.365 60.2202 42.6281 61.4698C42.8912 62.7193 43.5488 63.6893 44.601 64.3798C45.6533 65.0703 46.8041 65.2841 48.0536 65.021C48.8428 64.8237 49.5333 64.462 50.1252 63.9359C50.5856 63.5413 51.0459 63.5742 51.5062 64.0346C52.3612 64.8895 53.3805 65.1854 54.5643 64.9224ZM64.8235 59.5955C65.8099 59.5955 66.632 59.9243 67.2896 60.5819C67.9473 61.2396 68.2761 62.0452 68.2761 62.9988C68.2761 63.9524 67.9473 64.7744 67.2896 65.4649C66.632 66.1555 65.8264 66.5007 64.8728 66.5007C63.9192 66.5007 63.0972 66.1555 62.4066 65.4649C61.7161 64.7744 61.3709 63.9688 61.3709 63.0481C61.3709 62.3905 61.5353 61.7986 61.8641 61.2725C62.1929 60.7464 62.6204 60.3353 63.1465 60.0394C63.6726 59.7435 64.2316 59.5955 64.8235 59.5955ZM64.8235 64.5278C65.0208 64.5278 65.218 64.4785 65.4153 64.3798C65.6126 64.2812 65.777 64.1661 65.9086 64.0346C66.0401 63.903 66.1387 63.7551 66.2045 63.5907C66.2703 63.4262 66.3032 63.2454 66.3032 63.0481C66.3032 62.6535 66.1552 62.3083 65.8592 62.0123C65.5633 61.7164 65.218 61.5684 64.8235 61.5684C64.4289 61.5684 64.0836 61.7164 63.7877 62.0123C63.4917 62.3083 63.3438 62.6535 63.3438 63.0481C63.3438 63.4427 63.4917 63.7879 63.7877 64.0839C64.0836 64.3798 64.4289 64.5278 64.8235 64.5278ZM63.3438 46.081C63.3438 46.081 63.5575 46.2947 63.985 46.7222C64.4124 47.1496 64.6262 47.9553 64.6262 49.139C64.6262 50.3228 64.1987 51.3257 63.3438 52.1477C62.4888 52.9698 61.4695 53.3808 60.2857 53.3808C59.102 53.3808 58.0991 52.9698 57.277 52.1477C56.455 51.3257 56.044 50.3228 56.044 49.139C56.044 47.9553 56.455 46.9359 57.277 46.081C58.0991 45.226 59.102 44.7986 60.2857 44.7986C61.4695 44.7986 62.4888 45.226 63.3438 46.081ZM58.6581 50.7173C58.6581 50.7173 58.765 50.8324 58.9787 51.0626C59.1924 51.2928 59.6281 51.4079 60.2857 51.4079C60.9434 51.4079 61.5024 51.1777 61.9627 50.7173C62.4231 50.257 62.6533 49.7144 62.6533 49.0897C62.6533 48.4649 62.4231 47.9224 61.9627 47.462C61.5024 47.0017 60.9434 46.7715 60.2857 46.7715C59.6281 46.7715 59.0856 47.0017 58.6581 47.462C58.2306 47.9224 58.0169 48.4649 58.0169 49.0897C58.0169 49.7144 58.2306 50.257 58.6581 50.7173ZM51.2103 32.5665C51.013 32.7638 50.7828 32.8624 50.5198 32.8624C50.2567 32.8624 50.0266 32.7638 49.8293 32.5665C49.3689 32.1061 49.3689 31.6458 49.8293 31.1854C50.2896 30.7251 50.75 30.7251 51.2103 31.1854C51.6707 31.6458 51.6707 32.1061 51.2103 32.5665Z" fill="white"/>
</g>
<defs>
<clipPath id="clip0_900_727">
<rect width="51" height="51" fill="white" transform="matrix(1 0 0 -1 17.5 68.7695)"/>
</clipPath>
</defs>
</svg>
