<svg width="604" height="293" viewBox="0 0 604 293" fill="none" xmlns="http://www.w3.org/2000/svg">
<g clip-path="url(#clip0_1153_47)">
<rect y="0.319092" width="603.522" height="291.78" rx="10" fill="#BFE4FE"/>
<g clip-path="url(#clip1_1153_47)">
<path d="M378.924 256.037V267.489H407.691V329.492H345.688V267.489V256.037C345.688 250.172 346.106 244.726 346.944 239.698C347.782 234.578 349.039 229.853 350.715 225.524C352.391 221.195 354.485 217.308 356.999 213.864C359.513 210.326 362.399 207.207 365.657 204.507C370.219 200.69 375.409 197.851 381.228 195.989C387.047 194.127 393.354 193.196 400.15 193.196V226.292C396.426 226.292 391.958 227.526 386.744 229.993C381.531 232.46 378.924 241.142 378.924 256.037ZM481.286 226.292V193.196C474.397 193.196 468.066 194.127 462.294 195.989C456.522 197.851 451.355 200.69 446.793 204.507C443.441 207.207 440.509 210.326 437.995 213.864C435.481 217.308 433.387 221.195 431.711 225.524C430.035 229.853 428.778 234.578 427.94 239.698C427.103 244.726 426.684 250.172 426.684 256.037V329.492H488.688V267.489H459.92V256.037C459.92 241.142 462.55 232.46 467.81 229.993C473.07 227.526 477.562 226.292 481.286 226.292Z" fill="#E7E8F1"/>
</g>
</g>
<defs>
<clipPath id="clip0_1153_47">
<rect y="0.319092" width="603.522" height="291.78" rx="10" fill="white"/>
</clipPath>
<clipPath id="clip1_1153_47">
<rect width="143" height="148" fill="white" transform="matrix(1 0 0 -1 345.688 333.319)"/>
</clipPath>
</defs>
</svg>
