<svg width="1443" height="363" viewBox="0 0 1443 363" fill="none" xmlns="http://www.w3.org/2000/svg">
<mask id="mask0_1151_24" style="mask-type:alpha" maskUnits="userSpaceOnUse" x="0" y="0" width="1443" height="363">
<path d="M0.8125 0.216309H1442.69V362.905H0.8125V0.216309Z" fill="#01ADC3"/>
</mask>
<g mask="url(#mask0_1151_24)">
<path opacity="0.05" d="M1428.79 18.0715C1528.03 39.6373 1582.2 145.226 1549.79 253.911C1517.37 362.595 1410.65 433.219 1311.41 411.653C1212.17 390.088 1158 284.499 1190.41 175.814C1222.83 67.1294 1329.55 -3.49432 1428.79 18.0715Z" fill="#CCEFF3"/>
<path opacity="0.05" d="M1419.03 16.1795C1517.95 37.676 1572.03 142.962 1539.68 251.434C1507.33 359.905 1400.85 430.3 1301.93 408.803C1203.01 387.307 1148.93 282.02 1181.28 173.549C1213.63 65.078 1320.11 -5.3169 1419.03 16.1795Z" stroke="#CCEFF3"/>
<path opacity="0.1" d="M-36.2352 260.538C14.6522 144.464 157.195 104.27 282.143 170.761C407.091 237.252 467.129 385.25 416.241 501.323C365.354 617.396 222.811 657.59 97.8633 591.099C-27.0846 524.608 -87.1225 376.611 -36.2352 260.538Z" fill="#CCEFF3"/>
<path opacity="0.1" d="M-35.7938 241.042C14.9625 125.268 157.191 85.1025 281.942 151.489C406.693 217.875 466.556 365.584 415.8 481.358C365.044 597.131 222.815 637.297 98.0641 570.911C-26.6872 504.524 -86.55 356.816 -35.7938 241.042Z" stroke="#CCEFF3"/>
</g>
</svg>
