<svg width="11" height="13" viewBox="0 0 11 13" fill="none" xmlns="http://www.w3.org/2000/svg">
<g clip-path="url(#clip0_1153_1327)">
<path d="M2.92285 12.0898C2.82259 12.0898 2.73486 12.054 2.65967 11.9824C2.58447 11.9108 2.54688 11.8249 2.54688 11.7246C2.54688 11.6243 2.58268 11.5384 2.6543 11.4668L7.56348 6.55762L2.72949 1.73438C2.68652 1.68425 2.65609 1.62695 2.63818 1.5625C2.62028 1.49805 2.62028 1.43538 2.63818 1.37451C2.65609 1.31364 2.68652 1.25814 2.72949 1.20801C2.80111 1.13639 2.88883 1.10059 2.99268 1.10059C3.09652 1.10059 3.18424 1.13639 3.25586 1.20801L8.33691 6.2998C8.37272 6.33561 8.39958 6.37679 8.41748 6.42334C8.43538 6.46989 8.44434 6.51644 8.44434 6.56299C8.44434 6.60954 8.43538 6.6543 8.41748 6.69727C8.39958 6.74023 8.37272 6.77962 8.33691 6.81543L3.18066 11.9824C3.14486 12.0182 3.10368 12.0451 3.05713 12.063C3.01058 12.0809 2.96582 12.0898 2.92285 12.0898Z" fill="#006BC5"/>
</g>
<defs>
<clipPath id="clip0_1153_1327">
<rect width="11" height="12" fill="white" transform="matrix(1 0 0 -1 0 12.5308)"/>
</clipPath>
</defs>
</svg>
