<svg width="353" height="64" viewBox="0 0 353 64" fill="none" xmlns="http://www.w3.org/2000/svg">
<g clip-path="url(#clip0_1970_52)">
<path d="M13.2191 26.8542C16.1019 26.9063 19.6508 26.7606 23.2101 26.9271C27.7165 27.1352 31.973 28.2904 36.0527 30.1846C40.9233 32.4534 45.2527 35.5547 49.3636 38.9891C52.9333 41.9656 56.4197 45.0357 60.0102 47.981C62.4767 50 65.089 51.8421 68.0654 53.0806C71.0107 54.3086 74.0496 54.4855 77.1614 53.8195C79.2012 53.3824 81.0433 52.581 82.5107 51.0407C84.5297 48.9072 84.9148 45.0461 83.2913 42.6004C82.3338 41.1642 80.8768 40.3212 79.3573 39.6136C76.4745 38.2814 73.4044 37.5737 70.3342 36.8452C66.2338 35.8669 62.1541 34.795 58.3867 32.8384C56.1699 31.6832 54.1405 30.2678 52.621 28.2176C50.883 25.8656 50.0192 23.2117 49.8007 20.3185C49.5197 16.6135 49.9776 13.0646 51.8821 9.79673C54.1509 5.894 57.5437 3.35463 61.7274 1.82476C65.3179 0.513447 69.0333 0.170007 72.8216 0.378152C75.2256 0.513447 77.6089 0.794443 79.9401 1.38766C83.6659 2.33472 87.1211 3.90622 90.3162 6.06052C91.1279 6.61211 91.9189 7.18451 92.7202 7.7465C92.9908 7.93383 93.0949 8.11075 92.8451 8.44378C91.9605 9.67184 91.1175 10.9311 90.2433 12.1696C89.3587 13.4289 88.4325 14.6673 87.5687 15.937C87.3293 16.2805 87.194 16.2596 86.8818 16.0411C83.5306 13.6682 79.9922 11.6492 75.9645 10.6397C72.7383 9.83836 69.4808 9.59899 66.2338 10.5148C63.8505 11.1913 61.8731 12.5234 60.9573 14.9275C59.7604 18.0601 60.5722 21.6922 64.246 23.5551C66.9831 24.9497 69.8971 25.7823 72.8528 26.5316C77.2967 27.666 81.7614 28.7692 85.9035 30.809C88.7551 32.214 91.1696 34.1497 92.8868 36.866C94.1773 38.9059 94.7913 41.1642 94.9682 43.5475C95.2284 47.086 94.8121 50.51 93.147 53.705C91.0031 57.8055 87.6623 60.5218 83.3641 62.0932C79.118 63.6543 74.7157 64.1643 70.2406 63.6439C66.2546 63.186 62.6328 61.6561 59.2297 59.5747C55.9722 57.5765 53.0269 55.162 50.1337 52.6643C46.3247 49.3652 42.6821 45.8683 38.6441 42.8398C35.5948 40.5502 32.3685 38.5728 28.6739 37.4801C26.8631 36.9493 25.0002 36.6995 23.106 36.6995C15.9771 36.6995 8.84808 36.6995 1.7087 36.6995C1.47974 36.6995 1.25078 36.6995 1.02182 36.6787C0.772041 36.6683 0.667969 36.5434 0.667969 36.2728C0.667969 33.2859 0.667969 30.2886 0.667969 27.3018C0.667969 26.9791 0.813671 26.8438 1.11548 26.8438C1.46933 26.8438 1.82318 26.8438 2.17702 26.8438C5.63224 26.8438 9.07704 26.8438 13.2087 26.8438L13.2191 26.8542Z" fill="#006BC5"/>
<path d="M21.93 53.1535C28.6843 53.1535 35.4387 53.1535 42.193 53.1535C43.2753 53.1535 43.1817 53.0702 43.1817 54.1213C43.1817 56.8376 43.1817 59.5539 43.1921 62.2806C43.1921 62.7698 43.0776 62.9779 42.5364 62.9779C28.8821 62.9571 15.2277 62.9675 1.5734 62.9571C0.688783 62.9571 0.688783 62.9571 0.688783 62.0829C0.688783 59.3458 0.709598 56.6087 0.667969 53.8612C0.667969 53.2575 0.8553 53.1431 1.41729 53.1431C8.25487 53.1639 15.0924 53.1535 21.93 53.1535Z" fill="#293950"/>
<path d="M21.6912 1.22134C28.4247 1.22134 35.1582 1.22134 41.8917 1.22134C42.4398 1.22134 42.7138 1.4954 42.7138 2.04352C42.7138 4.739 42.7138 7.43448 42.7138 10.13C42.7138 11.0042 42.7138 11.0042 41.8188 11.0146C28.4559 11.0146 15.093 11.0146 1.74043 11.0146C0.689294 11.0146 0.689294 11.0146 0.699702 9.93223C0.699702 7.25756 0.720516 4.58289 0.689294 1.90822C0.66848 1.34623 0.824589 1.21094 1.37617 1.21094C8.15131 1.23175 14.9264 1.22134 21.7016 1.22134H21.6912Z" fill="#293950"/>
<path d="M111.59 51.5498V12.6475H140.158V19.9325H118.875V44.2751H140.158V51.5602H111.59V51.5498ZM122.986 28.4249H134.933V35.762H122.986V28.4249Z" fill="#293950"/>
<path d="M142.719 12.6479H171.287V19.933H169.559L153.22 44.2756H171.287V51.5607H142.719V44.2756H144.446L160.838 19.933H142.719V12.6479Z" fill="#293950"/>
<path d="M184.232 14.1466C186.637 13.1475 189.186 12.6479 191.871 12.6479C194.556 12.6479 197.106 13.1475 199.51 14.1466C201.914 15.1457 204.048 16.5403 205.9 18.3199C207.753 20.1308 209.189 22.233 210.209 24.5955C211.229 26.9684 211.739 29.4661 211.739 32.0991C211.739 34.7322 211.229 37.2299 210.209 39.6028C209.189 41.9756 207.753 44.0675 205.9 45.8784C204.048 47.658 201.914 49.0422 199.51 50.0517C197.106 51.0508 194.556 51.5503 191.871 51.5503C189.186 51.5503 186.637 51.0508 184.232 50.0517C181.828 49.0526 179.716 47.658 177.894 45.8784C176.042 44.0675 174.595 41.9652 173.565 39.6028C172.524 37.2299 172.004 34.7322 172.004 32.0991C172.004 29.4661 172.524 26.9684 173.565 24.5955C174.606 22.2226 176.042 20.1308 177.894 18.3199C179.705 16.5403 181.818 15.1561 184.232 14.1466ZM204.454 32.0991C204.454 28.7688 203.247 25.9068 200.842 23.5444C198.355 21.1403 195.368 19.933 191.871 19.933C188.375 19.933 185.398 21.1403 182.952 23.5444C180.507 25.9172 179.289 28.7688 179.289 32.0991C179.289 35.4295 180.507 38.2915 182.952 40.6539C185.398 43.058 188.375 44.2652 191.871 44.2652C195.368 44.2652 198.366 43.058 200.842 40.6539C203.247 38.2811 204.454 35.4295 204.454 32.0991Z" fill="#293950"/>
<path d="M236.913 37.4903C235.175 36.3767 233.042 35.8043 230.523 35.7626C226.371 35.721 222.759 34.7427 219.689 32.8174C217.982 31.7767 216.65 30.507 215.693 29.0083C214.725 27.5097 214.246 25.8966 214.246 24.1689C214.246 22.4413 214.704 20.8386 215.63 19.3608C216.557 17.883 217.857 16.6029 219.523 15.5309C222.52 13.6056 226.069 12.6377 230.169 12.6377C234.27 12.6377 237.808 13.6056 240.816 15.5309C242.481 16.6029 243.782 17.883 244.708 19.3608C245.634 20.8386 246.103 22.4517 246.103 24.2002H238.818C238.818 23.3468 238.183 22.4934 236.924 21.64C235.113 20.4952 232.854 19.9124 230.169 19.9124C227.484 19.9124 225.247 20.4848 223.477 21.64C222.176 22.4517 221.531 23.3051 221.531 24.2002C221.531 25.0119 222.197 25.8341 223.529 26.6459C225.382 27.7907 227.619 28.3839 230.252 28.4255C234.332 28.4671 237.85 29.4454 240.816 31.3708C242.481 32.4115 243.782 33.6812 244.708 35.1798C245.634 36.6785 246.103 38.2916 246.103 40.0192C246.103 41.7468 245.634 43.3495 244.708 44.8274C243.782 46.3052 242.481 47.5853 240.816 48.6572C237.819 50.5826 234.27 51.5505 230.169 51.5505C226.069 51.5505 222.53 50.5826 219.523 48.6572C217.857 47.5853 216.557 46.3052 215.63 44.8274C214.704 43.3495 214.246 41.7364 214.246 39.988H221.531C221.531 40.8726 222.176 41.726 223.477 42.5482C225.257 43.693 227.484 44.2758 230.169 44.2758C232.854 44.2758 235.102 43.7034 236.924 42.5482C238.183 41.7364 238.818 40.8934 238.818 40.0192C238.818 39.145 238.183 38.302 236.924 37.4903H236.913Z" fill="#006BC5"/>
<path d="M260.873 14.1466C263.277 13.1475 265.827 12.6479 268.512 12.6479C271.197 12.6479 273.747 13.1475 276.151 14.1466C278.555 15.1457 280.689 16.5403 282.541 18.3199C284.393 20.1308 285.83 22.233 286.85 24.5955C287.87 26.9684 288.379 29.4661 288.379 32.0991C288.379 34.7322 287.87 37.2299 286.85 39.6028C285.83 41.9756 284.393 44.0675 282.541 45.8784C280.689 47.658 278.555 49.0422 276.151 50.0517C273.747 51.0508 271.197 51.5503 268.512 51.5503C265.827 51.5503 263.277 51.0508 260.873 50.0517C258.469 49.0526 256.356 47.658 254.535 45.8784C252.683 44.0675 251.236 41.9652 250.206 39.6028C249.165 37.2299 248.645 34.7322 248.645 32.0991C248.645 29.4661 249.165 26.9684 250.206 24.5955C251.246 22.2226 252.683 20.1308 254.535 18.3199C256.346 16.5403 258.459 15.1561 260.873 14.1466ZM281.094 32.0991C281.094 28.7688 279.887 25.9068 277.483 23.5444C274.996 21.1403 272.009 19.933 268.512 19.933C265.015 19.933 262.039 21.1403 259.593 23.5444C257.147 25.9172 255.93 28.7688 255.93 32.0991C255.93 35.4295 257.147 38.2915 259.593 40.6539C262.039 43.058 265.015 44.2652 268.512 44.2652C272.009 44.2652 275.006 43.058 277.483 40.6539C279.887 38.2811 281.094 35.4295 281.094 32.0991Z" fill="#006BC5"/>
<path d="M292.27 51.5503V12.6479H320.837V19.933H299.555V28.4358H315.613V35.7729H299.555V51.5607H292.27V51.5503Z" fill="#006BC5"/>
<path d="M323.668 12.6479H352.236V19.933H341.621V51.5607H334.335V19.933H323.668V12.6479Z" fill="#006BC5"/>
</g>
<defs>
<clipPath id="clip0_1970_52">
<rect width="351.568" height="63.526" fill="white" transform="translate(0.667969 0.336426)"/>
</clipPath>
</defs>
</svg>
