<svg width="20" height="20" viewBox="0 0 20 20" fill="none" xmlns="http://www.w3.org/2000/svg">
<mask id="mask0_1368_37" style="mask-type:alpha" maskUnits="userSpaceOnUse" x="0" y="0" width="20" height="21">
<g clip-path="url(#clip0_1368_37)">
<path d="M7.62765 0.00195499H11.8461C12.2757 0.159482 12.5105 0.451052 12.5623 0.920697C12.6357 1.58603 12.7522 2.24646 12.8441 2.91033C12.8598 3.02382 12.9028 3.08889 13.0075 3.14564C13.3554 3.33496 13.6978 3.53505 14.0354 3.74199C14.1347 3.80314 14.2115 3.81194 14.3206 3.76743C14.9634 3.50276 15.6092 3.24495 16.2559 2.9886C16.7842 2.77922 17.1942 2.92109 17.4814 3.41617C18.0919 4.46798 18.7005 5.52077 19.3071 6.57453C19.5987 7.08087 19.5087 7.5192 19.0469 7.88024C18.5087 8.30145 17.9721 8.72413 17.4295 9.13996C17.3356 9.21188 17.3072 9.28477 17.3097 9.4012C17.319 9.79746 17.3204 10.1942 17.3097 10.5905C17.3062 10.7147 17.3371 10.7911 17.4369 10.8674C17.9843 11.2871 18.5268 11.7132 19.0689 12.1398C19.5018 12.4803 19.5938 12.926 19.3213 13.4005C18.7093 14.4665 18.0948 15.5305 17.4765 16.5931C17.1893 17.0867 16.7794 17.2222 16.2476 17.0104C15.6077 16.7555 14.9673 16.5011 14.3304 16.2399C14.2178 16.1939 14.1356 16.1949 14.0275 16.2619C13.691 16.4713 13.347 16.6685 13.0007 16.8602C12.9053 16.9131 12.8612 16.9708 12.8466 17.0799C12.7531 17.7628 12.6475 18.4443 12.5535 19.1272C12.4748 19.6996 12.1475 19.9995 11.5751 20.0005C10.3511 20.002 9.12757 20.002 7.90356 20.0005C7.33167 20 7.00096 19.6972 6.92367 19.1282C6.83072 18.4453 6.72603 17.7638 6.63161 17.0809C6.61693 16.9742 6.57388 16.914 6.47751 16.8607C6.12478 16.6665 5.78234 16.4537 5.42912 16.2609C5.35819 16.2223 5.24322 16.2106 5.16886 16.2389C4.52017 16.4894 3.87685 16.7536 3.23109 17.0104C2.69687 17.2227 2.28936 17.0867 2.00268 16.5936C1.38823 15.5364 0.776221 14.4783 0.167151 13.4181C-0.11806 12.9221 -0.0270668 12.4803 0.423498 12.1276C0.961632 11.7064 1.4983 11.2837 2.04084 10.8679C2.14015 10.7915 2.17097 10.7152 2.16754 10.5905C2.15629 10.1942 2.15776 9.79746 2.16754 9.4012C2.17048 9.28428 2.14112 9.21188 2.04768 9.13996C1.51102 8.72756 0.979733 8.3083 0.446002 7.89198C-0.0373403 7.51431 -0.125399 7.08576 0.178403 6.55887C0.779156 5.51636 1.38187 4.47532 1.98507 3.43427C2.28104 2.92402 2.69638 2.78019 3.24088 2.99692C3.88077 3.25229 4.52114 3.5057 5.15859 3.76694C5.26671 3.81146 5.34351 3.8051 5.4438 3.74345C5.78136 3.53603 6.12332 3.33545 6.47115 3.14613C6.57584 3.08889 6.61938 3.02284 6.63454 2.91033C6.71526 2.3174 6.79647 1.72447 6.8904 1.13399C6.92758 0.898682 6.97406 0.659457 7.06163 0.439801C7.15849 0.196662 7.40457 0.102244 7.62911 0.000976562L7.62765 0.00195499ZM13.0657 10.0108C13.0741 8.17523 11.5947 6.68558 9.75181 6.67286C7.91873 6.66063 6.42565 8.13903 6.40951 9.98288C6.39336 11.8223 7.88644 13.3262 9.73371 13.3306C11.5702 13.335 13.0574 11.8531 13.0657 10.0108Z" fill="black"/>
</g>
</mask>
<g mask="url(#mask0_1368_37)">
<rect x="-13.334" y="-5.33252" width="45.3333" height="30.6667" fill="#536886"/>
</g>
<defs>
<clipPath id="clip0_1368_37">
<rect width="19.4746" height="20" fill="white" transform="translate(0 0.00195312)"/>
</clipPath>
</defs>
</svg>
