<svg width="17" height="18" viewBox="0 0 17 18" fill="none" xmlns="http://www.w3.org/2000/svg">
<g clip-path="url(#clip0_1365_209)">
<path d="M5.54439 10.7704C5.48281 10.8229 5.42974 10.895 5.35864 10.9251C5.10631 11.0317 4.84846 11.1278 4.59062 11.221C4.49499 11.2555 4.45794 11.3046 4.45894 11.4112C4.46445 12.0986 4.46345 12.7855 4.45945 13.473C4.45894 13.5711 4.49349 13.6157 4.58261 13.6482C4.84646 13.7433 5.10981 13.842 5.36716 13.9521C5.43074 13.9796 5.49182 14.0487 5.52136 14.1138C5.63251 14.3571 5.73665 14.605 5.82877 14.8558C5.85481 14.9269 5.85581 15.0255 5.82877 15.0956C5.72814 15.3505 5.60347 15.5963 5.50384 15.8516C5.48181 15.9077 5.50083 16.0118 5.54189 16.0544C5.69559 16.2146 5.86632 16.3583 6.03104 16.508C6.01852 16.528 6.00651 16.5481 5.99399 16.5681C5.93491 16.5681 5.87583 16.5681 5.81676 16.5681C4.03638 16.5681 2.25601 16.5681 0.475634 16.5681C0.103138 16.5681 0 16.4629 0 16.0859C0 10.882 0 5.67757 0 0.47263C0 0.104139 0.102136 0 0.462617 0C3.61131 0 6.75951 0 9.90771 0C9.96879 0 10.0304 0 10.113 0C10.113 0.107644 10.113 0.199266 10.113 0.290888C10.113 0.815587 10.111 1.34079 10.1135 1.86549C10.116 2.34863 10.4299 2.66405 10.91 2.66605C11.4598 2.66856 12.0095 2.66655 12.5592 2.66655C12.6263 2.66655 12.6929 2.66655 12.7695 2.66655V7.5035C12.5793 7.43641 12.394 7.37633 12.2138 7.30324C12.1777 7.28872 12.1557 7.22663 12.1382 7.18258C12.035 6.92123 11.9419 6.65637 11.8298 6.39953C11.8052 6.34346 11.7181 6.28037 11.6585 6.27987C10.9716 6.27136 10.2842 6.27687 9.5973 6.27236C9.49216 6.27186 9.42757 6.3044 9.40904 6.40604C9.38201 6.55424 9.29039 6.57827 9.1537 6.57777C7.84196 6.57276 6.53021 6.57477 5.21846 6.57477C4.91555 6.57477 4.76686 6.6729 4.76385 6.87316C4.76085 7.07493 4.90804 7.17456 5.21145 7.17456C6.43558 7.17456 7.66021 7.17456 8.88435 7.17456C8.95093 7.17456 9.01702 7.17456 9.08361 7.17456C9.09162 7.19309 9.09963 7.21161 9.10764 7.22964C9.05507 7.26619 9.00701 7.31325 8.94943 7.33778C8.7036 7.44392 8.45728 7.54956 8.20594 7.64119C8.13435 7.66722 8.03521 7.66822 7.96462 7.64069C7.71529 7.54256 7.47096 7.43091 7.22914 7.31525C7.13001 7.26769 7.06442 7.2737 6.98581 7.35831C6.80708 7.55057 6.62183 7.73681 6.42857 7.91355C6.37099 7.96612 6.27937 8.00517 6.20177 8.00717C5.84579 8.01719 5.48982 8.00968 5.13384 8.01218C4.89853 8.01418 4.75935 8.13134 4.76435 8.31559C4.76886 8.49232 4.90604 8.60647 5.12784 8.61048C5.31208 8.61398 5.49583 8.61098 5.67256 8.61098C5.68057 8.64152 5.68508 8.65153 5.68358 8.65254C5.4032 8.83628 5.48581 9.05357 5.61348 9.28688C5.7001 9.44509 5.76368 9.61582 5.83578 9.78154C5.9229 9.98231 5.84179 10.1115 5.6275 10.1135C5.45277 10.115 5.27754 10.111 5.1028 10.115C4.89503 10.1195 4.76385 10.2366 4.76385 10.4104C4.76385 10.5811 4.89853 10.7028 5.1023 10.7128C5.17089 10.7163 5.23949 10.7138 5.30858 10.7138C5.37617 10.7138 5.44376 10.7138 5.51135 10.7138C5.52236 10.7328 5.53388 10.7518 5.54489 10.7709L5.54439 10.7704ZM8.18491 3.63985C9.18324 3.63985 10.1816 3.63985 11.1799 3.63985C11.4873 3.63985 11.623 3.54623 11.6205 3.33745C11.618 3.12967 11.4828 3.04005 11.1719 3.04005C9.18775 3.04005 7.2031 3.04005 5.21896 3.04005C5.15037 3.04005 5.07977 3.03404 5.01368 3.04856C4.85397 3.08411 4.75884 3.19125 4.76736 3.35447C4.77587 3.51519 4.8725 3.61732 5.03972 3.63635C5.09529 3.64236 5.15187 3.63935 5.20794 3.63935C6.20027 3.63935 7.19209 3.63935 8.18441 3.63935L8.18491 3.63985ZM8.20394 5.07076C9.19726 5.07076 10.1906 5.07076 11.1839 5.07076C11.2465 5.07076 11.3096 5.07427 11.3712 5.06475C11.5189 5.04172 11.6055 4.9516 11.6195 4.8029C11.6335 4.6542 11.5679 4.54456 11.4252 4.499C11.3501 4.47497 11.2655 4.47246 11.1854 4.47246C9.19276 4.47096 7.1996 4.47096 5.20694 4.47246C5.12684 4.47246 5.04222 4.47497 4.96712 4.499C4.82443 4.54406 4.75534 4.65721 4.76936 4.8019C4.78338 4.94509 4.86799 5.04372 5.01869 5.06475C5.08027 5.07326 5.14336 5.07076 5.20594 5.07076C6.20527 5.07076 7.20511 5.07076 8.20444 5.07076H8.20394ZM3.33495 7.59262C3.33495 7.39336 3.33745 7.19359 3.33445 6.99432C3.33094 6.77003 3.2288 6.65637 3.00451 6.65187C2.59947 6.64436 2.19443 6.64436 1.78939 6.65187C1.56559 6.65587 1.45995 6.77103 1.45844 6.99382C1.45544 7.39286 1.45544 7.79139 1.45844 8.19042C1.45995 8.40571 1.56208 8.52687 1.77086 8.53137C2.18792 8.54039 2.60597 8.54039 3.02303 8.53137C3.23181 8.52687 3.33094 8.40671 3.33445 8.19042C3.33745 7.99115 3.33495 7.79139 3.33495 7.59212V7.59262ZM3.33495 4.06692C3.33495 3.86115 3.33795 3.65537 3.33394 3.4501C3.32994 3.23882 3.2223 3.12066 3.01402 3.11716C2.60297 3.11065 2.19142 3.11065 1.78037 3.11716C1.5726 3.12016 1.46095 3.23982 1.45895 3.4496C1.45544 3.85464 1.45544 4.25968 1.45895 4.66472C1.46095 4.879 1.56759 4.99065 1.77987 4.99316C2.19092 4.99866 2.60247 4.99816 3.01352 4.99316C3.2263 4.99065 3.32994 4.88001 3.33394 4.66522C3.33795 4.46595 3.33495 4.26619 3.33495 4.06692ZM3.33495 11.1378C3.33495 10.9321 3.33795 10.7263 3.33394 10.521C3.32994 10.3052 3.2273 10.1941 3.01502 10.1916C2.60397 10.1861 2.19242 10.1861 1.78138 10.1916C1.56859 10.1941 1.46095 10.3057 1.45895 10.5185C1.45494 10.9236 1.45544 11.3286 1.45895 11.7341C1.46095 11.9439 1.5726 12.0646 1.77887 12.0681C2.18992 12.0746 2.60147 12.0741 3.01252 12.0681C3.22129 12.0651 3.32994 11.9474 3.33394 11.7371C3.33795 11.5379 3.33495 11.3381 3.33495 11.1388V11.1378Z" fill="#58595B"/>
<path d="M10.6141 17.9966C10.4143 17.9966 10.214 17.989 10.0143 17.9996C9.89911 18.0056 9.85105 17.9595 9.815 17.8574C9.73639 17.6341 9.65328 17.4113 9.55665 17.195C9.52912 17.1329 9.45852 17.0753 9.39394 17.0473C9.00642 16.8786 8.6159 16.7158 8.22338 16.5586C8.1633 16.5346 8.07868 16.5266 8.02061 16.5496C7.7888 16.6412 7.5655 16.7544 7.33319 16.845C7.28112 16.8655 7.18399 16.848 7.14394 16.81C6.84153 16.5206 6.54514 16.2247 6.25676 15.9218C6.2157 15.8787 6.19818 15.7751 6.21971 15.718C6.30632 15.4912 6.41897 15.2739 6.50659 15.0476C6.53112 14.9845 6.52211 14.8934 6.49607 14.8283C6.34287 14.4408 6.18366 14.0558 6.01744 13.6738C5.9869 13.6042 5.92431 13.5291 5.85722 13.4991C5.64194 13.4014 5.41864 13.3203 5.19584 13.2397C5.10372 13.2067 5.05666 13.1661 5.05866 13.055C5.06617 12.6429 5.06567 12.2304 5.05866 11.8178C5.05666 11.7087 5.10122 11.6631 5.19434 11.6296C5.41714 11.549 5.64093 11.4694 5.85672 11.3722C5.92381 11.3422 5.9869 11.2661 6.01744 11.1965C6.18416 10.815 6.34337 10.4295 6.49658 10.0424C6.52261 9.97686 6.53062 9.88624 6.50609 9.82265C6.41797 9.59635 6.30532 9.37906 6.21921 9.15226C6.19768 9.09569 6.2157 8.99205 6.25676 8.94899C6.54063 8.65009 6.83853 8.36421 7.12491 8.06782C7.19801 7.99221 7.25709 7.9792 7.35122 8.02426C7.5645 8.1274 7.77979 8.22753 8.00108 8.31164C8.07017 8.33818 8.1678 8.33067 8.2384 8.30313C8.62641 8.15143 9.01143 7.99221 9.39344 7.82699C9.45852 7.79896 9.52862 7.73988 9.55615 7.67729C9.65278 7.46101 9.73639 7.23871 9.815 7.01541C9.85105 6.91278 9.90011 6.86772 10.0153 6.86972C10.4213 6.87673 10.8273 6.87723 11.2334 6.86972C11.3515 6.86722 11.3966 6.91728 11.4322 7.01742C11.5098 7.2347 11.5894 7.45199 11.6845 7.66177C11.715 7.72936 11.7871 7.79595 11.8562 7.82599C12.2377 7.99322 12.6227 8.15243 13.0103 8.30463C13.0809 8.33217 13.1785 8.33768 13.2476 8.31114C13.4684 8.22653 13.6837 8.12489 13.8979 8.02426C13.9811 7.98521 14.0386 7.9827 14.1097 8.0563C14.4011 8.3567 14.7035 8.64659 14.9919 8.94949C15.0325 8.99205 15.0485 9.09619 15.0269 9.15326C14.9403 9.38007 14.8277 9.59735 14.7401 9.82366C14.7155 9.88674 14.7255 9.97736 14.7516 10.0429C14.9048 10.4305 15.0635 10.816 15.2297 11.1975C15.2603 11.2671 15.3238 11.3422 15.3909 11.3722C15.6067 11.4688 15.8305 11.549 16.0533 11.6296C16.1469 11.6636 16.1895 11.7097 16.188 11.8188C16.181 12.2309 16.1825 12.6434 16.187 13.056C16.188 13.1511 16.1605 13.2012 16.0683 13.2342C15.8335 13.3178 15.5987 13.4044 15.3714 13.5056C15.3098 13.5326 15.2568 13.6087 15.2282 13.6743C15.063 14.0568 14.9028 14.4413 14.7496 14.8288C14.724 14.8939 14.7165 14.985 14.7411 15.0481C14.8292 15.2744 14.9418 15.4917 15.0279 15.7185C15.0495 15.7751 15.032 15.8792 14.9909 15.9223C14.7065 16.2207 14.4096 16.5071 14.1217 16.8025C14.0486 16.8776 13.9881 16.8886 13.8934 16.8425C13.6746 16.7369 13.4523 16.6372 13.226 16.5481C13.168 16.5251 13.0834 16.5341 13.0233 16.5581C12.6308 16.7153 12.2402 16.8776 11.8527 17.0463C11.7881 17.0743 11.718 17.1324 11.6905 17.194C11.5939 17.4103 11.5103 17.6326 11.4322 17.8559C11.3961 17.9585 11.347 18.0031 11.2329 17.9971C11.0271 17.987 10.8208 17.994 10.6146 17.994L10.6141 17.9966ZM13.2461 12.4532C13.2501 10.9917 12.084 9.81815 10.6261 9.81615C9.17515 9.81414 8.0126 10.9727 8.00258 12.4291C7.99307 13.8766 9.17264 15.0581 10.6311 15.0626C12.0585 15.0666 13.2426 13.8851 13.2466 12.4532H13.2461Z" fill="#58595B"/>
<path d="M12.6932 2.06653C12.4313 2.06653 12.1469 2.06653 11.8631 2.06653C11.5512 2.06653 11.2397 2.06503 10.9278 2.06703C10.8152 2.06753 10.7185 2.03749 10.7175 1.90982C10.713 1.295 10.7155 0.680681 10.7155 0.0878906C11.3739 0.746269 12.0338 1.40665 12.6932 2.06653Z" fill="#58595B"/>
<path d="M10.2484 12.6526C10.6565 12.2566 11.046 11.8786 11.4355 11.5006C11.4891 11.4485 11.5396 11.3919 11.5992 11.3469C11.7524 11.2312 11.9622 11.2452 12.0974 11.3734C12.2351 11.5041 12.2581 11.7068 12.1494 11.8686C12.1184 11.9146 12.0793 11.9562 12.0398 11.9962C11.5697 12.4719 11.1 12.947 10.6284 13.4211C10.3721 13.6785 10.1868 13.677 9.92648 13.4171C9.68315 13.1748 9.43933 12.9325 9.19751 12.6882C8.99173 12.4799 8.97421 12.2491 9.14794 12.0803C9.32067 11.9126 9.53846 11.9296 9.74223 12.1329C9.91847 12.3086 10.0897 12.4894 10.2479 12.6526H10.2484Z" fill="#58595B"/>
</g>
<defs>
<clipPath id="clip0_1365_209">
<rect width="16.1876" height="18" fill="white"/>
</clipPath>
</defs>
</svg>
