<svg width="20" height="20" viewBox="0 0 20 20" fill="none" xmlns="http://www.w3.org/2000/svg">
<mask id="mask0_1365_427" style="mask-type:alpha" maskUnits="userSpaceOnUse" x="2" y="2" width="16" height="16">
<path fill-rule="evenodd" clip-rule="evenodd" d="M13.0456 11.9166H12.3929L12.1615 11.6935C12.9712 10.7516 13.4587 9.52882 13.4587 8.1986C13.4587 5.23244 11.0544 2.82812 8.08825 2.82812C5.12209 2.82812 2.71777 5.23244 2.71777 8.1986C2.71777 11.1648 5.12209 13.5691 8.08825 13.5691C9.41847 13.5691 10.6413 13.0816 11.5832 12.2719L11.8063 12.5032V13.156L15.9374 17.2788L17.1685 16.0478L13.0456 11.9166ZM8.08807 11.9168C6.03077 11.9168 4.37005 10.2561 4.37005 8.19882C4.37005 6.14151 6.03077 4.4808 8.08807 4.4808C10.1454 4.4808 11.8061 6.14151 11.8061 8.19882C11.8061 10.2561 10.1454 11.9168 8.08807 11.9168Z" fill="#898989"/>
</mask>
<g mask="url(#mask0_1365_427)">
<rect x="-0.894531" y="-0.782715" width="25.2887" height="24.0845" fill="white"/>
</g>
</svg>
