<svg width="157" height="30" viewBox="0 0 157 30" fill="none" xmlns="http://www.w3.org/2000/svg">
<g clip-path="url(#clip0_1365_434)">
<path d="M5.60499 12.5231C6.89237 12.5476 8.47719 12.4788 10.0667 12.5575C12.0791 12.6558 13.9799 13.2013 15.8018 14.0958C17.9769 15.1672 19.9102 16.6318 21.746 18.2537C23.3402 19.6594 24.8971 21.1092 26.5005 22.5001C27.602 23.4536 28.7685 24.3235 30.0977 24.9084C31.413 25.4883 32.7701 25.5719 34.1597 25.2573C35.0707 25.0509 35.8933 24.6725 36.5486 23.9451C37.4502 22.9375 37.6222 21.1141 36.8972 19.9592C36.4696 19.2809 35.8189 18.8828 35.1404 18.5486C33.853 17.9195 32.482 17.5853 31.1109 17.2413C29.2798 16.7793 27.4579 16.2731 25.7755 15.3491C24.7856 14.8035 23.8793 14.1351 23.2007 13.1669C22.4246 12.0562 22.0388 10.8029 21.9412 9.43656C21.8158 7.68689 22.0202 6.01094 22.8708 4.46769C23.8839 2.62464 25.399 1.42542 27.2674 0.702946C28.8708 0.0836795 30.53 -0.0785092 32.2217 0.019787C33.2953 0.0836795 34.3596 0.216379 35.4006 0.496524C37.0645 0.943771 38.6075 1.68591 40.0343 2.70327C40.3968 2.96376 40.75 3.23407 41.1079 3.49947C41.2287 3.58794 41.2752 3.67149 41.1636 3.82876C40.7686 4.40871 40.3921 5.0034 40.0017 5.58827C39.6067 6.18296 39.1931 6.76782 38.8073 7.36743C38.7004 7.52962 38.64 7.51979 38.5006 7.41658C37.0041 6.296 35.4239 5.34253 33.6253 4.86579C32.1845 4.48735 30.7298 4.37431 29.2798 4.80681C28.2155 5.12627 27.3324 5.75537 26.9234 6.89069C26.389 8.37005 26.7515 10.0853 28.3921 10.9651C29.6144 11.6237 30.9157 12.0168 32.2356 12.3707C34.2202 12.9064 36.214 13.4274 38.0637 14.3907C39.3371 15.0542 40.4154 15.9683 41.1822 17.2511C41.7585 18.2144 42.0327 19.2809 42.1117 20.4064C42.2279 22.0775 42.042 23.6944 41.2984 25.2033C40.341 27.1397 38.8491 28.4225 36.9297 29.1646C35.0335 29.9018 33.0676 30.1427 31.0691 29.8969C29.2891 29.6807 27.6717 28.9582 26.1519 27.9752C24.6973 27.0316 23.382 25.8913 22.09 24.7118C20.3889 23.1538 18.7623 21.5024 16.959 20.0722C15.5973 18.991 14.1565 18.0571 12.5066 17.5411C11.698 17.2904 10.866 17.1725 10.0202 17.1725C6.83659 17.1725 3.653 17.1725 0.464758 17.1725C0.362511 17.1725 0.260265 17.1725 0.158018 17.1626C0.0464758 17.1577 0 17.0987 0 16.971C0 15.5604 0 14.1449 0 12.7344C0 12.582 0.0650662 12.5181 0.199846 12.5181C0.357864 12.5181 0.515882 12.5181 0.6739 12.5181C2.2169 12.5181 3.75525 12.5181 5.60034 12.5181L5.60499 12.5231Z" fill="white"/>
<path d="M9.49501 24.9429C12.5113 24.9429 15.5276 24.9429 18.5439 24.9429C19.0272 24.9429 18.9854 24.9036 18.9854 25.4C18.9854 26.6827 18.9854 27.9655 18.99 29.2532C18.99 29.4842 18.9389 29.5825 18.6972 29.5825C12.5996 29.5727 6.50197 29.5776 0.40434 29.5727C0.00929516 29.5727 0.00929516 29.5727 0.00929516 29.1598C0.00929516 27.8672 0.0185903 26.5746 0 25.2771C0 24.9921 0.0836565 24.938 0.334626 24.938C3.38809 24.9478 6.44155 24.9429 9.49501 24.9429Z" fill="white"/>
<path d="M9.38744 0.418001C12.3944 0.418001 15.4014 0.418001 18.4084 0.418001C18.6532 0.418001 18.7756 0.547424 18.7756 0.806271C18.7756 2.07921 18.7756 3.35214 18.7756 4.62508C18.7756 5.03792 18.7756 5.03792 18.3759 5.04284C12.4084 5.04284 6.44087 5.04284 0.47802 5.04284C0.0086138 5.04284 0.00861381 5.04284 0.0132614 4.5317C0.0132614 3.26859 0.0225566 2.00548 0.00861381 0.742378C-0.00068136 0.476978 0.0690324 0.413086 0.315354 0.413086C3.34093 0.422916 6.36651 0.418001 9.39208 0.418001H9.38744Z" fill="white"/>
<path d="M49.5332 24.186V5.81445H62.2908V9.25482H52.7865V20.7506H62.2908V24.1909H49.5332V24.186ZM54.6223 13.2653H59.9577V16.7302H54.6223V13.2653Z" fill="white"/>
<path d="M63.4355 5.81445H76.1932V9.25482H75.4217L68.125 20.7506H76.1932V24.1909H63.4355V20.7506H64.207L71.527 9.25482H63.4355V5.81445Z" fill="white"/>
<path d="M81.9746 6.52219C83.0482 6.05036 84.1868 5.81445 85.3859 5.81445C86.585 5.81445 87.7236 6.05036 88.7972 6.52219C89.8708 6.99401 90.8236 7.65259 91.6508 8.49302C92.4781 9.3482 93.1195 10.341 93.5749 11.4567C94.0304 12.5772 94.2581 13.7568 94.2581 15.0002C94.2581 16.2437 94.0304 17.4232 93.5749 18.5438C93.1195 19.6644 92.4781 20.6523 91.6508 21.5074C90.8236 22.3479 89.8708 23.0015 88.7972 23.4783C87.7236 23.9501 86.585 24.186 85.3859 24.186C84.1868 24.186 83.0482 23.9501 81.9746 23.4783C80.901 23.0065 79.9575 22.3479 79.1442 21.5074C78.3169 20.6523 77.6709 19.6595 77.2108 18.5438C76.7461 17.4232 76.5137 16.2437 76.5137 15.0002C76.5137 13.7568 76.7461 12.5772 77.2108 11.4567C77.6756 10.3361 78.3169 9.3482 79.1442 8.49302C79.9529 7.65259 80.8963 6.99892 81.9746 6.52219ZM91.0048 15.0002C91.0048 13.4275 90.4657 12.0759 89.3921 10.9603C88.2814 9.82494 86.9475 9.25482 85.3859 9.25482C83.8243 9.25482 82.4951 9.82494 81.4029 10.9603C80.3107 12.0808 79.767 13.4275 79.767 15.0002C79.767 16.573 80.3107 17.9245 81.4029 19.0402C82.4951 20.1755 83.8243 20.7456 85.3859 20.7456C86.9475 20.7456 88.286 20.1755 89.3921 19.0402C90.4657 17.9196 91.0048 16.573 91.0048 15.0002Z" fill="white"/>
<path d="M105.499 17.5456C104.723 17.0198 103.77 16.7494 102.646 16.7298C100.791 16.7101 99.1787 16.2481 97.8076 15.3389C97.0454 14.8474 96.4505 14.2478 96.023 13.5401C95.5907 12.8323 95.377 12.0705 95.377 11.2547C95.377 10.4388 95.5814 9.68195 95.9951 8.98405C96.4087 8.28615 96.9897 7.68162 97.7333 7.1754C99.0718 6.26616 100.657 5.80908 102.488 5.80908C104.319 5.80908 105.899 6.26616 107.242 7.1754C107.986 7.68162 108.567 8.28615 108.98 8.98405C109.394 9.68195 109.603 10.4437 109.603 11.2694H106.35C106.35 10.8664 106.066 10.4634 105.504 10.0604C104.695 9.51976 103.687 9.24453 102.488 9.24453C101.289 9.24453 100.289 9.51485 99.4994 10.0604C98.9184 10.4437 98.6303 10.8468 98.6303 11.2694C98.6303 11.6528 98.9277 12.0411 99.5226 12.4244C100.35 12.965 101.349 13.2452 102.525 13.2648C104.347 13.2845 105.918 13.7465 107.242 14.6557C107.986 15.1472 108.567 15.7468 108.98 16.4546C109.394 17.1623 109.603 17.9241 109.603 18.7399C109.603 19.5558 109.394 20.3127 108.98 21.0106C108.567 21.7085 107.986 22.313 107.242 22.8192C105.904 23.7285 104.319 24.1856 102.488 24.1856C100.657 24.1856 99.0764 23.7285 97.7333 22.8192C96.9897 22.313 96.4087 21.7085 95.9951 21.0106C95.5814 20.3127 95.377 19.5509 95.377 18.7252H98.6303C98.6303 19.143 98.9184 19.546 99.4994 19.9342C100.294 20.4749 101.289 20.7501 102.488 20.7501C103.687 20.7501 104.691 20.4798 105.504 19.9342C106.066 19.5509 106.35 19.1528 106.35 18.7399C106.35 18.3271 106.066 17.929 105.504 17.5456H105.499Z" fill="white"/>
<path d="M116.199 6.52219C117.273 6.05036 118.411 5.81445 119.611 5.81445C120.81 5.81445 121.948 6.05036 123.022 6.52219C124.095 6.99401 125.048 7.65259 125.875 8.49302C126.703 9.3482 127.344 10.341 127.8 11.4567C128.255 12.5772 128.483 13.7568 128.483 15.0002C128.483 16.2437 128.255 17.4232 127.8 18.5438C127.344 19.6644 126.703 20.6523 125.875 21.5074C125.048 22.3479 124.095 23.0015 123.022 23.4783C121.948 23.9501 120.81 24.186 119.611 24.186C118.411 24.186 117.273 23.9501 116.199 23.4783C115.126 23.0065 114.182 22.3479 113.369 21.5074C112.542 20.6523 111.896 19.6595 111.435 18.5438C110.971 17.4232 110.738 16.2437 110.738 15.0002C110.738 13.7568 110.971 12.5772 111.435 11.4567C111.9 10.3361 112.542 9.3482 113.369 8.49302C114.177 7.65259 115.121 6.99892 116.199 6.52219ZM125.229 15.0002C125.229 13.4275 124.69 12.0759 123.617 10.9603C122.506 9.82494 121.172 9.25482 119.611 9.25482C118.049 9.25482 116.72 9.82494 115.628 10.9603C114.535 12.0808 113.992 13.4275 113.992 15.0002C113.992 16.573 114.535 17.9245 115.628 19.0402C116.72 20.1755 118.049 20.7456 119.611 20.7456C121.172 20.7456 122.511 20.1755 123.617 19.0402C124.69 17.9196 125.229 16.573 125.229 15.0002Z" fill="white"/>
<path d="M130.221 24.186V5.81445H142.978V9.25482H133.474V13.2702H140.645V16.7352H133.474V24.1909H130.221V24.186Z" fill="white"/>
<path d="M144.242 5.81445H157V9.25482H152.259V24.1909H149.006V9.25482H144.242V5.81445Z" fill="white"/>
</g>
<defs>
<clipPath id="clip0_1365_434">
<rect width="157" height="30" fill="white"/>
</clipPath>
</defs>
</svg>
