<svg width="23" height="26" viewBox="0 0 23 26" fill="none" xmlns="http://www.w3.org/2000/svg">
<g clip-path="url(#clip0_1178_42)">
<path d="M7.92711 15.8729C7.84158 15.9459 7.76787 16.046 7.66913 16.0878C7.31866 16.2359 6.96054 16.3694 6.60243 16.4987C6.46961 16.5467 6.41815 16.6149 6.41954 16.763C6.42719 17.7177 6.4258 18.6718 6.42024 19.6265C6.41954 19.7628 6.46752 19.8247 6.5913 19.8699C6.95776 20.002 7.32353 20.139 7.68095 20.292C7.76926 20.3302 7.85409 20.4262 7.89512 20.5166C8.04949 20.8545 8.19413 21.1987 8.32208 21.5471C8.35824 21.6459 8.35963 21.7829 8.32208 21.8802C8.18231 22.2342 8.00916 22.5756 7.87078 22.9302C7.84019 23.0081 7.86661 23.1527 7.92363 23.2118C8.13711 23.4344 8.37423 23.6339 8.60301 23.8419C8.58563 23.8697 8.56894 23.8975 8.55155 23.9253C8.4695 23.9253 8.38744 23.9253 8.30539 23.9253C5.83265 23.9253 3.35991 23.9253 0.887166 23.9253C0.369809 23.9253 0.226562 23.7793 0.226562 23.2557C0.226562 16.028 0.226562 8.79958 0.226562 1.57049C0.226562 1.0587 0.368418 0.914062 0.869086 0.914062C5.24228 0.914062 9.61478 0.914062 13.9873 0.914062C14.0721 0.914062 14.1576 0.914062 14.2724 0.914062C14.2724 1.06357 14.2724 1.19082 14.2724 1.31807C14.2724 2.04682 14.2696 2.77627 14.2731 3.50502C14.2765 4.17605 14.7125 4.61414 15.3794 4.61692C16.1429 4.62039 16.9064 4.61761 17.67 4.61761C17.7631 4.61761 17.8556 4.61761 17.962 4.61761V11.3356C17.6978 11.2424 17.4405 11.159 17.1902 11.0574C17.1401 11.0373 17.1095 10.9511 17.0852 10.8899C16.9419 10.5269 16.8126 10.159 16.6568 9.8023C16.6227 9.72442 16.5017 9.6368 16.419 9.63611C15.4649 9.62429 14.5102 9.63194 13.5561 9.62568C13.4101 9.62498 13.3204 9.67018 13.2947 9.81134C13.2571 10.0172 13.1299 10.0506 12.94 10.0499C11.1182 10.0429 9.2963 10.0457 7.47442 10.0457C7.05372 10.0457 6.8472 10.182 6.84302 10.4601C6.83885 10.7404 7.04329 10.8787 7.46469 10.8787C9.16487 10.8787 10.8657 10.8787 12.5659 10.8787C12.6584 10.8787 12.7502 10.8787 12.8427 10.8787C12.8538 10.9045 12.8649 10.9302 12.8761 10.9552C12.8031 11.006 12.7363 11.0714 12.6563 11.1054C12.3149 11.2528 11.9728 11.3996 11.6237 11.5268C11.5243 11.563 11.3866 11.5644 11.2885 11.5261C10.9422 11.3898 10.6029 11.2348 10.267 11.0741C10.1294 11.0081 10.0383 11.0164 9.92908 11.1339C9.68084 11.401 9.42355 11.6596 9.15514 11.9051C9.07517 11.9781 8.94791 12.0324 8.84013 12.0351C8.34572 12.049 7.85131 12.0386 7.3569 12.0421C7.03008 12.0449 6.83677 12.2076 6.84372 12.4635C6.84998 12.709 7.04051 12.8675 7.34856 12.8731C7.60446 12.8779 7.85966 12.8738 8.10512 12.8738C8.11625 12.9162 8.12251 12.9301 8.12042 12.9315C7.73101 13.1867 7.84575 13.4885 8.02307 13.8125C8.14337 14.0322 8.23168 14.2694 8.33181 14.4995C8.45281 14.7784 8.34016 14.9578 8.04254 14.9606C7.79986 14.9627 7.55648 14.9571 7.31379 14.9627C7.02521 14.9689 6.84302 15.1316 6.84302 15.3729C6.84302 15.61 7.03008 15.779 7.3131 15.7929C7.40836 15.7978 7.50363 15.7943 7.59959 15.7943C7.69346 15.7943 7.78734 15.7943 7.88121 15.7943C7.89651 15.8207 7.91251 15.8472 7.9278 15.8736L7.92711 15.8729ZM11.5945 5.96941C12.9811 5.96941 14.3676 5.96941 15.7542 5.96941C16.1812 5.96941 16.3696 5.83938 16.3661 5.54941C16.3627 5.26083 16.1749 5.13636 15.7431 5.13636C12.9873 5.13636 10.2309 5.13636 7.47512 5.13636C7.37985 5.13636 7.2818 5.12801 7.19001 5.14818C6.96819 5.19755 6.83607 5.34636 6.84789 5.57305C6.85971 5.79627 6.99392 5.93812 7.22617 5.96455C7.30336 5.97289 7.38194 5.96872 7.45982 5.96872C8.83805 5.96872 10.2156 5.96872 11.5938 5.96872L11.5945 5.96941ZM11.6209 7.95679C13.0005 7.95679 14.3802 7.95679 15.7598 7.95679C15.8467 7.95679 15.9343 7.96165 16.0198 7.94844C16.225 7.91646 16.3453 7.79129 16.3647 7.58476C16.3842 7.37824 16.2931 7.22595 16.0949 7.16267C15.9906 7.12929 15.8731 7.12582 15.7619 7.12582C12.9943 7.12373 10.226 7.12373 7.45843 7.12582C7.34717 7.12582 7.22965 7.12929 7.12535 7.16267C6.92716 7.22526 6.8312 7.38241 6.85067 7.58337C6.87014 7.78225 6.98766 7.91924 7.19697 7.94844C7.2825 7.96026 7.37012 7.95679 7.45704 7.95679C8.845 7.95679 10.2337 7.95679 11.6216 7.95679H11.6209ZM4.85843 11.4594C4.85843 11.1826 4.86191 10.9052 4.85774 10.6284C4.85287 10.3169 4.71101 10.159 4.39949 10.1528C3.83693 10.1423 3.27438 10.1423 2.71182 10.1528C2.40099 10.1583 2.25427 10.3183 2.25218 10.6277C2.24801 11.1819 2.24801 11.7354 2.25218 12.2896C2.25427 12.5887 2.39612 12.7569 2.68609 12.7632C3.26534 12.7757 3.84597 12.7757 4.42522 12.7632C4.71519 12.7569 4.85287 12.59 4.85774 12.2896C4.86191 12.0129 4.85843 11.7354 4.85843 11.4587V11.4594ZM4.85843 6.56257C4.85843 6.27677 4.86261 5.99097 4.85704 5.70587C4.85148 5.41242 4.70197 5.24831 4.4127 5.24345C3.8418 5.23441 3.2702 5.23441 2.6993 5.24345C2.41073 5.24762 2.25566 5.41381 2.25288 5.70517C2.24801 6.26773 2.24801 6.83028 2.25288 7.39284C2.25566 7.69046 2.40377 7.84553 2.69861 7.849C3.26951 7.85665 3.8411 7.85596 4.412 7.849C4.70754 7.84553 4.85148 7.69185 4.85704 7.39354C4.86261 7.11678 4.85843 6.83932 4.85843 6.56257ZM4.85843 16.3833C4.85843 16.0975 4.86261 15.8117 4.85704 15.5266C4.85148 15.2269 4.70893 15.0725 4.41409 15.069C3.84319 15.0614 3.2716 15.0614 2.7007 15.069C2.40516 15.0725 2.25566 15.2276 2.25288 15.5231C2.24731 16.0857 2.24801 16.6482 2.25288 17.2115C2.25566 17.5028 2.41072 17.6704 2.69722 17.6753C3.26812 17.6843 3.83971 17.6836 4.41061 17.6753C4.70058 17.6711 4.85148 17.5077 4.85704 17.2157C4.86261 16.9389 4.85843 16.6614 4.85843 16.3847V16.3833Z" fill="#01ADC3"/>
<path d="M14.9679 25.9091C14.6904 25.9091 14.4123 25.8987 14.1348 25.9133C13.9749 25.9217 13.9081 25.8577 13.8581 25.7158C13.7489 25.4057 13.6335 25.0963 13.4993 24.7959C13.461 24.7096 13.363 24.6297 13.2733 24.5907C12.735 24.3564 12.1927 24.1304 11.6475 23.912C11.564 23.8787 11.4465 23.8675 11.3659 23.8995C11.0439 24.0268 10.7338 24.1839 10.4111 24.3098C10.3388 24.3383 10.2039 24.314 10.1483 24.2611C9.72826 23.8592 9.3166 23.4482 8.91607 23.0275C8.85905 22.9677 8.83471 22.8238 8.86461 22.7445C8.98491 22.4295 9.14137 22.1277 9.26306 21.8134C9.29713 21.7258 9.28461 21.5992 9.24846 21.5088C9.03567 20.9706 8.81454 20.4359 8.58368 19.9053C8.54126 19.8086 8.45434 19.7043 8.36116 19.6626C8.06215 19.527 7.75201 19.4144 7.44257 19.3024C7.31463 19.2565 7.24926 19.2002 7.25204 19.0458C7.26247 18.4735 7.26178 17.9005 7.25204 17.3276C7.24926 17.176 7.31115 17.1127 7.44049 17.0661C7.74993 16.9541 8.06076 16.8436 8.36047 16.7087C8.45365 16.667 8.54126 16.5613 8.58368 16.4646C8.81524 15.9347 9.03637 15.3993 9.24915 14.8618C9.28531 14.7707 9.29644 14.6448 9.26236 14.5565C9.13998 14.2422 8.98352 13.9404 8.86391 13.6254C8.83401 13.5468 8.85905 13.4029 8.91607 13.3431C9.31034 12.9279 9.72409 12.5309 10.1218 12.1192C10.2234 12.0142 10.3054 11.9961 10.4362 12.0587C10.7324 12.202 11.0314 12.341 11.3387 12.4579C11.4347 12.4947 11.5703 12.4843 11.6683 12.4461C12.2073 12.2354 12.742 12.0142 13.2726 11.7848C13.363 11.7458 13.4603 11.6638 13.4986 11.5768C13.6328 11.2764 13.7489 10.9677 13.8581 10.6576C13.9081 10.515 13.9763 10.4524 14.1362 10.4552C14.7002 10.4649 15.2641 10.4656 15.8281 10.4552C15.9922 10.4517 16.0548 10.5213 16.1041 10.6603C16.2119 10.9621 16.3225 11.2639 16.4546 11.5553C16.497 11.6492 16.5971 11.7416 16.6931 11.7834C17.223 12.0156 17.7577 12.2367 18.2959 12.4481C18.394 12.4864 18.5296 12.494 18.6255 12.4572C18.9322 12.3397 19.2312 12.1985 19.5288 12.0587C19.6443 12.0045 19.7242 12.001 19.823 12.1032C20.2277 12.5205 20.6477 12.9231 21.0482 13.3438C21.1045 13.4029 21.1268 13.5475 21.0969 13.6268C20.9766 13.9418 20.8201 14.2436 20.6984 14.5579C20.6644 14.6455 20.6783 14.7714 20.7144 14.8625C20.9272 15.4007 21.1477 15.9361 21.3785 16.466C21.4209 16.5627 21.5092 16.667 21.6024 16.7087C21.9021 16.8429 22.213 16.9541 22.5224 17.0661C22.6524 17.1134 22.7115 17.1774 22.7095 17.329C22.6997 17.9012 22.7018 18.4742 22.7081 19.0472C22.7095 19.1793 22.6712 19.2489 22.5433 19.2948C22.2171 19.4109 21.891 19.5312 21.5753 19.6717C21.4898 19.7092 21.4161 19.8149 21.3764 19.906C21.147 20.4373 20.9244 20.9713 20.7117 21.5095C20.6762 21.5999 20.6658 21.7265 20.6998 21.8141C20.8222 22.1284 20.9787 22.4302 21.0983 22.7452C21.1282 22.8238 21.1038 22.9684 21.0468 23.0282C20.6519 23.4427 20.2395 23.8404 19.8397 24.2507C19.7381 24.355 19.654 24.3703 19.5226 24.3063C19.2187 24.1596 18.9099 24.0212 18.5956 23.8974C18.515 23.8654 18.3975 23.878 18.314 23.9113C17.7688 24.1297 17.2265 24.355 16.6882 24.5893C16.5985 24.6283 16.5012 24.7089 16.4629 24.7945C16.3287 25.0949 16.2126 25.4036 16.1041 25.7137C16.0541 25.8563 15.9859 25.9182 15.8274 25.9098C15.5416 25.8959 15.2551 25.9057 14.9686 25.9057L14.9679 25.9091ZM18.6235 18.21C18.629 16.1802 17.0095 14.5502 14.9846 14.5475C12.9694 14.5447 11.3547 16.1538 11.3408 18.1766C11.3276 20.1869 12.9659 21.828 14.9915 21.8343C16.974 21.8398 18.6186 20.1987 18.6242 18.21H18.6235Z" fill="#01ADC3"/>
<path d="M17.8551 3.78473C17.4914 3.78473 17.0965 3.78473 16.7022 3.78473C16.269 3.78473 15.8364 3.78264 15.4032 3.78543C15.2468 3.78612 15.1126 3.7444 15.1112 3.56708C15.1049 2.71316 15.1084 1.85994 15.1084 1.03662C16.0228 1.95103 16.9393 2.86823 17.8551 3.78473Z" fill="#01ADC3"/>
<path d="M14.4608 18.4869C15.0275 17.9369 15.5685 17.4119 16.1095 16.8869C16.1839 16.8146 16.2542 16.736 16.3369 16.6734C16.5497 16.5128 16.841 16.5322 17.0288 16.7103C17.22 16.8918 17.252 17.1734 17.1011 17.398C17.058 17.462 17.0038 17.5197 16.9488 17.5753C16.2959 18.2359 15.6436 18.8958 14.9886 19.5543C14.6325 19.9118 14.3753 19.9097 14.0137 19.5488C13.6757 19.2122 13.3371 18.8756 13.0012 18.5363C12.7154 18.247 12.6911 17.9265 12.9324 17.6921C13.1723 17.4592 13.4748 17.4828 13.7578 17.7651C14.0025 18.0092 14.2404 18.2602 14.4601 18.4869H14.4608Z" fill="#01ADC3"/>
</g>
<defs>
<clipPath id="clip0_1178_42">
<rect width="22.4828" height="25" fill="white" transform="translate(0.226562 0.914062)"/>
</clipPath>
</defs>
</svg>
