<svg width="17" height="16" viewBox="0 0 17 16" fill="none" xmlns="http://www.w3.org/2000/svg">
<g clip-path="url(#clip0_1174_214)">
<path d="M16.3472 2.79331V13.049C16.2255 13.3337 16.0085 13.4297 15.7027 13.4285C13.6448 13.4207 11.5869 13.4242 9.52903 13.4242H9.34302C9.34302 13.9325 9.34654 14.4165 9.34184 14.9009C9.33871 15.2557 9.06224 15.4746 8.71215 15.4092C8.41061 15.3528 8.10868 15.2957 7.80715 15.2389C5.46497 14.8003 3.12278 14.3617 0.780991 13.9223C0.500602 13.8698 0.33887 13.6732 0.338478 13.3835C0.337695 9.74193 0.337695 6.10001 0.338478 2.45849C0.338478 2.1687 0.500211 1.97329 0.781382 1.92042C3.43058 1.42348 6.07978 0.926925 8.72859 0.431154C9.06694 0.367714 9.33832 0.59132 9.34224 0.940631C9.34694 1.37296 9.34341 1.80529 9.34341 2.23802C9.34341 2.29362 9.34341 2.34923 9.34341 2.41815H9.5443C11.5916 2.41815 13.6393 2.42207 15.6866 2.41385C15.9956 2.41267 16.2219 2.50078 16.3472 2.79331ZM9.35124 10.4225H9.54704C10.9384 10.4225 12.3298 10.4225 13.7212 10.4225C13.7783 10.4225 13.8363 10.4206 13.8931 10.4265C14.146 10.4539 14.3368 10.6571 14.3454 10.905C14.354 11.1478 14.186 11.3628 13.944 11.4113C13.8786 11.4243 13.8093 11.4223 13.7415 11.4223C12.34 11.4227 10.938 11.4227 9.53647 11.4227H9.35555V12.415H15.3373V3.43045H9.35203V4.41925H9.54391C10.9353 4.41925 12.3267 4.41925 13.718 4.41925C13.7752 4.41925 13.8332 4.41729 13.8899 4.42277C14.1433 4.44862 14.3352 4.6503 14.3454 4.89818C14.3556 5.14137 14.1899 5.35714 13.9471 5.40688C13.8766 5.42136 13.8022 5.41901 13.7294 5.41901C12.3329 5.4198 10.9365 5.41941 9.53961 5.41941H9.35438V6.41995H9.55018C10.9415 6.41995 12.3329 6.41995 13.7243 6.41995C13.7815 6.41995 13.8394 6.4176 13.8962 6.42426C14.1488 6.45285 14.3383 6.65766 14.3458 6.90554C14.3528 7.14834 14.1832 7.36255 13.9412 7.40954C13.8754 7.42207 13.8065 7.42011 13.7388 7.42011C12.3372 7.4205 10.9353 7.4205 9.53373 7.4205H9.35712V8.42105H9.55723C10.9435 8.42105 12.3294 8.42105 13.7157 8.42105C13.7783 8.42105 13.8414 8.41831 13.9029 8.42614C14.1547 8.45708 14.3418 8.66502 14.3462 8.9133C14.3501 9.15531 14.177 9.36912 13.9354 9.41259C13.8696 9.42434 13.8003 9.4216 13.7329 9.4216C12.3364 9.42199 10.94 9.4216 9.54313 9.4216H9.35203V10.4221L9.35124 10.4225ZM3.58487 8.34273C3.57548 8.34273 3.56569 8.34273 3.55629 8.34273C3.54767 8.30318 3.53632 8.26402 3.53044 8.22368C3.46622 7.7753 3.40474 7.32691 3.33934 6.87891C3.29548 6.57895 3.04603 6.38275 2.76995 6.42544C2.48682 6.4693 2.30785 6.72031 2.34741 7.01989C2.36307 7.13855 2.38383 7.25642 2.40066 7.37508C2.54712 8.4003 2.6928 9.42591 2.84044 10.4507C2.87059 10.661 2.9728 10.8224 3.18583 10.8905C3.47601 10.9837 3.71489 10.8486 3.83824 10.5208C4.15153 9.68867 4.46324 8.85573 4.77613 8.02318C4.79297 7.97854 4.81373 7.93546 4.84388 7.86615C4.87364 7.94055 4.89166 7.98245 4.90771 8.02553C5.21865 8.85299 5.5288 9.68084 5.84208 10.5075C5.87458 10.5937 5.91531 10.6841 5.97562 10.7511C6.11581 10.907 6.29399 10.961 6.49919 10.8897C6.71614 10.8145 6.81835 10.6505 6.84302 10.4319C6.9464 9.52146 7.04822 8.61098 7.15004 7.7005C7.21269 7.14168 7.27535 6.58286 7.33605 6.02404C7.37051 5.70919 7.18802 5.45935 6.90137 5.42332C6.63155 5.38925 6.37819 5.59015 6.34451 5.87602C6.28733 6.35691 6.2376 6.83858 6.18434 7.31947C6.15106 7.61905 6.1162 7.91862 6.08213 8.21781C6.03553 8.17121 6.01556 8.12422 5.99755 8.07644C5.77825 7.49217 5.55856 6.90828 5.34004 6.32362C5.28522 6.17716 5.20533 6.05576 5.05182 5.99467C4.74911 5.87445 4.46168 6.00681 4.34067 6.32793C4.08769 6.99914 3.83668 7.67074 3.58448 8.34195L3.58487 8.34273Z" fill="black"/>
</g>
<defs>
<clipPath id="clip0_1174_214">
<rect width="16.0088" height="15" fill="white" transform="translate(0.337891 0.42041)"/>
</clipPath>
</defs>
</svg>
