<svg width="114" height="77" viewBox="0 0 114 77" fill="none" xmlns="http://www.w3.org/2000/svg">
<g clip-path="url(#clip0_1139_2723)">
<path d="M15.4643 32.347C18.9143 32.407 23.1843 32.237 27.4443 32.437C32.8443 32.687 37.9543 34.077 42.8443 36.347C48.6943 39.0671 53.8843 42.7971 58.8043 46.9071C63.0743 50.4771 67.2643 54.1571 71.5643 57.687C74.5243 60.1171 77.6543 62.317 81.2243 63.807C84.7543 65.277 88.4043 65.4871 92.1343 64.6971C94.5843 64.1771 96.7943 63.2071 98.5443 61.3671C100.974 58.807 101.424 54.1771 99.4743 51.2471C98.3243 49.5271 96.5843 48.517 94.7543 47.667C91.3043 46.0671 87.6143 45.2271 83.9443 44.347C79.0243 43.1771 74.1343 41.8871 69.6143 39.5371C66.9543 38.1571 64.5143 36.4571 62.7043 33.9971C60.6243 31.1771 59.5843 27.997 59.3243 24.517C58.9943 20.077 59.5343 15.8171 61.8143 11.8971C64.5443 7.21705 68.6043 4.17705 73.6243 2.32705C77.9243 0.747051 82.3843 0.347051 86.9343 0.597051C89.8243 0.757051 92.6743 1.09705 95.4743 1.81705C99.9443 2.95705 104.094 4.83705 107.914 7.41705C108.884 8.07705 109.834 8.76705 110.794 9.43705C111.124 9.66705 111.234 9.87705 110.954 10.2771C109.894 11.7471 108.874 13.2571 107.834 14.7471C106.764 16.2571 105.664 17.737 104.624 19.267C104.344 19.677 104.174 19.6471 103.804 19.3871C99.7843 16.5371 95.5443 14.1171 90.7143 12.9171C86.8443 11.9471 82.9343 11.6671 79.0543 12.7671C76.1943 13.5771 73.8243 15.1771 72.7343 18.0571C71.3043 21.8071 72.2743 26.1671 76.6843 28.4071C79.9643 30.0771 83.4643 31.0771 87.0043 31.9771C92.3343 33.3371 97.6843 34.6571 102.654 37.1071C106.074 38.7871 108.964 41.1171 111.024 44.3771C112.574 46.8171 113.314 49.5271 113.524 52.3871C113.834 56.6271 113.334 60.737 111.334 64.567C108.764 69.4771 104.764 72.7371 99.6043 74.6271C94.5143 76.4971 89.2343 77.1071 83.8643 76.4871C79.0843 75.937 74.7443 74.0971 70.6643 71.5971C66.7543 69.1971 63.2243 66.3071 59.7543 63.307C55.1843 59.357 50.8143 55.1571 45.9743 51.5271C42.3143 48.7771 38.4543 46.4071 34.0243 45.1071C31.8543 44.4671 29.6143 44.167 27.3543 44.167C18.8043 44.167 10.2543 44.167 1.69434 44.167C1.41434 44.167 1.14434 44.167 0.864336 44.147C0.564336 44.127 0.444336 43.987 0.444336 43.667C0.444336 40.077 0.444336 36.4971 0.444336 32.9071C0.444336 32.5171 0.614336 32.3671 0.984336 32.357C1.41434 32.357 1.83434 32.357 2.26434 32.357C6.40434 32.357 10.5443 32.357 15.4843 32.357L15.4643 32.347Z" fill="#0F1577"/>
<path d="M25.9041 63.887C34.0041 63.887 42.1041 63.887 50.2041 63.887C51.5041 63.887 51.3941 63.787 51.3941 65.047C51.3941 68.307 51.3941 71.5669 51.4041 74.827C51.4041 75.417 51.2741 75.657 50.6141 75.657C34.2441 75.637 17.8641 75.6369 1.49406 75.6369C0.434063 75.6369 0.434062 75.637 0.434062 74.587C0.434062 71.307 0.454062 68.017 0.414062 64.737C0.414062 64.017 0.644062 63.877 1.30406 63.877C9.50406 63.897 17.7041 63.887 25.9041 63.887Z" fill="#219EBC"/>
<path d="M25.6241 1.60691C33.6941 1.60691 41.7741 1.60691 49.8441 1.60691C50.4974 1.60691 50.8241 1.93358 50.8241 2.58691C50.8241 5.81691 50.8241 9.05691 50.8241 12.2869C50.8241 13.3369 50.8241 13.3369 49.7441 13.3369C33.7241 13.3369 17.7041 13.3369 1.67406 13.3369C0.414062 13.3369 0.424062 13.3269 0.424062 12.0469C0.424062 8.83691 0.444062 5.62691 0.414062 2.41691C0.414062 1.74691 0.584062 1.58691 1.24406 1.58691C9.36406 1.60691 17.4941 1.60691 25.6141 1.59691L25.6241 1.60691Z" fill="#219EBC"/>
</g>
<defs>
<clipPath id="clip0_1139_2723">
<rect width="113.17" height="76.18" fill="white" transform="translate(0.414062 0.546875)"/>
</clipPath>
</defs>
</svg>
