<svg width="114" height="77" viewBox="0 0 114 77" fill="none" xmlns="http://www.w3.org/2000/svg">
<g clip-path="url(#clip0_885_195)">
<path d="M15.4653 32.056C18.9153 32.116 23.1853 31.946 27.4453 32.146C32.8453 32.396 37.9553 33.786 42.8453 36.056C48.6953 38.776 53.8853 42.506 58.8053 46.616C63.0753 50.186 67.2653 53.866 71.5653 57.396C74.5253 59.826 77.6553 62.026 81.2253 63.516C84.7553 64.986 88.4053 65.196 92.1353 64.406C94.5853 63.886 96.7953 62.916 98.5453 61.076C100.975 58.516 101.425 53.886 99.4753 50.956C98.3253 49.236 96.5853 48.226 94.7553 47.376C91.3053 45.776 87.6153 44.936 83.9453 44.056C79.0253 42.886 74.1353 41.596 69.6153 39.246C66.9553 37.866 64.5153 36.166 62.7053 33.706C60.6253 30.886 59.5853 27.706 59.3253 24.226C58.9953 19.786 59.5353 15.526 61.8153 11.606C64.5453 6.92604 68.6053 3.88603 73.6253 2.03604C77.9253 0.456035 82.3853 0.0560351 86.9353 0.306035C89.8253 0.466035 92.6753 0.806035 95.4753 1.52604C99.9453 2.66604 104.095 4.54604 107.915 7.12604C108.885 7.78604 109.835 8.47604 110.795 9.14604C111.125 9.37603 111.235 9.58603 110.955 9.98603C109.895 11.456 108.875 12.966 107.835 14.456C106.765 15.966 105.665 17.446 104.625 18.976C104.345 19.386 104.175 19.356 103.805 19.096C99.7853 16.246 95.5453 13.826 90.7153 12.626C86.8453 11.656 82.9353 11.376 79.0553 12.476C76.1953 13.286 73.8253 14.886 72.7353 17.766C71.3053 21.516 72.2753 25.876 76.6853 28.116C79.9653 29.786 83.4653 30.786 87.0053 31.686C92.3353 33.046 97.6853 34.366 102.655 36.816C106.075 38.496 108.965 40.826 111.025 44.086C112.575 46.526 113.315 49.236 113.525 52.096C113.835 56.336 113.335 60.446 111.335 64.276C108.765 69.186 104.765 72.446 99.6053 74.336C94.5153 76.206 89.2353 76.816 83.8653 76.196C79.0853 75.646 74.7453 73.806 70.6653 71.306C66.7553 68.906 63.2253 66.016 59.7553 63.016C55.1853 59.066 50.8153 54.866 45.9753 51.236C42.3153 48.486 38.4553 46.116 34.0253 44.816C31.8553 44.176 29.6153 43.876 27.3553 43.876C18.8053 43.876 10.2553 43.876 1.69531 43.876C1.41531 43.876 1.14531 43.876 0.865312 43.856C0.565312 43.836 0.445312 43.696 0.445312 43.376C0.445312 39.786 0.445312 36.206 0.445312 32.616C0.445312 32.226 0.615313 32.076 0.985313 32.066C1.41531 32.066 1.83531 32.066 2.26531 32.066C6.40531 32.066 10.5453 32.066 15.4853 32.066L15.4653 32.056Z" fill="#0F1577"/>
<path d="M25.9041 63.5959C34.0041 63.5959 42.1041 63.5959 50.2041 63.5959C51.5041 63.5959 51.3941 63.4959 51.3941 64.7559C51.3941 68.0159 51.3941 71.2759 51.4041 74.5359C51.4041 75.1259 51.2741 75.3659 50.6141 75.3659C34.2441 75.3459 17.8641 75.3459 1.49406 75.3459C0.434063 75.3459 0.434062 75.3459 0.434062 74.2959C0.434062 71.0159 0.454062 67.7259 0.414062 64.4459C0.414062 63.7259 0.644062 63.5859 1.30406 63.5859C9.50406 63.6059 17.7041 63.5959 25.9041 63.5959Z" fill="#006BC5"/>
<path d="M25.6241 1.3159C33.6941 1.3159 41.7741 1.3159 49.8441 1.3159C50.4974 1.3159 50.8241 1.64257 50.8241 2.2959C50.8241 5.5259 50.8241 8.7659 50.8241 11.9959C50.8241 13.0459 50.8241 13.0459 49.7441 13.0459C33.7241 13.0459 17.7041 13.0459 1.67406 13.0459C0.414062 13.0459 0.424062 13.0359 0.424062 11.7559C0.424062 8.5459 0.444062 5.3359 0.414062 2.1259C0.414062 1.4559 0.584062 1.2959 1.24406 1.2959C9.36406 1.3159 17.4941 1.3159 25.6141 1.3059L25.6241 1.3159Z" fill="#006BC5"/>
</g>
<defs>
<clipPath id="clip0_885_195">
<rect width="113.17" height="76.18" fill="white" transform="translate(0.414062 0.255859)"/>
</clipPath>
</defs>
</svg>
