<svg width="41" height="41" viewBox="0 0 41 41" fill="none" xmlns="http://www.w3.org/2000/svg">
<rect x="0.833008" y="0.700684" width="40" height="40" rx="20" fill="white" fill-opacity="0.1"/>
<path d="M27.333 14.7007C28.1455 14.7007 28.833 15.3882 28.833 16.2007V25.2007C28.833 26.0444 28.1455 26.7007 27.333 26.7007H14.333C13.4893 26.7007 12.833 26.0444 12.833 25.2007V16.2007C12.833 15.3882 13.4893 14.7007 14.333 14.7007H27.333ZM27.333 16.2007H14.333V17.4819C15.0205 18.0757 16.1455 18.9507 18.5205 20.8257C19.0518 21.2319 20.083 22.2319 20.833 22.2007C21.5518 22.2319 22.583 21.2319 23.1143 20.8257C25.4893 18.9507 26.6143 18.0757 27.333 17.4819V16.2007ZM14.333 25.2007H27.333V19.4194C26.6143 19.9819 25.583 20.7944 24.0518 22.0132C23.333 22.5444 22.1455 23.7319 20.833 23.7007C19.4893 23.7319 18.2705 22.5444 17.583 22.0132C16.0518 20.7944 15.0205 19.9819 14.333 19.4194V25.2007Z" fill="white"/>
</svg>
