<svg width="41" height="41" viewBox="0 0 41 41" fill="none" xmlns="http://www.w3.org/2000/svg">
<rect x="0.833008" y="0.700684" width="40" height="40" rx="20" fill="white" fill-opacity="0.1"/>
<path d="M28.3643 24.0132C28.6143 24.1382 28.8018 24.4194 28.8018 24.7319C28.8018 24.7632 28.8018 24.8257 28.8018 24.8882L28.0518 28.1382C27.958 28.4819 27.6768 28.7007 27.333 28.7007C19.3018 28.7007 12.833 22.2319 12.833 14.2007C12.833 13.8569 13.0518 13.5757 13.3955 13.4819L16.6455 12.7319C16.708 12.7319 16.7705 12.7007 16.8018 12.7007C17.1143 12.7007 17.3955 12.8882 17.5205 13.1694L19.0205 16.6694C19.0518 16.7632 19.083 16.8569 19.083 16.9507C19.083 17.2007 18.958 17.4194 18.8018 17.5444L16.8955 19.1069C18.0518 21.5444 19.9893 23.4819 22.4268 24.6382L23.9893 22.7319C24.1143 22.5757 24.333 22.4507 24.5518 22.4507C24.6768 22.4507 24.7705 22.4819 24.8643 22.5132L28.3643 24.0132Z" fill="white"/>
</svg>
