<svg width="20" height="13" viewBox="0 0 20 13" fill="none" xmlns="http://www.w3.org/2000/svg">
<path d="M8.16406 6.04858C9.5918 6.44702 10.2891 7.54272 10.2891 9.00366C10.2891 11.3943 8.29688 12.4236 6.13867 12.4236H0.460938V0.669678H6.00586C7.99805 0.669678 9.75781 1.23413 9.75781 3.59155C9.75781 4.75366 9.19336 5.51733 8.16406 6.04858ZM3.01758 2.66187V5.41772H5.64062C6.57031 5.41772 7.23438 5.01929 7.23438 4.02319C7.23438 2.92749 6.4043 2.66187 5.47461 2.66187H3.01758ZM5.80664 10.4314C6.83594 10.4314 7.69922 10.0662 7.69922 8.87085C7.69922 7.67554 7.00195 7.17749 5.83984 7.17749H3.01758V10.4314H5.80664ZM17.6934 2.42944H12.9453V1.26733H17.6934V2.42944ZM19.5859 8.3064C19.5859 8.43921 19.5527 8.60522 19.5527 8.73804H13.4102C13.4102 10.0994 14.1406 10.8962 15.502 10.8962C16.1992 10.8962 17.1289 10.531 17.3613 9.80054H19.4199C18.7891 11.7263 17.4609 12.656 15.4355 12.656C12.7461 12.656 11.0527 10.8298 11.0527 8.17358C11.0527 5.61694 12.8125 3.65796 15.4355 3.65796C18.0918 3.65796 19.5859 5.78296 19.5859 8.3064ZM13.4102 7.2439H17.2285C17.1289 6.11499 16.5312 5.45093 15.3359 5.45093C14.2402 5.45093 13.4766 6.14819 13.4102 7.2439Z" fill="white"/>
</svg>
