<svg width="20" height="14" viewBox="0 0 20 14" fill="none" xmlns="http://www.w3.org/2000/svg">
<path d="M18.6777 2.29663C19.0762 3.69116 19.0762 6.67944 19.0762 6.67944C19.0762 6.67944 19.0762 9.63452 18.6777 11.0623C18.4785 11.8591 17.8477 12.4568 17.084 12.656C15.6562 13.0212 10.0117 13.0212 10.0117 13.0212C10.0117 13.0212 4.33398 13.0212 2.90625 12.656C2.14258 12.4568 1.51172 11.8591 1.3125 11.0623C0.914062 9.63452 0.914062 6.67944 0.914062 6.67944C0.914062 6.67944 0.914062 3.69116 1.3125 2.29663C1.51172 1.49976 2.14258 0.868896 2.90625 0.669678C4.33398 0.27124 10.0117 0.27124 10.0117 0.27124C10.0117 0.27124 15.6562 0.27124 17.084 0.669678C17.8477 0.868896 18.4785 1.49976 18.6777 2.29663ZM8.15234 9.3689L12.8672 6.67944L8.15234 3.98999V9.3689Z" fill="white"/>
</svg>
