<svg width="41" height="41" viewBox="0 0 41 41" fill="none" xmlns="http://www.w3.org/2000/svg">
<rect x="0.833008" y="0.110596" width="40" height="40" rx="20" fill="white" fill-opacity="0.1"/>
<path d="M20.208 27.7981C15.6455 21.2356 14.833 20.5481 14.833 18.1106C14.833 14.7981 17.4893 12.1106 20.833 12.1106C24.1455 12.1106 26.833 14.7981 26.833 18.1106C26.833 20.5481 25.9893 21.2356 21.4268 27.7981C21.1455 28.2356 20.4893 28.2356 20.208 27.7981ZM20.833 20.6106C22.208 20.6106 23.333 19.5168 23.333 18.1106C23.333 16.7356 22.208 15.6106 20.833 15.6106C19.4268 15.6106 18.333 16.7356 18.333 18.1106C18.333 19.5168 19.4268 20.6106 20.833 20.6106Z" fill="white"/>
</svg>
