<svg width="204" height="38" viewBox="0 0 204 38" fill="none" xmlns="http://www.w3.org/2000/svg">
<g clip-path="url(#clip0_969_1961)">
<path d="M8.08022 15.5634C9.74479 15.5937 11.794 15.5089 13.8491 15.6058C16.4512 15.7271 18.909 16.3999 21.2646 17.5031C24.077 18.8245 26.5768 20.6309 28.9505 22.6312C31.0117 24.3648 33.0248 26.153 35.098 27.8684C36.5222 29.0444 38.0305 30.1173 39.7492 30.8386C41.4498 31.5539 43.2045 31.6569 45.0013 31.269C46.1791 31.0144 47.2428 30.5477 48.0901 29.6506C49.2559 28.4079 49.4782 26.1591 48.5408 24.7346C47.9879 23.8981 47.1466 23.4071 46.2693 22.9949C44.6047 22.219 42.832 21.8069 41.0592 21.3825C38.6916 20.8127 36.3359 20.1884 34.1606 19.0488C32.8806 18.376 31.7088 17.5516 30.8314 16.3575C29.8279 14.9876 29.3291 13.4418 29.2029 11.7567C29.0406 9.59879 29.305 7.53179 30.4047 5.62845C31.7148 3.35535 33.6738 1.87632 36.0895 0.98526C38.1627 0.221499 40.3081 0.0214663 42.4955 0.142698C43.8836 0.221499 45.2597 0.385162 46.6058 0.730673C48.7571 1.28228 50.7522 2.19758 52.5971 3.45233C53.0658 3.7736 53.5225 4.10698 53.9852 4.43431C54.1415 4.54342 54.2016 4.64647 54.0573 4.84044C53.5465 5.55571 53.0598 6.28916 52.555 7.01049C52.0442 7.74394 51.5094 8.46527 51.0106 9.20479C50.8724 9.40482 50.7943 9.3927 50.614 9.2654C48.679 7.88336 46.6359 6.70741 44.3103 6.11943C42.4474 5.65269 40.5665 5.51327 38.6916 6.0467C37.3154 6.4407 36.1737 7.21658 35.6449 8.61681C34.9538 10.4414 35.4225 12.5569 37.5438 13.6419C39.1242 14.4541 40.8068 14.9391 42.5135 15.3755C45.0794 16.0362 47.6574 16.6787 50.0491 17.8668C51.6957 18.6851 53.0898 19.8126 54.0814 21.3947C54.8265 22.5827 55.1811 23.8981 55.2832 25.2862C55.4335 27.3472 55.1931 29.3414 54.2316 31.2023C52.9937 33.5906 51.0647 35.1727 48.5829 36.088C46.1311 36.9972 43.5891 37.2942 41.0051 36.9912C38.7036 36.7244 36.6124 35.8334 34.6473 34.6211C32.7664 33.4572 31.0658 32.051 29.3952 30.5962C27.1958 28.6746 25.0925 26.6379 22.7609 24.874C21.0002 23.5405 19.1373 22.3888 17.004 21.7523C15.9584 21.4432 14.8827 21.2977 13.789 21.2977C9.67268 21.2977 5.55631 21.2977 1.43394 21.2977C1.30173 21.2977 1.16953 21.2977 1.03732 21.2856C0.893101 21.2795 0.833008 21.2068 0.833008 21.0492C0.833008 19.3095 0.833008 17.5637 0.833008 15.8241C0.833008 15.6361 0.917138 15.5573 1.09141 15.5573C1.29572 15.5573 1.50004 15.5573 1.70436 15.5573C3.69944 15.5573 5.68852 15.5573 8.07421 15.5573L8.08022 15.5634Z" fill="white"/>
<path d="M13.11 30.8813C17.01 30.8813 20.9101 30.8813 24.8101 30.8813C25.4351 30.8813 25.381 30.8328 25.381 31.445C25.381 33.0271 25.381 34.6092 25.387 36.1973C25.387 36.4822 25.3209 36.6035 25.0084 36.6035C17.1242 36.5913 9.24001 36.5974 1.35582 36.5913C0.845026 36.5913 0.845026 36.5913 0.845026 36.0822C0.845026 34.488 0.857045 32.8938 0.833008 31.2935C0.833008 30.9419 0.941175 30.8752 1.26568 30.8752C5.21378 30.8874 9.16189 30.8813 13.11 30.8813Z" fill="white"/>
<path d="M12.9718 0.633991C16.8598 0.633991 20.7478 0.633991 24.6358 0.633991C24.9523 0.633991 25.1106 0.793613 25.1106 1.11286C25.1106 2.68281 25.1106 4.25277 25.1106 5.82272C25.1106 6.33189 25.1106 6.33189 24.5938 6.33796C16.8778 6.33796 9.16189 6.33796 1.45197 6.33796C0.84503 6.33796 0.84503 6.33796 0.85104 5.70755C0.85104 4.14972 0.863058 2.59189 0.84503 1.03406C0.833012 0.70673 0.923151 0.62793 1.24164 0.62793C5.1537 0.640053 9.06574 0.633991 12.9778 0.633991H12.9718Z" fill="white"/>
<path d="M64.8801 29.9478V7.28955H81.3756V11.5327H69.0866V25.7108H81.3756V29.9539H64.8801V29.9478ZM71.4603 16.4789H78.359V20.7524H71.4603V16.4789Z" fill="white"/>
<path d="M82.854 7.28955H99.3495V11.5327H98.352L88.9174 25.7108H99.3495V29.9539H82.854V25.7108H83.8515L93.3162 11.5327H82.854V7.28955Z" fill="white"/>
<path d="M106.825 8.16242C108.213 7.58051 109.686 7.28955 111.236 7.28955C112.786 7.28955 114.259 7.58051 115.647 8.16242C117.035 8.74433 118.267 9.55659 119.336 10.5931C120.406 11.6478 121.235 12.8723 121.824 14.2483C122.413 15.6303 122.708 17.0851 122.708 18.6187C122.708 20.1523 122.413 21.607 121.824 22.9891C121.235 24.3711 120.406 25.5895 119.336 26.6442C118.267 27.6808 117.035 28.487 115.647 29.0749C114.259 29.6569 112.786 29.9478 111.236 29.9478C109.686 29.9478 108.213 29.6569 106.825 29.0749C105.437 28.493 104.217 27.6808 103.165 26.6442C102.096 25.5895 101.26 24.3651 100.666 22.9891C100.065 21.607 99.7642 20.1523 99.7642 18.6187C99.7642 17.0851 100.065 15.6303 100.666 14.2483C101.266 12.8662 102.096 11.6478 103.165 10.5931C104.211 9.55659 105.431 8.7504 106.825 8.16242ZM118.501 18.6187C118.501 16.679 117.804 15.012 116.416 13.636C114.98 12.2358 113.255 11.5327 111.236 11.5327C109.217 11.5327 107.498 12.2358 106.086 13.636C104.674 15.0181 103.971 16.679 103.971 18.6187C103.971 20.5584 104.674 22.2253 106.086 23.6013C107.498 25.0015 109.217 25.7047 111.236 25.7047C113.255 25.7047 114.986 25.0015 116.416 23.6013C117.804 22.2193 118.501 20.5584 118.501 18.6187Z" fill="white"/>
<path d="M137.244 21.7585C136.24 21.11 135.009 20.7766 133.554 20.7523C131.157 20.7281 129.071 20.1583 127.299 19.0369C126.313 18.4307 125.544 17.6912 124.991 16.8183C124.432 15.9455 124.156 15.0059 124.156 13.9997C124.156 12.9935 124.42 12.06 124.955 11.1992C125.49 10.3385 126.241 9.59292 127.202 8.96857C128.933 7.84718 130.982 7.28345 133.35 7.28345C135.718 7.28345 137.761 7.84718 139.497 8.96857C140.459 9.59292 141.21 10.3385 141.745 11.1992C142.28 12.06 142.55 12.9995 142.55 14.0179H138.344C138.344 13.5208 137.977 13.0238 137.25 12.5267C136.204 11.86 134.9 11.5205 133.35 11.5205C131.8 11.5205 130.508 11.8539 129.486 12.5267C128.735 12.9995 128.362 13.4966 128.362 14.0179C128.362 14.4907 128.747 14.9696 129.516 15.4424C130.586 16.1091 131.878 16.4546 133.398 16.4789C135.754 16.5031 137.785 17.0729 139.497 18.1943C140.459 18.8005 141.21 19.54 141.745 20.4129C142.28 21.2857 142.55 22.2253 142.55 23.2315C142.55 24.2377 142.28 25.1712 141.745 26.032C141.21 26.8927 140.459 27.6383 139.497 28.2626C137.767 29.384 135.718 29.9478 133.35 29.9478C130.982 29.9478 128.939 29.384 127.202 28.2626C126.241 27.6383 125.49 26.8927 124.955 26.032C124.42 25.1712 124.156 24.2317 124.156 23.2133H128.362C128.362 23.7286 128.735 24.2256 129.486 24.7045C130.514 25.3713 131.8 25.7107 133.35 25.7107C134.9 25.7107 136.198 25.3773 137.25 24.7045C137.977 24.2317 138.344 23.7407 138.344 23.2315C138.344 22.7223 137.977 22.2313 137.25 21.7585H137.244Z" fill="white"/>
<path d="M151.078 8.16242C152.466 7.58051 153.938 7.28955 155.488 7.28955C157.039 7.28955 158.511 7.58051 159.899 8.16242C161.287 8.74433 162.519 9.55659 163.589 10.5931C164.659 11.6478 165.488 12.8723 166.077 14.2483C166.666 15.6303 166.96 17.0851 166.96 18.6187C166.96 20.1523 166.666 21.607 166.077 22.9891C165.488 24.3711 164.659 25.5895 163.589 26.6442C162.519 27.6808 161.287 28.487 159.899 29.0749C158.511 29.6569 157.039 29.9478 155.488 29.9478C153.938 29.9478 152.466 29.6569 151.078 29.0749C149.689 28.493 148.469 27.6808 147.418 26.6442C146.348 25.5895 145.513 24.3651 144.918 22.9891C144.317 21.607 144.017 20.1523 144.017 18.6187C144.017 17.0851 144.317 15.6303 144.918 14.2483C145.519 12.8662 146.348 11.6478 147.418 10.5931C148.463 9.55659 149.683 8.7504 151.078 8.16242ZM162.754 18.6187C162.754 16.679 162.057 15.012 160.668 13.636C159.232 12.2358 157.507 11.5327 155.488 11.5327C153.469 11.5327 151.751 12.2358 150.338 13.636C148.926 15.0181 148.223 16.679 148.223 18.6187C148.223 20.5584 148.926 22.2253 150.338 23.6013C151.751 25.0015 153.469 25.7047 155.488 25.7047C157.507 25.7047 159.238 25.0015 160.668 23.6013C162.057 22.2193 162.754 20.5584 162.754 18.6187Z" fill="white"/>
<path d="M169.208 29.9478V7.28955H185.703V11.5327H173.414V16.485H182.686V20.7584H173.414V29.9539H169.208V29.9478Z" fill="white"/>
<path d="M187.338 7.28955H203.833V11.5327H197.704V29.9539H193.497V11.5327H187.338V7.28955Z" fill="white"/>
</g>
<defs>
<clipPath id="clip0_969_1961">
<rect width="203" height="37" fill="white" transform="translate(0.833008 0.118652)"/>
</clipPath>
</defs>
</svg>
