<svg width="18" height="15" viewBox="0 0 18 15" fill="none" xmlns="http://www.w3.org/2000/svg">
<path d="M15.7598 4.19312C15.7598 4.35913 15.7598 4.49194 15.7598 4.65796C15.7598 9.27319 12.2734 14.5525 5.86523 14.5525C3.87305 14.5525 2.04688 13.988 0.519531 12.9919C0.785156 13.0251 1.05078 13.0583 1.34961 13.0583C2.97656 13.0583 4.4707 12.4939 5.66602 11.5642C4.13867 11.531 2.84375 10.5349 2.41211 9.14038C2.64453 9.17358 2.84375 9.20679 3.07617 9.20679C3.375 9.20679 3.70703 9.14038 3.97266 9.07397C2.37891 8.74194 1.18359 7.34741 1.18359 5.65405V5.62085C1.64844 5.88647 2.21289 6.01929 2.77734 6.05249C1.81445 5.42163 1.2168 4.35913 1.2168 3.16382C1.2168 2.49976 1.38281 1.9021 1.68164 1.40405C3.4082 3.49585 5.99805 4.89038 8.88672 5.0564C8.82031 4.79077 8.78711 4.52515 8.78711 4.25952C8.78711 2.33374 10.3477 0.773193 12.2734 0.773193C13.2695 0.773193 14.166 1.17163 14.8301 1.8689C15.5938 1.70288 16.3574 1.40405 17.0215 1.00562C16.7559 1.83569 16.2246 2.49976 15.4941 2.9314C16.1914 2.86499 16.8887 2.66577 17.4863 2.40015C17.0215 3.09741 16.4238 3.69507 15.7598 4.19312Z" fill="white"/>
</svg>
