<svg width="24" height="25" viewBox="0 0 24 25" fill="none" xmlns="http://www.w3.org/2000/svg">
<path d="M22.5015 12.6842C22.5015 11.8209 22.43 11.1909 22.2753 10.5376H12.2158V14.4342H18.1205C18.0015 15.4026 17.3587 16.8609 15.9301 17.8409L15.91 17.9713L19.0907 20.386L19.311 20.4076C21.3348 18.5759 22.5015 15.8809 22.5015 12.6842Z" fill="#4285F4"/>
<path d="M12.215 22.9512C15.1078 22.9512 17.5363 22.0179 19.3102 20.4079L15.9292 17.8411C15.0245 18.4595 13.8102 18.8911 12.215 18.8911C9.38167 18.8911 6.97693 17.0595 6.11971 14.5278L5.99406 14.5383L2.68681 17.0467L2.64355 17.1645C4.40543 20.5945 8.02448 22.9512 12.215 22.9512Z" fill="#34A853"/>
<path d="M6.11997 14.5276C5.89379 13.8743 5.76289 13.1743 5.76289 12.451C5.76289 11.7276 5.89379 11.0276 6.10807 10.3743L6.10208 10.2352L2.75337 7.68652L2.64381 7.7376C1.91765 9.16095 1.50098 10.7593 1.50098 12.451C1.50098 14.1426 1.91765 15.7409 2.64381 17.1643L6.11997 14.5276Z" fill="#FBBC05"/>
<path d="M12.215 6.01114C14.2269 6.01114 15.584 6.86281 16.3579 7.57452L19.3817 4.68117C17.5246 2.98951 15.1078 1.95117 12.215 1.95117C8.02451 1.95117 4.40544 4.30782 2.64355 7.73779L6.10783 10.3745C6.97696 7.84283 9.38171 6.01114 12.215 6.01114Z" fill="#EB4335"/>
</svg>
