<svg width="31" height="31" viewBox="0 0 31 31" fill="none" xmlns="http://www.w3.org/2000/svg">
<path d="M7.3465 24.9746C7.08992 25.106 6.83817 25.2256 6.59369 25.3569C4.26025 26.6259 3.78581 26.4946 2.4206 24.2052C1.7743 23.1239 1.11348 22.0496 0.49139 20.9565C-0.200898 19.7391 -0.026614 18.768 1.24177 18.2168C2.55131 17.6491 2.69413 16.8117 2.73286 15.5685C2.77643 14.1916 2.47628 13.3449 1.11833 12.7467C0.0169577 12.2612 -0.193635 11.3042 0.387307 10.2697C1.23451 8.76147 2.12287 7.27198 3.04511 5.80594C3.62847 4.87707 4.54103 4.65189 5.55526 5.12805C6.16767 5.41657 6.75103 5.76607 7.33681 6.08273C7.75073 5.81533 8.08962 5.50101 8.49386 5.35793C10.0116 4.81374 10.7668 3.93412 10.578 2.23587C10.4666 1.23193 11.3138 0.593909 12.3789 0.563416C14.1532 0.511812 15.9299 0.511811 17.7042 0.56107C18.9314 0.593909 19.6746 1.30933 19.5947 2.52907C19.51 3.80511 19.9336 4.47127 21.139 5.1304C22.4001 5.81767 23.2982 6.05224 24.5472 5.19373C25.5469 4.50645 26.5127 4.87238 27.1856 5.95138C28.0401 7.32124 28.8655 8.70986 29.6692 10.1079C30.3566 11.2995 30.1557 12.2541 28.8873 12.8499C27.7109 13.4012 27.3914 14.0791 27.3865 15.3574C27.3793 16.8141 27.6649 17.7172 29.1076 18.3435C30.1339 18.7891 30.3179 19.779 29.7708 20.7501C28.9236 22.2583 28.0401 23.7502 27.113 25.2139C26.4691 26.2295 25.4743 26.4946 24.4092 25.7932C23.3006 25.0637 22.5066 25.1294 21.323 25.805C20.0618 26.5251 19.4446 27.1983 19.5826 28.6573C19.6891 29.7621 18.8709 30.4564 17.68 30.4892C15.9468 30.5361 14.2089 30.5361 12.4757 30.4892C11.2388 30.454 10.4279 29.7527 10.5562 28.5494C10.716 27.0763 10.1035 26.3304 8.78191 25.8519C8.26874 25.6666 7.83304 25.2795 7.33924 24.9723L7.3465 24.9746ZM15.1117 20.4756C17.9826 20.4616 20.2192 18.2473 20.1877 15.456C20.1563 12.7162 17.9245 10.577 15.0948 10.57C12.2264 10.5629 9.94379 12.7608 9.94863 15.531C9.95105 18.2965 12.2433 20.4921 15.1117 20.4756Z" fill="#6DC2ED"/>
</svg>
