<svg width="165" height="31" viewBox="0 0 165 31" fill="none" xmlns="http://www.w3.org/2000/svg">
<g clip-path="url(#clip0_924_79)">
<path d="M6.76895 13.3173C8.11373 13.3416 9.76922 13.2736 11.4296 13.3513C13.5317 13.4484 15.5173 13.9873 17.4204 14.8709C19.6924 15.9292 21.712 17.376 23.6297 18.978C25.2949 20.3665 26.9212 21.7987 28.5961 23.1726C29.7467 24.1144 30.9653 24.9737 32.3537 25.5514C33.7277 26.1243 35.1453 26.2068 36.5968 25.8961C37.5484 25.6922 38.4077 25.3184 39.0922 24.5999C40.034 23.6047 40.2137 21.8035 39.4563 20.6627C39.0097 19.9927 38.33 19.5995 37.6212 19.2693C36.2764 18.6479 34.8443 18.3178 33.4121 17.9779C31.4993 17.5216 29.5962 17.0216 27.8388 16.1088C26.8047 15.57 25.858 14.9097 25.1492 13.9533C24.3385 12.8561 23.9355 11.6182 23.8336 10.2685C23.7025 8.54022 23.9161 6.88473 24.8045 5.36032C25.8629 3.53977 27.4455 2.3552 29.3972 1.64154C31.0721 1.02984 32.8052 0.869632 34.5724 0.966728C35.6938 1.02984 36.8056 1.16092 37.8931 1.43764C39.6311 1.87943 41.2429 2.6125 42.7333 3.61745C43.112 3.87475 43.4809 4.14177 43.8548 4.40393C43.981 4.49131 44.0295 4.57384 43.913 4.7292C43.5004 5.30206 43.1071 5.88949 42.6993 6.46722C42.2867 7.05465 41.8546 7.63237 41.4516 8.22465C41.34 8.38486 41.2769 8.37515 41.1312 8.2732C39.568 7.16631 37.9173 6.22448 36.0385 5.75356C34.5336 5.37974 33.014 5.26808 31.4993 5.6953C30.3876 6.01086 29.4651 6.63228 29.0379 7.75374C28.4796 9.21503 28.8583 10.9094 30.572 11.7784C31.8488 12.4289 33.2082 12.8173 34.587 13.1668C36.66 13.696 38.7427 14.2106 40.6749 15.1622C42.0051 15.8176 43.1314 16.7206 43.9324 17.9877C44.5344 18.9392 44.8209 19.9927 44.9034 21.1044C45.0248 22.7551 44.8306 24.3523 44.0538 25.8427C43.0537 27.7555 41.4953 29.0226 39.4903 29.7557C37.5095 30.4839 35.456 30.7218 33.3684 30.4791C31.509 30.2654 29.8195 29.5518 28.232 28.5808C26.7125 27.6487 25.3386 26.5224 23.9889 25.3572C22.2121 23.8183 20.5129 22.1871 18.6292 20.7743C17.2068 19.7063 15.7018 18.7838 13.9783 18.2741C13.1336 18.0265 12.2646 17.91 11.381 17.91C8.05547 17.91 4.72994 17.91 1.39954 17.91C1.29274 17.91 1.18593 17.91 1.07913 17.9003C0.962611 17.8954 0.914062 17.8372 0.914062 17.7109C0.914062 16.3176 0.914062 14.9194 0.914062 13.5261C0.914062 13.3756 0.98203 13.3125 1.12282 13.3125C1.28788 13.3125 1.45295 13.3125 1.61801 13.3125C3.2298 13.3125 4.83674 13.3125 6.7641 13.3125L6.76895 13.3173Z" fill="white"/>
<path d="M10.8324 25.5854C13.9832 25.5854 17.134 25.5854 20.2847 25.5854C20.7896 25.5854 20.7459 25.5466 20.7459 26.0369C20.7459 27.304 20.7459 28.5711 20.7508 29.8431C20.7508 30.0713 20.6974 30.1684 20.4449 30.1684C14.0754 30.1586 7.70593 30.1635 1.33643 30.1586C0.923772 30.1586 0.923772 30.1586 0.923772 29.7508C0.923772 28.474 0.933482 27.1972 0.914062 25.9155C0.914062 25.634 1.00145 25.5806 1.26361 25.5806C4.45321 25.5903 7.64282 25.5854 10.8324 25.5854Z" fill="white"/>
<path d="M10.7207 1.35996C13.8617 1.35996 17.0028 1.35996 20.1438 1.35996C20.3995 1.35996 20.5274 1.4878 20.5274 1.74349C20.5274 3.00088 20.5274 4.25827 20.5274 5.51567C20.5274 5.92347 20.5274 5.92347 20.1099 5.92832C13.8763 5.92832 7.64273 5.92832 1.41402 5.92832C0.923689 5.92832 0.923689 5.92832 0.928543 5.42343C0.928543 4.17574 0.938253 2.92806 0.923689 1.68037C0.913979 1.41821 0.986801 1.3551 1.24411 1.3551C4.40458 1.36481 7.56505 1.35996 10.7255 1.35996H10.7207Z" fill="white"/>
<path d="M52.6565 24.8375V6.69031H65.9829V10.0887H56.0549V21.444H65.9829V24.8424H52.6565V24.8375ZM57.9725 14.0502H63.5458V17.4728H57.9725V14.0502Z" fill="white"/>
<path d="M67.1772 6.69055H80.5037V10.0889H79.6978L72.0757 21.4443H80.5037V24.8426H67.1772V21.4443H67.9831L75.6294 10.0889H67.1772V6.69055Z" fill="white"/>
<path d="M86.543 7.38964C87.6645 6.92358 88.8539 6.69055 90.1064 6.69055C91.359 6.69055 92.5484 6.92358 93.6699 7.38964C94.7913 7.8557 95.7865 8.50625 96.6507 9.33642C97.5149 10.1812 98.1848 11.1618 98.6606 12.2639C99.1364 13.3708 99.3742 14.5359 99.3742 15.7642C99.3742 16.9924 99.1364 18.1576 98.6606 19.2645C98.1848 20.3714 97.5149 21.3472 96.6507 22.1919C95.7865 23.0221 94.7913 23.6678 93.6699 24.1387C92.5484 24.6048 91.359 24.8378 90.1064 24.8378C88.8539 24.8378 87.6645 24.6048 86.543 24.1387C85.4216 23.6726 84.436 23.0221 83.5864 22.1919C82.7223 21.3472 82.0475 20.3665 81.5668 19.2645C81.0814 18.1576 80.8386 16.9924 80.8386 15.7642C80.8386 14.5359 81.0814 13.3708 81.5668 12.2639C82.0523 11.157 82.7223 10.1812 83.5864 9.33642C84.4312 8.50625 85.4167 7.86056 86.543 7.38964ZM95.9759 15.7642C95.9759 14.2106 95.4127 12.8756 94.2913 11.7735C93.131 10.6521 91.7376 10.0889 90.1064 10.0889C88.4752 10.0889 87.0867 10.6521 85.9459 11.7735C84.805 12.8804 84.237 14.2106 84.237 15.7642C84.237 17.3177 84.805 18.6528 85.9459 19.7548C87.0867 20.8763 88.4752 21.4394 90.1064 21.4394C91.7376 21.4394 93.1358 20.8763 94.2913 19.7548C95.4127 18.6479 95.9759 17.3177 95.9759 15.7642Z" fill="white"/>
<path d="M111.118 18.2789C110.307 17.7595 109.312 17.4925 108.137 17.473C106.2 17.4536 104.515 16.9973 103.083 16.0991C102.287 15.6136 101.666 15.0214 101.219 14.3223C100.768 13.6232 100.544 12.8707 100.544 12.0648C100.544 11.2589 100.758 10.5113 101.19 9.82187C101.622 9.13249 102.229 8.53535 103.006 8.0353C104.404 7.13717 106.059 6.68567 107.972 6.68567C109.885 6.68567 111.535 7.13717 112.938 8.0353C113.715 8.53535 114.322 9.13249 114.754 9.82187C115.186 10.5113 115.405 11.2637 115.405 12.0794H112.006C112.006 11.6813 111.71 11.2832 111.123 10.8851C110.278 10.351 109.225 10.0792 107.972 10.0792C106.719 10.0792 105.676 10.3462 104.85 10.8851C104.244 11.2637 103.943 11.6618 103.943 12.0794C103.943 12.458 104.253 12.8416 104.875 13.2202C105.739 13.7543 106.783 14.031 108.011 14.0504C109.914 14.0698 111.555 14.5262 112.938 15.4243C113.715 15.9098 114.322 16.5021 114.754 17.2012C115.186 17.9003 115.405 18.6528 115.405 19.4586C115.405 20.2645 115.186 21.0122 114.754 21.7016C114.322 22.3909 113.715 22.9881 112.938 23.4881C111.54 24.3863 109.885 24.8378 107.972 24.8378C106.059 24.8378 104.409 24.3863 103.006 23.4881C102.229 22.9881 101.622 22.3909 101.19 21.7016C100.758 21.0122 100.544 20.2597 100.544 19.4441H103.943C103.943 19.8567 104.244 20.2548 104.85 20.6384C105.681 21.1724 106.719 21.4443 107.972 21.4443C109.225 21.4443 110.273 21.1772 111.123 20.6384C111.71 20.2597 112.006 19.8665 112.006 19.4586C112.006 19.0508 111.71 18.6576 111.123 18.2789H111.118Z" fill="white"/>
<path d="M122.294 7.38964C123.415 6.92358 124.605 6.69055 125.857 6.69055C127.11 6.69055 128.299 6.92358 129.421 7.38964C130.542 7.8557 131.537 8.50625 132.401 9.33642C133.266 10.1812 133.936 11.1618 134.411 12.2639C134.887 13.3708 135.125 14.5359 135.125 15.7642C135.125 16.9924 134.887 18.1576 134.411 19.2645C133.936 20.3714 133.266 21.3472 132.401 22.1919C131.537 23.0221 130.542 23.6678 129.421 24.1387C128.299 24.6048 127.11 24.8378 125.857 24.8378C124.605 24.8378 123.415 24.6048 122.294 24.1387C121.172 23.6726 120.187 23.0221 119.337 22.1919C118.473 21.3472 117.798 20.3665 117.318 19.2645C116.832 18.1576 116.589 16.9924 116.589 15.7642C116.589 14.5359 116.832 13.3708 117.318 12.2639C117.803 11.157 118.473 10.1812 119.337 9.33642C120.182 8.50625 121.167 7.86056 122.294 7.38964ZM131.727 15.7642C131.727 14.2106 131.163 12.8756 130.042 11.7735C128.882 10.6521 127.488 10.0889 125.857 10.0889C124.226 10.0889 122.837 10.6521 121.697 11.7735C120.556 12.8804 119.988 14.2106 119.988 15.7642C119.988 17.3177 120.556 18.6528 121.697 19.7548C122.837 20.8763 124.226 21.4394 125.857 21.4394C127.488 21.4394 128.887 20.8763 130.042 19.7548C131.163 18.6479 131.727 17.3177 131.727 15.7642Z" fill="white"/>
<path d="M136.941 24.8378V6.69055H150.267V10.0889H140.339V14.0553H147.83V17.4779H140.339V24.8426H136.941V24.8378Z" fill="white"/>
<path d="M151.588 6.69055H164.914V10.0889H159.962V24.8426H156.564V10.0889H151.588V6.69055Z" fill="white"/>
</g>
<defs>
<clipPath id="clip0_924_79">
<rect width="164" height="29.6337" fill="white" transform="translate(0.914062 0.947266)"/>
</clipPath>
</defs>
</svg>
