<svg width="17" height="16" viewBox="0 0 17 16" fill="none" xmlns="http://www.w3.org/2000/svg">
<g clip-path="url(#clip0_1174_198)">
<path d="M16.2109 2.89634V13.1521C16.0912 13.4368 15.8779 13.5327 15.5773 13.5315C13.5542 13.5237 11.5312 13.5272 9.50817 13.5272H9.32531C9.32531 14.0355 9.32877 14.5195 9.32415 15.0039C9.32107 15.3587 9.04928 15.5777 8.70512 15.5123C8.40869 15.4559 8.11187 15.3987 7.81544 15.3419C5.51292 14.9033 3.21039 14.4647 0.908253 14.0253C0.632613 13.9729 0.473619 13.7763 0.473234 13.4865C0.472464 9.84496 0.472464 6.20304 0.473234 2.56152C0.473234 2.27173 0.632228 2.07632 0.908638 2.02345C3.51298 1.52651 6.11733 1.02995 8.72128 0.534182C9.0539 0.470742 9.32069 0.694348 9.32454 1.04366C9.32916 1.47599 9.32569 1.90832 9.32569 2.34104C9.32569 2.39665 9.32569 2.45226 9.32569 2.52118H9.52318C11.5358 2.52118 13.5488 2.5251 15.5615 2.51687C15.8652 2.5157 16.0877 2.60381 16.2109 2.89634ZM9.33686 7.35279V10.5256H9.53088C10.8933 10.5256 12.2557 10.5256 13.6185 10.5256C13.6801 10.5256 13.7421 10.5228 13.8025 10.5299C14.0509 10.5589 14.2364 10.7644 14.2426 11.0127C14.2487 11.2551 14.0813 11.4693 13.8434 11.5155C13.7787 11.5281 13.7109 11.5257 13.6443 11.5257C12.2665 11.5261 10.8887 11.5257 9.51086 11.5257H9.33301V12.5169H15.2166V3.53426H9.33455V6.68589C9.53743 5.59253 10.409 4.65111 11.2944 4.59198V7.52275H14.1764C14.1074 8.4904 13.0684 9.43025 11.9762 9.51797C10.844 9.60882 9.59363 8.86986 9.33647 7.35279H9.33686ZM4.40727 9.52306C4.7703 9.52306 5.11717 9.53089 5.46364 9.52149C6.47112 9.49408 7.31113 8.64861 7.3554 7.62613C7.40429 6.48852 6.53926 5.54632 5.41821 5.52517C4.94739 5.51617 4.47619 5.52283 4.00536 5.52322C3.61115 5.52361 3.42482 5.71432 3.42444 6.11767C3.42405 7.19576 3.42444 8.27384 3.42444 9.35193C3.42444 9.89861 3.42521 10.4457 3.42444 10.9924C3.42444 11.1835 3.49142 11.3393 3.65119 11.4435C3.81018 11.5473 3.9788 11.5563 4.14626 11.4646C4.31912 11.3699 4.40612 11.2171 4.40727 11.019C4.40958 10.5295 4.40804 10.04 4.40804 9.52306H4.40727Z" fill="black"/>
<path d="M12.2871 4.59082C13.1691 4.71339 14.0638 5.62348 14.1769 6.51516H12.2871V4.59082Z" fill="yellow="/>
<path d="M4.41797 6.52651C4.76675 6.52651 5.10476 6.51202 5.44161 6.53003C5.97172 6.55862 6.37325 6.99839 6.37286 7.52392C6.37286 8.05063 5.97211 8.48883 5.44123 8.51742C5.10476 8.53543 4.76637 8.52095 4.41797 8.52095V6.5269V6.52651Z" fill="black"/>
</g>
<defs>
<clipPath id="clip0_1174_198">
<rect width="15.7377" height="15" fill="white" transform="translate(0.472656 0.523438)"/>
</clipPath>
</defs>
</svg>
