<svg width="66" height="66" viewBox="0 0 66 66" fill="none" xmlns="http://www.w3.org/2000/svg">
<path d="M0.613281 32.9243C0.613281 14.9751 15.164 0.424316 33.1133 0.424316C51.0625 0.424316 65.6133 14.9751 65.6133 32.9243C65.6133 50.8736 51.0625 65.4243 33.1133 65.4243H0.613281V32.9243Z" fill="url(#paint0_linear_883_326)"/>
<g clip-path="url(#clip0_883_326)">
<path d="M44.3813 42.3508C44.3813 42.3508 44.3444 42.3139 44.2708 42.2403C44.1971 42.1666 44.0696 42.1298 43.8883 42.1298C43.707 42.1298 43.5484 42.1978 43.4124 42.3338C43.2764 42.4697 43.2084 42.6397 43.2084 42.8437V47.8748C43.2084 48.0561 43.1405 48.2148 43.0045 48.3508C42.8685 48.4867 42.6985 48.5547 42.4946 48.5547H17.7807C17.5994 48.5547 17.4407 48.4924 17.3048 48.3677C17.1688 48.2431 17.1008 48.0788 17.1008 47.8748V17.144C17.1008 16.9627 17.1631 16.804 17.2878 16.668C17.4124 16.5321 17.5767 16.4641 17.7807 16.4641H42.5626C42.7439 16.4641 42.9082 16.5264 43.0555 16.651C43.2028 16.7757 43.2764 16.94 43.2764 17.144V24.5207C43.2764 24.702 43.3388 24.8663 43.4634 25.0136C43.5881 25.1609 43.7524 25.2346 43.9563 25.2346C44.1603 25.2346 44.3246 25.1666 44.4492 25.0306C44.5739 24.8947 44.6362 24.7247 44.6362 24.5207V17.144C44.6362 16.6 44.4379 16.1185 44.0413 15.6992C43.6447 15.2799 43.1518 15.0703 42.5626 15.0703H17.7807C17.1915 15.0703 16.6985 15.2686 16.3019 15.6652C15.9053 16.0618 15.707 16.5547 15.707 17.144V47.8748C15.707 48.4187 15.9053 48.9003 16.3019 49.3196C16.6985 49.7389 17.1915 49.9485 17.7807 49.9485H42.5626C43.1291 49.9485 43.6164 49.7502 44.0243 49.3536C44.4322 48.957 44.6362 48.4641 44.6362 47.8748V42.8437C44.6135 42.6624 44.5286 42.4981 44.3813 42.3508ZM36.3416 25.0306C36.3416 23.2856 35.7297 21.8012 34.5059 20.5774C33.2821 19.3536 31.809 18.7417 30.0866 18.7417C28.3416 18.7417 26.8572 19.3536 25.6334 20.5774C24.4096 21.8012 23.7977 23.2856 23.7977 25.0306C23.7977 25.9145 23.9733 26.7474 24.3246 27.5292C24.6759 28.3111 25.1461 28.9966 25.7354 29.5859L25.7694 29.6199L25.8033 29.6539C26.3473 30.1751 26.9875 30.5774 27.724 30.8607C28.4606 31.144 29.2254 31.2856 30.0186 31.2856C30.8118 31.2856 31.5711 31.144 32.2963 30.8607C33.0215 30.5774 33.6674 30.1751 34.2339 29.6539L34.2679 29.6199L34.3019 29.5859C34.9365 28.9966 35.4351 28.3111 35.7977 27.5292C36.1603 26.7474 36.3416 25.9145 36.3416 25.0306ZM30.1546 20.1015C31.4917 20.1015 32.6419 20.583 33.605 21.5462C34.5682 22.5094 35.0498 23.6709 35.0498 25.0306C35.0498 25.5745 34.9648 26.0901 34.7949 26.5774C34.6249 27.0646 34.3813 27.5122 34.064 27.9202C33.8373 27.5349 33.5541 27.2063 33.2141 26.9343C32.8742 26.6624 32.5002 26.4357 32.0923 26.2544C32.2509 26.0505 32.3699 25.8182 32.4492 25.5576C32.5286 25.2969 32.5682 25.0193 32.5682 24.7247V24.3168C32.5682 23.6369 32.3303 23.0646 31.8543 22.6C31.3784 22.1355 30.8118 21.9032 30.1546 21.9032C29.4974 21.9032 28.9308 22.1411 28.4549 22.617C27.979 23.093 27.741 23.6595 27.741 24.3168V24.7247C27.741 25.0193 27.7864 25.2969 27.877 25.5576C27.9677 25.8182 28.081 26.0505 28.2169 26.2544C27.7864 26.4357 27.4011 26.6737 27.0611 26.9683C26.7212 27.2629 26.4379 27.5802 26.2113 27.9202C25.894 27.5122 25.6504 27.0646 25.4804 26.5774C25.3104 26.0901 25.2254 25.5745 25.2254 25.0306C25.2254 23.6709 25.707 22.5094 26.6702 21.5462C27.6334 20.583 28.7949 20.1015 30.1546 20.1015ZM29.0328 24.7247V24.3168C29.0328 24.0221 29.1405 23.7672 29.3558 23.5519C29.5711 23.3366 29.8373 23.2289 30.1546 23.2289C30.4492 23.2289 30.7042 23.3366 30.9195 23.5519C31.1348 23.7672 31.2424 24.0221 31.2424 24.3168V24.7247C31.2424 25.042 31.1348 25.3083 30.9195 25.5236C30.7042 25.7389 30.4492 25.8465 30.1546 25.8465C29.8373 25.8465 29.5711 25.7389 29.3558 25.5236C29.1405 25.3083 29.0328 25.042 29.0328 24.7247ZM27.1631 28.872C27.4804 28.3508 27.8997 27.9372 28.4209 27.6312C28.9422 27.3253 29.5201 27.1723 30.1546 27.1723C30.7665 27.1723 31.3331 27.3253 31.8543 27.6312C32.3756 27.9372 32.7949 28.3508 33.1121 28.872C32.7042 29.1893 32.2453 29.4329 31.7354 29.6029C31.2254 29.7728 30.6985 29.8578 30.1546 29.8578C29.5881 29.8578 29.0555 29.7728 28.5569 29.6029C28.0583 29.4329 27.5937 29.1893 27.1631 28.872ZM33.792 44.8493H30.1546C29.9733 44.8493 29.809 44.9117 29.6617 45.0363C29.5144 45.161 29.4407 45.3253 29.4407 45.5292C29.4407 45.7332 29.5031 45.8975 29.6277 46.0221C29.7524 46.1468 29.928 46.2091 30.1546 46.2091H33.792C33.9733 46.2091 34.1376 46.1468 34.2849 46.0221C34.4322 45.8975 34.5059 45.7332 34.5059 45.5292C34.5059 45.3253 34.4322 45.161 34.2849 45.0363C34.1376 44.9117 33.9733 44.8493 33.792 44.8493ZM33.792 41.042H24.1376C23.9563 41.042 23.7977 41.1043 23.6617 41.2289C23.5257 41.3536 23.4577 41.5179 23.4577 41.7219C23.4577 41.9032 23.5201 42.0675 23.6447 42.2148C23.7694 42.3621 23.9337 42.4357 24.1376 42.4357H33.792C33.9733 42.4357 34.1376 42.3677 34.2849 42.2318C34.4322 42.0958 34.5059 41.9258 34.5059 41.7219C34.5059 41.5632 34.4322 41.4102 34.2849 41.2629C34.1376 41.1156 33.9733 41.042 33.792 41.042ZM33.792 37.2346H24.1376C23.9563 37.2346 23.7977 37.2969 23.6617 37.4216C23.5257 37.5462 23.4577 37.7219 23.4577 37.9485C23.4577 38.1525 23.5201 38.3168 23.6447 38.4414C23.7694 38.566 23.9337 38.6284 24.1376 38.6284H33.792C33.9733 38.6284 34.1376 38.566 34.2849 38.4414C34.4322 38.3168 34.5059 38.1525 34.5059 37.9485C34.5059 37.7219 34.4322 37.5462 34.2849 37.4216C34.1376 37.2969 33.9733 37.2346 33.792 37.2346ZM21.724 33.6652C21.656 33.5745 21.5824 33.5122 21.5031 33.4782C21.4237 33.4442 21.3388 33.4272 21.2481 33.4272C21.1348 33.4272 21.0385 33.4442 20.9592 33.4782C20.8798 33.5122 20.8062 33.5745 20.7382 33.6652C20.6702 33.7332 20.6192 33.8012 20.5852 33.8692C20.5512 33.9372 20.5342 34.0278 20.5342 34.1411C20.5342 34.2318 20.5512 34.3168 20.5852 34.3961C20.6192 34.4754 20.6702 34.5491 20.7382 34.617C20.8062 34.685 20.8798 34.736 20.9592 34.77C21.0385 34.804 21.1348 34.821 21.2481 34.821C21.3388 34.821 21.4237 34.804 21.5031 34.77C21.5824 34.736 21.656 34.685 21.724 34.617C21.792 34.5491 21.843 34.4697 21.877 34.3791C21.911 34.2884 21.928 34.2091 21.928 34.1411C21.928 34.0278 21.911 33.9372 21.877 33.8692C21.843 33.8012 21.792 33.7332 21.724 33.6652ZM21.877 37.6595C21.877 37.6595 21.8685 37.6397 21.8515 37.6C21.8345 37.5604 21.792 37.5066 21.724 37.4386C21.656 37.3706 21.5824 37.3196 21.5031 37.2856C21.4237 37.2516 21.3388 37.2346 21.2481 37.2346C21.1348 37.2346 21.0385 37.2516 20.9592 37.2856C20.8798 37.3196 20.8062 37.3706 20.7382 37.4386C20.6702 37.5066 20.6192 37.5802 20.5852 37.6595C20.5512 37.7389 20.5342 37.8352 20.5342 37.9485C20.5342 38.0391 20.5512 38.1241 20.5852 38.2034C20.6192 38.2828 20.6702 38.3564 20.7382 38.4244C20.8062 38.4924 20.8798 38.5434 20.9592 38.5774C21.0385 38.6114 21.1348 38.6284 21.2481 38.6284C21.3388 38.6284 21.4237 38.6114 21.5031 38.5774C21.5824 38.5434 21.656 38.4924 21.724 38.4244C21.792 38.3564 21.843 38.2828 21.877 38.2034C21.911 38.1241 21.928 38.0391 21.928 37.9485C21.928 37.8352 21.911 37.7389 21.877 37.6595ZM21.2481 41.042C21.1348 41.042 21.0385 41.059 20.9592 41.093C20.8798 41.127 20.8062 41.1779 20.7382 41.2459C20.6702 41.3139 20.6192 41.3932 20.5852 41.4839C20.5512 41.5745 20.5342 41.6539 20.5342 41.7219C20.5342 41.8352 20.5512 41.9258 20.5852 41.9938C20.6192 42.0618 20.6702 42.1298 20.7382 42.1978C20.8062 42.2884 20.8798 42.3508 20.9592 42.3847C21.0385 42.4187 21.1348 42.4357 21.2481 42.4357C21.3388 42.4357 21.4237 42.4187 21.5031 42.3847C21.5824 42.3508 21.656 42.2884 21.724 42.1978C21.792 42.1298 21.843 42.0618 21.877 41.9938C21.911 41.9258 21.928 41.8352 21.928 41.7219C21.928 41.6312 21.911 41.5462 21.877 41.4669C21.843 41.3876 21.792 41.3139 21.724 41.2459C21.656 41.1779 21.5824 41.127 21.5031 41.093C21.4237 41.059 21.3388 41.042 21.2481 41.042ZM33.792 33.4272H24.1376C23.9563 33.4272 23.7977 33.4952 23.6617 33.6312C23.5257 33.7672 23.4577 33.9372 23.4577 34.1411C23.4577 34.2998 23.5201 34.4527 23.6447 34.6C23.7694 34.7474 23.9337 34.821 24.1376 34.821H33.792C33.9733 34.821 34.1376 34.7587 34.2849 34.634C34.4322 34.5094 34.5059 34.3451 34.5059 34.1411C34.5059 33.9372 34.4322 33.7672 34.2849 33.6312C34.1376 33.4952 33.9733 33.4272 33.792 33.4272ZM49.1235 23.9088C48.7835 23.7049 48.4322 23.5802 48.0696 23.5349C47.707 23.4896 47.3444 23.5236 46.9818 23.6369C46.6192 23.7502 46.2849 23.9202 45.979 24.1468C45.673 24.3734 45.4407 24.6454 45.2821 24.9627L36.6475 39.7842C36.6022 39.8295 36.5796 39.8635 36.5796 39.8862V40.0561L35.9337 45.4612C35.9337 45.5972 35.9563 45.7275 36.0016 45.8522C36.047 45.9768 36.1376 46.0731 36.2736 46.1411C36.3643 46.1864 36.4322 46.2091 36.4776 46.2091H36.6475L36.8515 46.1751L37.0555 46.0731L41.4067 42.8437C41.4294 42.7983 41.4577 42.7587 41.4917 42.7247C41.5257 42.6907 41.5654 42.6624 41.6107 42.6397L50.1773 27.7842C50.5626 27.127 50.6475 26.4187 50.4322 25.6595C50.2169 24.9003 49.7807 24.3168 49.1235 23.9088ZM37.8033 41.2459L39.809 42.3677L37.4634 44.0675L37.8033 41.2459ZM40.7949 41.3819L38.1433 39.9202L44.9762 28.0561L47.6277 29.5859L40.7949 41.3819ZM48.9875 27.1723L48.3076 28.3281L45.69 26.7983L46.3699 25.6425C46.4832 25.4612 46.6192 25.3083 46.7779 25.1836C46.9365 25.059 47.1065 24.9853 47.2878 24.9627C47.4917 24.9173 47.6787 24.9003 47.8487 24.9117C48.0186 24.923 48.1943 24.9853 48.3756 25.0986C48.5569 25.1893 48.7099 25.3139 48.8345 25.4726C48.9592 25.6312 49.0328 25.8012 49.0555 25.9825C49.1235 26.1864 49.1575 26.3904 49.1575 26.5944C49.1575 26.7983 49.1008 26.991 48.9875 27.1723Z" fill="white"/>
</g>
<defs>
<linearGradient id="paint0_linear_883_326" x1="83.8702" y1="85.2278" x2="-13.0618" y2="64.5598" gradientUnits="userSpaceOnUse">
<stop stop-color="#36474E"/>
<stop offset="1" stop-color="#006BC5"/>
</linearGradient>
<clipPath id="clip0_883_326">
<rect width="35" height="36" fill="white" transform="matrix(1 0 0 -1 15.6133 50.4243)"/>
</clipPath>
</defs>
</svg>
