<svg width="15" height="16" viewBox="0 0 15 16" fill="none" xmlns="http://www.w3.org/2000/svg">
<path fill-rule="evenodd" clip-rule="evenodd" d="M12.7505 6.62328C12.7505 9.69441 10.2608 12.1841 7.18969 12.1841C4.11855 12.1841 1.62891 9.69441 1.62891 6.62328C1.62891 3.55215 4.11855 1.0625 7.18969 1.0625C10.2608 1.0625 12.7505 3.55215 12.7505 6.62328ZM10.7086 12.1615C9.69175 12.809 8.48452 13.1841 7.18969 13.1841C3.56627 13.1841 0.628906 10.2467 0.628906 6.62328C0.628906 2.99986 3.56627 0.0625 7.18969 0.0625C10.8131 0.0625 13.7505 2.99986 13.7505 6.62328C13.7505 8.58896 12.886 10.3527 11.5165 11.5552L14.7601 14.7987L14.053 15.5058L10.7086 12.1615Z" fill="black"/>
</svg>
