<svg width="66" height="66" viewBox="0 0 66 66" fill="none" xmlns="http://www.w3.org/2000/svg">
<path d="M0.0664062 32.9243C0.0664062 14.9751 14.6172 0.424316 32.5664 0.424316C50.5157 0.424316 65.0664 14.9751 65.0664 32.9243C65.0664 50.8736 50.5157 65.4243 32.5664 65.4243H0.0664062V32.9243Z" fill="url(#paint0_linear_883_315)"/>
<g clip-path="url(#clip0_883_315)">
<path d="M48.1687 29.0418H44.9052C44.6559 29.0418 44.4293 28.9738 44.2253 28.8378C44.0213 28.7019 43.874 28.5092 43.7834 28.2599C43.6701 28.0333 43.6361 27.7954 43.6814 27.5461C43.7267 27.2968 43.84 27.0815 44.0213 26.9002L46.333 24.6225C46.5143 24.4412 46.6502 24.2429 46.7409 24.0276C46.8315 23.8123 46.8769 23.5801 46.8769 23.3308C46.8769 23.1041 46.8315 22.8775 46.7409 22.6509C46.6502 22.4242 46.5143 22.2316 46.333 22.073L43.4094 19.1495C43.0695 18.8095 42.6446 18.6395 42.1347 18.6395C41.6247 18.6395 41.1998 18.8095 40.8599 19.1495L38.5823 21.4271C38.3783 21.6084 38.1573 21.7274 37.9194 21.784C37.6814 21.8407 37.4378 21.8123 37.1885 21.699C36.9619 21.6084 36.7806 21.4611 36.6446 21.2571C36.5086 21.0531 36.4406 20.8152 36.4406 20.5432V17.3138C36.4406 16.8152 36.265 16.3903 35.9137 16.039C35.5624 15.6877 35.1375 15.5121 34.6389 15.5121H30.4916C29.993 15.5121 29.5681 15.6877 29.2168 16.039C28.8655 16.3903 28.6899 16.8152 28.6899 17.3138V20.5432C28.6899 20.8152 28.6219 21.0531 28.4859 21.2571C28.35 21.4611 28.1687 21.6084 27.942 21.699C27.6927 21.8123 27.4491 21.8407 27.2111 21.784C26.9732 21.7274 26.7522 21.6084 26.5483 21.4271L24.2706 19.1495C23.9307 18.8095 23.5058 18.6395 22.9959 18.6395C22.4859 18.6395 22.061 18.8095 21.7211 19.1495L18.7976 22.073C18.6162 22.2316 18.4803 22.4242 18.3896 22.6509C18.299 22.8775 18.2536 23.1041 18.2536 23.3308C18.2536 23.5801 18.299 23.8123 18.3896 24.0276C18.4803 24.2429 18.6162 24.4412 18.7976 24.6225L21.1092 26.9002C21.2905 27.0815 21.4038 27.2968 21.4491 27.5461C21.4944 27.7954 21.4604 28.0333 21.3471 28.2599C21.2565 28.5092 21.1092 28.7019 20.9052 28.8378C20.7012 28.9738 20.4746 29.0418 20.2253 29.0418H16.9619C16.4633 29.0418 16.0383 29.2174 15.6871 29.5687C15.3358 29.92 15.1602 30.3449 15.1602 30.8435V34.9908C15.1602 35.4894 15.3358 35.9143 15.6871 36.2656C16.0383 36.6169 16.4633 36.7925 16.9619 36.7925H20.2253C20.4746 36.7925 20.7012 36.8605 20.9052 36.9965C21.1092 37.1325 21.2565 37.3138 21.3471 37.5404C21.4604 37.7897 21.4944 38.0333 21.4491 38.2713C21.4038 38.5092 21.2905 38.7189 21.1092 38.9002L18.7976 41.2118C18.6162 41.3931 18.4803 41.5914 18.3896 41.8067C18.299 42.022 18.2536 42.2429 18.2536 42.4696C18.2536 42.7189 18.299 42.9512 18.3896 43.1665C18.4803 43.3818 18.6162 43.5801 18.7976 43.7614L21.7211 46.6849C22.061 47.0248 22.4859 47.1948 22.9959 47.1948C23.5058 47.1948 23.9307 47.0248 24.2706 46.6849L26.5483 44.3733C26.7522 44.192 26.9732 44.0786 27.2111 44.0333C27.4491 43.988 27.6927 44.0107 27.942 44.1013C28.1687 44.2146 28.35 44.3733 28.4859 44.5772C28.6219 44.7812 28.6899 45.0078 28.6899 45.2571V48.5206C28.6899 49.0191 28.8655 49.4441 29.2168 49.7954C29.5681 50.1466 29.993 50.3223 30.4916 50.3223H34.6389C35.1375 50.3223 35.5624 50.1466 35.9137 49.7954C36.265 49.4441 36.4406 49.0191 36.4406 48.5206V45.2571C36.4406 45.0078 36.5086 44.7812 36.6446 44.5772C36.7806 44.3733 36.9619 44.2146 37.1885 44.1013C37.4378 44.0107 37.6814 43.988 37.9194 44.0333C38.1573 44.0786 38.3783 44.192 38.5823 44.3733L40.8599 46.6849C41.1998 47.0248 41.6247 47.1948 42.1347 47.1948C42.6446 47.1948 43.0695 47.0248 43.4094 46.6849L46.333 43.7614C46.5143 43.5801 46.6502 43.3818 46.7409 43.1665C46.8315 42.9512 46.8769 42.7189 46.8769 42.4696C46.8769 42.2429 46.8315 42.022 46.7409 41.8067C46.6502 41.5914 46.5143 41.3931 46.333 41.2118L44.0213 38.9002C43.84 38.7189 43.7267 38.5092 43.6814 38.2713C43.6361 38.0333 43.6587 37.7897 43.7494 37.5404C43.8627 37.3138 44.0213 37.1325 44.2253 36.9965C44.4293 36.8605 44.6559 36.7925 44.9052 36.7925H48.1687C48.6672 36.7925 49.0922 36.6169 49.4434 36.2656C49.7947 35.9143 49.9704 35.4894 49.9704 34.9908V30.8435C49.9704 30.3449 49.7947 29.92 49.4434 29.5687C49.0922 29.2174 48.6672 29.0418 48.1687 29.0418ZM48.6786 34.9908C48.6786 35.1268 48.6276 35.2458 48.5256 35.3478C48.4236 35.4497 48.3046 35.5007 48.1687 35.5007H44.9052C44.384 35.5007 43.9137 35.6367 43.4944 35.9087C43.0752 36.1806 42.7636 36.5659 42.5596 37.0645C42.3783 37.5404 42.333 38.0276 42.4236 38.5262C42.5143 39.0248 42.7522 39.4554 43.1375 39.818L45.4151 42.1296C45.5284 42.2203 45.5851 42.3393 45.5851 42.4866C45.5851 42.6339 45.5284 42.7529 45.4151 42.8435L42.4916 45.767C42.401 45.8803 42.282 45.937 42.1347 45.937C41.9874 45.937 41.8684 45.8803 41.7777 45.767L39.4661 43.4554C39.1035 43.0928 38.6729 42.8605 38.1743 42.7585C37.6757 42.6565 37.1885 42.7075 36.7126 42.9115C36.2366 43.1155 35.857 43.4271 35.5738 43.8463C35.2905 44.2656 35.1488 44.7359 35.1488 45.2571V48.5206C35.1488 48.6565 35.0978 48.7755 34.9959 48.8775C34.8939 48.9795 34.7749 49.0305 34.6389 49.0305H30.4916C30.3556 49.0305 30.2366 48.9795 30.1347 48.8775C30.0327 48.7755 29.9817 48.6565 29.9817 48.5206V45.2571C29.9817 44.7359 29.84 44.2656 29.5568 43.8463C29.2735 43.4271 28.8939 43.1155 28.4179 42.9115C28.2593 42.8435 28.095 42.7925 27.925 42.7585C27.7551 42.7245 27.5908 42.7075 27.4321 42.7075C27.1148 42.7075 26.7976 42.7755 26.4803 42.9115C26.163 43.0475 25.891 43.2288 25.6644 43.4554L23.3528 45.767C23.2621 45.8803 23.1432 45.9313 22.9959 45.92C22.8485 45.9087 22.7296 45.8577 22.6389 45.767L19.7154 42.8435C19.6021 42.7302 19.5454 42.6056 19.5454 42.4696C19.5454 42.3336 19.6021 42.2203 19.7154 42.1296L21.993 39.818C22.3783 39.4554 22.6162 39.0248 22.7069 38.5262C22.7976 38.0276 22.7522 37.5404 22.5709 37.0645C22.367 36.5659 22.0553 36.1806 21.6361 35.9087C21.2168 35.6367 20.7466 35.5007 20.2253 35.5007H16.9619C16.8259 35.5007 16.7069 35.4497 16.6049 35.3478C16.5029 35.2458 16.4519 35.1268 16.4519 34.9908V30.8435C16.4519 30.7075 16.5029 30.5886 16.6049 30.4866C16.7069 30.3846 16.8259 30.3336 16.9619 30.3336H20.2253C20.7466 30.3336 21.2168 30.192 21.6361 29.9087C22.0553 29.6254 22.367 29.2458 22.5709 28.7699C22.7522 28.2713 22.7976 27.7784 22.7069 27.2911C22.6162 26.8039 22.3783 26.3676 21.993 25.9823L19.7154 23.7047C19.6021 23.5914 19.5454 23.4667 19.5454 23.3308C19.5454 23.1948 19.6021 23.0815 19.7154 22.9908L22.6389 20.0333C22.7296 19.9427 22.8485 19.8973 22.9959 19.8973C23.1432 19.8973 23.2621 19.9427 23.3528 20.0333L25.6644 22.3449C26.027 22.7075 26.4576 22.9398 26.9562 23.0418C27.4548 23.1438 27.942 23.0928 28.4179 22.8888C28.8939 22.7075 29.2735 22.4016 29.5568 21.971C29.84 21.5404 29.9817 21.0645 29.9817 20.5432V17.3138C29.9817 17.1551 30.0327 17.0305 30.1347 16.9398C30.2366 16.8492 30.3556 16.8039 30.4916 16.8039H34.6389C34.7749 16.8039 34.8939 16.8492 34.9959 16.9398C35.0978 17.0305 35.1488 17.1551 35.1488 17.3138V20.5432C35.1488 21.0645 35.2905 21.5404 35.5738 21.971C35.857 22.4016 36.2366 22.7075 36.7126 22.8888C37.1885 23.0928 37.6757 23.1438 38.1743 23.0418C38.6729 22.9398 39.1035 22.7075 39.4661 22.3449L41.7777 20.0333C41.8684 19.9427 41.9874 19.8973 42.1347 19.8973C42.282 19.8973 42.401 19.9427 42.4916 20.0333L45.4151 22.9908C45.5284 23.0815 45.5851 23.1948 45.5851 23.3308C45.5851 23.4667 45.5284 23.5914 45.4151 23.7047L43.1375 25.9823C42.7522 26.3676 42.5143 26.8095 42.4236 27.3081C42.333 27.8067 42.3783 28.2939 42.5596 28.7699C42.7636 29.2458 43.0752 29.6254 43.4944 29.9087C43.9137 30.192 44.384 30.3336 44.9052 30.3336H48.1687C48.3046 30.3336 48.4236 30.3846 48.5256 30.4866C48.6276 30.5886 48.6786 30.7075 48.6786 30.8435V34.9908ZM36.6786 28.8039C36.6786 28.8039 36.3953 28.5206 35.8287 27.954C35.2621 27.3874 34.1743 27.1041 32.5653 27.1041C30.9562 27.1041 29.5851 27.6707 28.4519 28.8039C27.3188 29.937 26.7522 31.3081 26.7522 32.9172C26.7522 34.5036 27.3188 35.8633 28.4519 36.9965C29.5851 38.1296 30.9562 38.6962 32.5653 38.6962C34.1743 38.6962 35.5454 38.1296 36.6786 36.9965C37.8117 35.8633 38.3783 34.5036 38.3783 32.9172C38.3783 31.3081 37.8117 29.937 36.6786 28.8039ZM35.7607 36.1126C35.7607 36.1126 35.5398 36.3336 35.0978 36.7755C34.6559 37.2174 33.8117 37.4384 32.5653 37.4384C31.3188 37.4384 30.2536 36.9965 29.3698 36.1126C28.4859 35.2288 28.044 34.1636 28.044 32.9172C28.044 31.6707 28.4859 30.6056 29.3698 29.7217C30.2536 28.8378 31.3188 28.3959 32.5653 28.3959C33.8117 28.3959 34.8769 28.8378 35.7607 29.7217C36.6446 30.6056 37.0865 31.6707 37.0865 32.9172C37.0865 34.1636 36.6446 35.2288 35.7607 36.1126Z" fill="white"/>
</g>
<defs>
<linearGradient id="paint0_linear_883_315" x1="83.3233" y1="85.2278" x2="-13.6087" y2="64.5598" gradientUnits="userSpaceOnUse">
<stop stop-color="#36474E"/>
<stop offset="1" stop-color="#006BC5"/>
</linearGradient>
<clipPath id="clip0_883_315">
<rect width="35" height="36" fill="white" transform="matrix(1 0 0 -1 15.0664 50.4243)"/>
</clipPath>
</defs>
</svg>
