<svg width="15" height="16" viewBox="0 0 15 16" fill="none" xmlns="http://www.w3.org/2000/svg">
<g clip-path="url(#clip0_1174_217)">
<path d="M5.75833 0.592042H8.92219C9.24434 0.710187 9.42046 0.928865 9.45935 1.2811C9.51439 1.7801 9.60171 2.27542 9.67069 2.77332C9.68243 2.85844 9.71472 2.90724 9.79324 2.9498C10.0541 3.0918 10.3109 3.24186 10.5641 3.39707C10.6386 3.44293 10.6962 3.44953 10.778 3.41615C11.2601 3.21765 11.7445 3.02429 12.2295 2.83203C12.6258 2.67499 12.9333 2.78139 13.1486 3.1527C13.6065 3.94156 14.063 4.73115 14.5179 5.52147C14.7366 5.90123 14.6691 6.22998 14.3227 6.50076C13.9191 6.81666 13.5166 7.13367 13.1097 7.44555C13.0393 7.49948 13.018 7.55415 13.0198 7.64148C13.0268 7.93867 13.0279 8.23624 13.0198 8.53344C13.0173 8.62663 13.0404 8.68387 13.1152 8.74111C13.5258 9.05591 13.9327 9.37549 14.3392 9.69544C14.664 9.95081 14.7329 10.2851 14.5286 10.641C14.0696 11.4405 13.6087 12.2385 13.145 13.0354C12.9296 13.4056 12.6221 13.5073 12.2233 13.3484C11.7434 13.1572 11.2631 12.9664 10.7854 12.7705C10.701 12.736 10.6393 12.7368 10.5582 12.787C10.3058 12.9441 10.0479 13.0919 9.7881 13.2357C9.71655 13.2754 9.68353 13.3187 9.67252 13.4005C9.60244 13.9127 9.52319 14.4238 9.45275 14.936C9.39367 15.3653 9.14821 15.5902 8.71893 15.5909C7.80092 15.592 6.88328 15.592 5.96527 15.5909C5.53635 15.5906 5.28832 15.3635 5.23035 14.9367C5.16064 14.4245 5.08212 13.9134 5.0113 13.4012C5.0003 13.3212 4.96801 13.2761 4.89573 13.2361C4.63119 13.0905 4.37435 12.9308 4.10944 12.7863C4.05624 12.7573 3.97002 12.7485 3.91424 12.7698C3.42772 12.9576 2.94524 13.1558 2.46092 13.3484C2.06025 13.5076 1.75461 13.4056 1.53961 13.0358C1.07877 12.2429 0.619763 11.4493 0.162961 10.6542C-0.0509476 10.2821 0.0172976 9.95081 0.355221 9.68626C0.758822 9.37036 1.16132 9.05335 1.56822 8.74147C1.64271 8.68423 1.66582 8.627 1.66325 8.53344C1.65482 8.23624 1.65592 7.93867 1.66325 7.64148C1.66546 7.55379 1.64344 7.49948 1.57336 7.44555C1.17086 7.13624 0.772398 6.8218 0.372099 6.50956C0.00959247 6.22631 -0.0564513 5.90489 0.1714 5.50973C0.621965 4.72785 1.074 3.94706 1.5264 3.16628C1.74838 2.78359 2.05988 2.67572 2.46825 2.83826C2.94817 3.02979 3.42846 3.21985 3.90654 3.41578C3.98763 3.44917 4.04523 3.4444 4.12045 3.39817C4.37362 3.2426 4.63008 3.09216 4.89096 2.95017C4.96948 2.90724 5.00213 2.85771 5.01351 2.77332C5.07405 2.32863 5.13495 1.88393 5.2054 1.44107C5.23328 1.26459 5.26814 1.08517 5.33382 0.920427C5.40647 0.738072 5.59102 0.667259 5.75943 0.591309L5.75833 0.592042ZM9.8369 8.09865C9.84314 6.722 8.7336 5.60476 7.35145 5.59522C5.97664 5.58605 4.85684 6.69485 4.84473 8.07773C4.83262 9.45731 5.95243 10.5852 7.33788 10.5885C8.71526 10.5918 9.83066 9.48043 9.8369 8.09865Z" fill="black"/>
</g>
<defs>
<clipPath id="clip0_1174_217">
<rect width="14.6059" height="15" fill="white" transform="translate(0.0390625 0.592285)"/>
</clipPath>
</defs>
</svg>
