<svg width="144" height="28" viewBox="0 0 144 28" fill="none" xmlns="http://www.w3.org/2000/svg">
<g clip-path="url(#clip0_1174_174)">
<path d="M5.60518 11.5173C6.77776 11.5392 8.22126 11.4778 9.669 11.548C11.502 11.6357 13.2333 12.1225 14.8927 12.9207C16.8738 13.8768 18.6348 15.1837 20.3069 16.6309C21.7589 17.8852 23.177 19.179 24.6374 20.4202C25.6407 21.271 26.7032 22.0472 27.9139 22.5691C29.1119 23.0866 30.3479 23.1612 31.6136 22.8805C32.4433 22.6963 33.1926 22.3586 33.7895 21.7095C34.6107 20.8105 34.7673 19.1834 34.107 18.1528C33.7175 17.5476 33.1249 17.1923 32.5068 16.8941C31.3343 16.3327 30.0855 16.0345 28.8367 15.7275C27.1688 15.3153 25.5094 14.8635 23.977 14.039C23.0754 13.5522 22.2499 12.9558 21.6319 12.0918C20.9249 11.1006 20.5736 9.9823 20.4847 8.76309C20.3704 7.2018 20.5567 5.70629 21.3313 4.3292C22.2542 2.68458 23.6342 1.61448 25.3359 0.969788C26.7963 0.417196 28.3076 0.272469 29.8484 0.360182C30.8263 0.417196 31.7957 0.535608 32.7439 0.785591C34.2594 1.18468 35.6648 1.84692 36.9643 2.75475C37.2945 2.98719 37.6163 3.2284 37.9422 3.46522C38.0523 3.54417 38.0946 3.61872 37.993 3.75906C37.6332 4.27657 37.2903 4.80723 36.9347 5.32913C36.5749 5.85979 36.1981 6.38168 35.8468 6.91673C35.7494 7.06146 35.6944 7.05269 35.5674 6.96059C34.2043 5.96066 32.7651 5.10984 31.1268 4.68443C29.8146 4.34674 28.4896 4.24587 27.1688 4.63181C26.1994 4.91687 25.3952 5.47824 25.0226 6.49132C24.5358 7.8114 24.866 9.342 26.3603 10.127C27.4736 10.7147 28.6589 11.0656 29.8611 11.3813C31.6687 11.8594 33.4847 12.3242 35.1695 13.1838C36.3294 13.7759 37.3115 14.5916 38.0099 15.7363C38.5348 16.5959 38.7846 17.5476 38.8566 18.5519C38.9624 20.043 38.7931 21.4859 38.1158 22.8323C37.2437 24.5602 35.8849 25.7049 34.1366 26.3671C32.4095 27.0249 30.6189 27.2398 28.7986 27.0206C27.1773 26.8276 25.7042 26.1829 24.3199 25.3058C22.995 24.4637 21.797 23.4463 20.6202 22.3937C19.0708 21.0034 17.5892 19.5299 15.9468 18.2536C14.7064 17.2888 13.3942 16.4555 11.8914 15.995C11.1548 15.7714 10.3971 15.6661 9.62667 15.6661C6.72696 15.6661 3.82726 15.6661 0.923315 15.6661C0.830186 15.6661 0.737056 15.6661 0.643927 15.6573C0.542331 15.6529 0.5 15.6003 0.5 15.4863C0.5 14.2276 0.5 12.9645 0.5 11.7059C0.5 11.5699 0.559264 11.5129 0.682025 11.5129C0.825953 11.5129 0.96988 11.5129 1.11381 11.5129C2.51921 11.5129 3.92038 11.5129 5.60094 11.5129L5.60518 11.5173Z" fill="#36474E"/>
<path d="M9.14832 22.6001C11.8956 22.6001 14.643 22.6001 17.3903 22.6001C17.8305 22.6001 17.7924 22.565 17.7924 23.008C17.7924 24.1526 17.7924 25.2973 17.7966 26.4463C17.7966 26.6524 17.7501 26.7401 17.53 26.7401C11.9761 26.7314 6.42217 26.7358 0.868284 26.7314C0.508466 26.7314 0.508466 26.7314 0.508466 26.363C0.508466 25.2096 0.516933 24.0561 0.5 22.8983C0.5 22.6439 0.576197 22.5957 0.804787 22.5957C3.58597 22.6045 6.36714 22.6001 9.14832 22.6001Z" fill="#01ADC3"/>
<path d="M9.05104 0.715811C11.7899 0.715811 14.5287 0.715811 17.2676 0.715811C17.4905 0.715811 17.602 0.8313 17.602 1.06228C17.602 2.19816 17.602 3.33405 17.602 4.46993C17.602 4.83832 17.602 4.83832 17.2379 4.84271C11.8026 4.84271 6.36722 4.84271 0.93609 4.84271C0.508542 4.84271 0.508542 4.84271 0.512776 4.3866C0.512776 3.25949 0.521242 2.13238 0.508542 1.00526C0.500076 0.768439 0.563573 0.711426 0.78793 0.711426C3.54371 0.720197 6.29949 0.715811 9.05527 0.715811H9.05104Z" fill="#01ADC3"/>
<path d="M45.6172 21.9243V5.53076H57.2372V8.60072H48.5804V18.8588H57.2372V21.9287H45.6172V21.9243ZM50.2525 12.1794H55.1121V15.2713H50.2525V12.1794Z" fill="#01ADC3"/>
<path d="M58.2773 5.53076H69.8973V8.60072H69.1946L62.5486 18.8588H69.8973V21.9287H58.2773V18.8588H58.98L65.6473 8.60072H58.2773V5.53076Z" fill="#01ADC3"/>
<path d="M75.1634 6.1623C76.1413 5.74127 77.1784 5.53076 78.2705 5.53076C79.3627 5.53076 80.3998 5.74127 81.3777 6.1623C82.3555 6.58332 83.2233 7.171 83.9768 7.92094C84.7303 8.68405 85.3145 9.56995 85.7293 10.5655C86.1442 11.5654 86.3516 12.618 86.3516 13.7275C86.3516 14.8371 86.1442 15.8897 85.7293 16.8896C85.3145 17.8895 84.7303 18.771 83.9768 19.5341C83.2233 20.2841 82.3555 20.8674 81.3777 21.2928C80.3998 21.7138 79.3627 21.9243 78.2705 21.9243C77.1784 21.9243 76.1413 21.7138 75.1634 21.2928C74.1855 20.8718 73.3262 20.2841 72.5854 19.5341C71.8319 18.771 71.2435 17.8851 70.8244 16.8896C70.4011 15.8897 70.1895 14.8371 70.1895 13.7275C70.1895 12.618 70.4011 11.5654 70.8244 10.5655C71.2477 9.56556 71.8319 8.68405 72.5854 7.92094C73.322 7.171 74.1813 6.5877 75.1634 6.1623ZM83.3884 13.7275C83.3884 12.3241 82.8974 11.1181 81.9195 10.1225C80.9078 9.10945 79.6929 8.60072 78.2705 8.60072C76.8482 8.60072 75.6375 9.10945 74.6427 10.1225C73.6479 11.1225 73.1527 12.3241 73.1527 13.7275C73.1527 15.131 73.6479 16.337 74.6427 17.3326C75.6375 18.3456 76.8482 18.8544 78.2705 18.8544C79.6929 18.8544 80.912 18.3456 81.9195 17.3326C82.8974 16.3326 83.3884 15.131 83.3884 13.7275Z" fill="#01ADC3"/>
<path d="M96.5928 15.9998C95.8859 15.5305 95.0181 15.2893 93.9937 15.2718C92.3047 15.2542 90.8358 14.842 89.587 14.0306C88.8927 13.5921 88.3509 13.057 87.9615 12.4255C87.5678 11.794 87.373 11.1142 87.373 10.3862C87.373 9.65814 87.5593 8.98275 87.9361 8.35999C88.3128 7.73722 88.8419 7.19779 89.5192 6.74607C90.7384 5.93472 92.1819 5.52686 93.8498 5.52686C95.5176 5.52686 96.9569 5.93472 98.1803 6.74607C98.8576 7.19779 99.3867 7.73722 99.7635 8.35999C100.14 8.98275 100.331 9.66253 100.331 10.3993H97.3675C97.3675 10.0397 97.1093 9.68007 96.5971 9.32044C95.8605 8.83802 94.9419 8.59243 93.8498 8.59243C92.7576 8.59243 91.8475 8.83364 91.1278 9.32044C90.5987 9.66252 90.3363 10.0221 90.3363 10.3993C90.3363 10.7414 90.6072 11.0879 91.149 11.4299C91.9025 11.9124 92.8126 12.1623 93.8836 12.1799C95.543 12.1974 96.9738 12.6097 98.1803 13.421C98.8576 13.8596 99.3867 14.3946 99.7635 15.0262C100.14 15.6577 100.331 16.3375 100.331 17.0655C100.331 17.7935 100.14 18.4689 99.7635 19.0917C99.3867 19.7144 98.8576 20.2539 98.1803 20.7056C96.9611 21.5169 95.5176 21.9248 93.8498 21.9248C92.1819 21.9248 90.7426 21.5169 89.5192 20.7056C88.8419 20.2539 88.3128 19.7144 87.9361 19.0917C87.5593 18.4689 87.373 17.7891 87.373 17.0523H90.3363C90.3363 17.4251 90.5987 17.7848 91.1278 18.1312C91.8517 18.6136 92.7576 18.8592 93.8498 18.8592C94.9419 18.8592 95.8563 18.618 96.5971 18.1312C97.1093 17.7891 97.3675 17.4339 97.3675 17.0655C97.3675 16.6971 97.1093 16.3419 96.5971 15.9998H96.5928Z" fill="#36474E"/>
<path d="M106.337 6.1623C107.315 5.74127 108.352 5.53076 109.444 5.53076C110.537 5.53076 111.574 5.74127 112.551 6.1623C113.529 6.58332 114.397 7.171 115.151 7.92094C115.904 8.68405 116.488 9.56995 116.903 10.5655C117.318 11.5654 117.525 12.618 117.525 13.7275C117.525 14.8371 117.318 15.8897 116.903 16.8896C116.488 17.8895 115.904 18.771 115.151 19.5341C114.397 20.2841 113.529 20.8674 112.551 21.2928C111.574 21.7138 110.537 21.9243 109.444 21.9243C108.352 21.9243 107.315 21.7138 106.337 21.2928C105.359 20.8718 104.5 20.2841 103.759 19.5341C103.006 18.771 102.417 17.8851 101.998 16.8896C101.575 15.8897 101.363 14.8371 101.363 13.7275C101.363 12.618 101.575 11.5654 101.998 10.5655C102.422 9.56556 103.006 8.68405 103.759 7.92094C104.496 7.171 105.355 6.5877 106.337 6.1623ZM114.562 13.7275C114.562 12.3241 114.071 11.1181 113.093 10.1225C112.082 9.10945 110.867 8.60072 109.444 8.60072C108.022 8.60072 106.811 9.10945 105.817 10.1225C104.822 11.1225 104.326 12.3241 104.326 13.7275C104.326 15.131 104.822 16.337 105.817 17.3326C106.811 18.3456 108.022 18.8544 109.444 18.8544C110.867 18.8544 112.086 18.3456 113.093 17.3326C114.071 16.3326 114.562 15.131 114.562 13.7275Z" fill="#36474E"/>
<path d="M119.109 21.9243V5.53076H130.729V8.60072H122.073V12.1838H128.604V15.2757H122.073V21.9287H119.109V21.9243Z" fill="#36474E"/>
<path d="M131.881 5.53076H143.501V8.60072H139.183V21.9287H136.22V8.60072H131.881V5.53076Z" fill="#36474E"/>
</g>
<defs>
<clipPath id="clip0_1174_174">
<rect width="143" height="26.77" fill="white" transform="translate(0.5 0.342773)"/>
</clipPath>
</defs>
</svg>
