<svg width="247" height="114" viewBox="0 0 247 114" fill="none" xmlns="http://www.w3.org/2000/svg">
<g clip-path="url(#clip0_1153_380)">
<path d="M190.42 50.1838C185.576 56.5811 178.867 55.8696 175.32 50.7576C175.017 51.1879 174.744 51.578 174.474 51.9624C171.908 55.5694 167.048 56.9923 163.296 55.2366C160.283 53.8252 158.872 51.0923 160.143 48.0629C161.181 45.6653 162.547 43.4229 164.204 41.3998C165.96 39.2234 167.555 39.4376 169.541 41.4495C170.167 42.0806 170.992 42.5167 171.739 43.0254C172.829 43.7713 173.929 44.5018 175.082 45.2783C177.022 41.7995 179.036 38.0548 184.248 39.4548C187.753 40.3976 190.507 42.2164 191.2 46.5979C191.666 45.3414 192.015 44.4617 192.317 43.5666C192.547 42.88 192.691 42.1629 192.917 41.4744C193.762 38.9135 194.482 38.6592 196.886 40.0094C198.124 39.2138 199.283 38.313 200.573 37.6743C202.606 36.6645 204.131 37.6743 204.21 39.9348C204.291 42.2776 204.256 44.6338 204.506 46.9594C204.73 49.0631 205.905 50.0193 207.974 50.0825C208.933 50.1111 209.862 50.2967 209.741 51.3084C209.676 51.8687 208.782 52.5993 208.127 52.781C205.367 53.546 201.869 51.0693 201.218 47.9309C200.865 46.2384 200.679 44.5133 200.352 42.3732C199.393 43.3429 198.495 44.0467 197.867 44.9417C196.742 46.5424 195.616 48.1795 194.796 49.9409C193.52 52.6815 192.177 52.8843 190.42 50.1838ZM187.891 45.2267C187.609 44.8843 187.227 43.9606 186.636 43.798C185.141 43.3907 183.339 42.7653 182.055 43.2568C181.098 43.6248 180.277 44.2751 179.702 45.1206C179.126 45.9662 178.824 46.9667 178.834 47.9883C178.834 48.7992 179.59 49.9352 180.325 50.3521C183.03 51.8821 187.972 48.7112 187.891 45.2267ZM166.636 44.5343C165.758 46.1332 164.695 47.8276 163.88 49.633C163.256 51.0138 163.904 51.8917 165.415 52.1059C167.584 52.4157 170.85 50.8264 171.896 48.9503C172.911 47.1315 172.472 46.2307 170.426 45.7296C169.299 45.4542 168.213 45.0392 166.636 44.5343Z" fill="#01ADC3"/>
<path d="M22.4149 65.2848C18.9718 65.1184 15.9913 64.4491 13.5327 62.353C9.91883 59.2701 9.77105 55.2997 10.9418 51.1401C13.4502 42.2298 18.7089 35.0561 25.7313 29.2211C28.8808 26.6029 32.4927 24.4743 36.0951 22.4872C38.3022 21.269 40.8452 21.2843 43.106 22.9041C44.8199 24.1358 45.6625 28.1042 44.3171 29.7164C43.9428 30.1639 42.7222 30.1926 42.014 29.9842C41.5822 29.856 41.229 28.938 41.1273 28.328C40.684 25.6619 40.5823 25.4879 38.0297 26.5149C31.4698 29.1522 26.2629 33.6026 21.8622 39.0168C18.4805 43.1784 15.8396 47.7703 14.5691 53.0334C13.2065 58.7078 15.6381 61.8882 21.4956 61.8213C23.5059 61.775 25.4914 61.3682 27.3569 60.6203C30.5716 59.3446 33.6174 57.6559 36.788 56.2521C37.4424 55.9634 39.4384 55.3361 39.6956 56.3325C40.0372 57.6521 37.0835 59.6927 36.1719 60.2492C31.8556 62.898 27.3147 65.0171 22.4149 65.2848Z" fill="#01ADC3"/>
<path d="M147.842 58.2029C144.595 58.0633 141.451 57.6291 139.129 54.9976C137.693 53.3681 137.267 51.425 138.319 49.9314C138.581 49.5561 138.92 49.24 139.312 49.0034C139.705 48.7669 140.144 48.6152 140.599 48.5582C141.685 48.4683 142.297 48.8566 141.773 49.8338C140.91 51.4403 139.943 52.8498 142.075 53.9304C145.433 55.6076 152.055 54.5692 154.782 51.9835C155.797 51.0272 156.125 49.918 155.166 48.8929C153.882 47.5217 152.504 46.1791 150.963 45.1177C148.852 43.6603 146.508 42.5339 144.326 41.1684C137.814 37.0986 137.801 29.158 143.019 24.6388C146.474 21.6438 150.212 19.1059 154.901 18.3888C159.29 17.7175 163.77 20.896 164.33 25.245C164.422 25.9737 163.962 27.3392 163.518 27.4482C162.607 27.6739 161.659 27.2283 161.196 26.0464C159.926 22.7951 158.267 21.8867 154.934 22.9061C150.416 24.2888 146.28 26.3485 143.825 30.7109C142.259 33.4917 142.773 36.2418 145.382 38.0797C147.301 39.4299 149.354 40.5927 151.402 41.746C154.239 43.3467 156.694 45.3185 158.267 48.2293C159.841 51.1401 159.06 54.2383 156.166 55.8792C153.6 57.3308 150.871 58.3042 147.842 58.2029Z" fill="#01ADC3"/>
<path d="M76.8054 46.3397C75.675 48.7246 74.5023 51.0942 73.4295 53.5039C72.9535 54.5692 72.6407 55.709 72.3029 56.8297C72.0035 57.8223 71.5352 58.551 70.353 58.5242C69.1247 58.484 68.3013 57.8644 68.0959 56.6805C67.6852 54.3224 67.3781 51.9452 67.0308 49.5757C67.0193 49.4013 66.9714 49.2313 66.8901 49.0765C66.8088 48.9217 66.6959 48.7855 66.5586 48.6768C66.1614 49.8396 65.7219 50.9909 65.3745 52.169C64.6836 54.5194 64.1462 56.9234 63.3094 59.2203C63.0906 59.8247 62.0389 60.4156 61.3192 60.4845C61.0768 60.5172 60.8301 60.4928 60.5988 60.4134C60.3675 60.334 60.1581 60.2017 59.9874 60.0271C59.8167 59.8525 59.6894 59.6405 59.6157 59.4081C59.542 59.1757 59.524 58.9293 59.5631 58.6887C60.0583 54.9478 60.6839 51.23 61.2904 47.5006C61.3595 47.0837 61.5936 46.4679 61.9026 46.3531C63.8391 45.6493 64.1615 43.7139 65.1653 42.3044C66.4281 40.5162 68.4549 40.5296 69.3723 42.5664C70.1726 44.345 70.5142 46.3302 71.0996 48.3517C71.5084 47.6766 71.8672 46.9479 72.3489 46.3111C73.322 45.022 74.2394 43.6546 75.4044 42.5568C76.9071 41.1397 78.5576 41.0096 80.0258 41.8932C81.5977 42.8494 81.8222 44.3928 81.6399 45.9993C81.4019 48.1031 81.0162 50.1896 80.711 52.2876C80.6545 52.7316 80.6269 53.1788 80.6285 53.6263C80.615 54.4774 80.7571 55.4068 81.4844 55.95C81.9163 56.2694 85.4476 56.9578 83.9353 57.9084C81.3539 59.5321 78.0548 57.2772 77.5481 54.5462C77.2276 52.825 77.3101 51.0024 77.2928 49.2257C77.2833 48.3536 77.4579 47.4777 77.55 46.6037L76.8054 46.3397Z" fill="#01ADC3"/>
<path d="M49.9929 61.5459C43.811 61.5689 40.2432 56.1221 42.8514 50.5625C44.1488 47.7951 46.1141 45.6015 49.0371 44.4617C50.7855 43.777 52.438 43.953 53.7277 45.5365C53.9415 45.7948 54.2165 45.996 54.528 46.1217C57.8905 47.4126 59.4412 52.19 58.5142 55.5464C57.6275 58.7632 53.6893 61.5325 49.9929 61.5459ZM55.2822 52.6509C55.3398 50.5931 54.908 49.1664 53.4763 48.8088C52.1328 48.476 50.3479 48.3039 49.2712 48.9331C47.4403 50.006 46.4385 52.0179 46.0335 54.1848C45.7111 55.906 46.2254 56.8278 47.8184 57.4628C51.1521 58.79 55.2151 55.8467 55.2822 52.6509Z" fill="#01ADC3"/>
<path d="M220.839 29.0987C221.142 22.9787 222.821 17.182 224.474 11.3833C225.33 8.38647 226.057 5.34945 226.999 2.38127C227.228 1.66218 228.124 0.616047 228.64 0.660034C229.389 0.715497 230.481 1.50153 230.69 2.19002C231.001 3.22468 230.882 4.50604 230.579 5.5866C229.003 11.3929 227.103 17.1189 225.748 22.973C225.172 25.4956 224.953 28.0812 224.763 30.6554C224.671 31.8833 225.076 35.9492 223.658 36.5402C221.132 37.5997 220.775 30.315 220.839 29.0987Z" fill="#01ADC3"/>
<path d="M120.547 81.1546L120.535 81.233L120.673 80.468C120.622 80.6784 120.589 80.9117 120.547 81.1546Z" fill="#01ADC3"/>
<path d="M245.862 63.2576C244.71 63.0396 243.042 63.2098 242.463 63.2423C228.228 64.034 213.983 64.734 199.762 65.7285C188.903 66.4839 178.061 67.5377 167.227 68.6087C157.961 69.5248 148.682 70.4122 139.473 71.7567C134.706 72.4528 129.954 73.2637 125.208 74.1167L125.338 72.8315C125.338 72.8315 125.661 69.7007 125.661 69.6969C125.897 64.5332 126.112 59.3523 126.371 54.1809C126.461 52.3966 126.519 50.5893 126.86 48.8451C127.578 45.1731 126.092 41.8989 122.845 40.0094C120.784 38.8141 118.934 39.0283 117.064 40.3288C113.138 43.056 111.821 46.8848 113.199 51.8611C107.48 53.6301 106.499 52.2914 106.131 47.6307C106.094 47.185 106.131 46.728 106.054 46.2919C105.841 45.0871 105.747 43.8267 105.307 42.7041C104.54 40.7266 102.542 40.4416 101.214 42.0902C100.488 42.9948 100.006 44.0926 99.4095 45.1004C99.2176 45.4275 99.0257 46.0146 98.7954 46.0261C96.9164 46.1332 96.5364 47.5714 96.3004 48.9254C95.834 51.5608 94.0165 52.9263 91.8555 54.005C89.9689 54.9478 89.3413 54.5519 89.6599 52.454C90.0408 50.0857 90.5463 47.7391 91.1741 45.4237C91.5234 44.0849 91.0359 43.4308 89.8614 42.9833C88.6868 42.5358 87.85 43.0464 87.6178 44.0486C86.9422 46.9728 86.117 49.9237 85.9749 52.8938C85.808 56.3898 88.4968 58.4917 91.8113 57.8032C92.9629 57.5641 93.9877 56.7341 95.074 56.189C95.4463 55.9978 95.8724 55.6784 96.2255 55.7358C98.9777 56.1986 99.1044 56.1508 100.051 53.5823C100.745 51.6966 101.434 49.8071 102.277 47.5102C102.499 48.4205 102.661 48.8489 102.703 49.285C103.336 55.0664 109.303 57.1548 113.529 54.8847C114.297 54.4754 115.218 54.1389 116.057 54.1637C118.105 54.2211 120.145 54.5099 122.461 54.7375C122.248 60.9817 122.024 67.6008 121.799 74.2238L121.703 74.7593C117.746 75.4822 113.788 76.2204 109.827 76.9299C106.372 77.5496 102.933 78.2878 99.4632 78.9763C98.4902 76.4901 98.2158 73.8126 96.8915 71.4985C96.7963 71.3313 96.6503 71.1984 96.4746 71.1189C96.2989 71.0394 96.1024 71.0175 95.9134 71.0561C95.7244 71.0947 95.5525 71.1921 95.4224 71.3341C95.2923 71.4761 95.2106 71.6554 95.1891 71.8465C94.8993 74.4781 95.7918 76.972 96.2735 79.594C95.6978 79.7585 95.122 79.9536 94.5462 80.0798C72.367 84.8685 50.5389 91.1495 29.212 98.8795C19.7989 102.293 10.403 105.752 1.02442 109.257C0.558047 109.431 0.0379304 110.169 0.0091421 110.672C-0.10793 112.621 1.7518 113.502 4.23143 112.831C6.11419 112.322 8.00271 111.791 9.92193 111.448C14.269 110.67 18.6218 109.892 23.0014 109.345C25.2316 109.062 26.2008 108.333 25.5099 106.187C25.0972 104.904 25.6327 104.657 26.4484 104.292C27.0587 104.015 27.6767 103.753 28.31 103.527C34.3229 101.398 40.3013 99.153 46.3661 97.1793C63.3972 91.6331 80.6204 86.7792 98.0623 82.7458C98.7486 83.6169 99.5013 84.434 100.313 85.1899L100.342 85.2167C105.025 89.8316 110.706 92.3484 117.473 92.4593C119.584 92.4918 121.245 91.2965 122.16 89.3993C123.807 85.9932 124.352 82.3059 124.772 78.3318L124.889 77.1843C129.465 76.3249 134.046 75.4962 138.633 74.6981C144.431 73.6787 150.267 72.7684 156.123 72.2023C171.313 70.7354 186.513 69.3335 201.731 68.1956C214.985 67.1992 228.253 66.2544 241.57 66.4744C242.699 66.4935 243.894 66.4553 244.971 66.0804C245.572 65.8719 247.274 64.7417 246.973 63.9155C246.85 63.5597 246.416 63.3628 245.862 63.2576ZM120.676 80.4699L120.538 81.2349C120.469 81.7303 120.379 82.2218 120.273 82.7133C119.977 84.0487 119.604 85.366 119.156 86.6587C118.325 89.1163 117.698 89.4567 115.151 89.0379C113.601 88.7914 112.075 88.4179 110.587 87.921C108.949 87.3543 107.399 86.5625 105.981 85.5686C105.24 85.0688 104.517 84.5467 103.81 84.0023C103.403 83.6867 103.004 83.3635 102.613 83.0288C102.467 82.9045 101.584 81.9425 101.461 81.9712C104.293 81.3337 107.13 80.7192 109.973 80.1276C113.692 79.3537 117.419 78.6097 121.152 77.8957L120.676 80.4699ZM122.352 45.2668C122.298 45.4607 122.225 45.649 122.135 45.8291C121.63 46.8255 120.736 47.6249 119.884 48.3153C119.364 48.735 118.816 49.1184 118.243 49.4628C117.859 49.6923 116.788 50.5242 116.406 49.9868C116.13 49.6043 116.329 48.6481 116.462 48.2541C116.723 47.5604 117.113 46.9223 117.613 46.3742C118.416 45.4179 120.385 42.1896 121.928 43.406C122.492 43.8592 122.532 44.6051 122.352 45.2611V45.2668ZM134.311 74.2831C158.963 69.8843 183.884 67.6372 208.903 66.3462C183.986 68.3658 159.08 70.5002 134.311 74.2773V74.2831Z" fill="#01ADC3"/>
<path d="M221.105 47.4662C223.483 47.4662 224.511 48.6825 224.709 50.7327C224.83 51.993 223.609 52.9971 222.178 52.9894C220.101 52.9894 218.17 51.5015 218.184 49.9295C218.197 48.3574 219.299 47.4203 221.105 47.4662Z" fill="#01ADC3"/>
<path d="M91.6119 28.4178C91.5908 30.1563 90.8193 30.9939 89.2628 30.9595C87.618 30.9251 86.1748 29.4563 86.2035 27.8479C86.2323 26.2395 87.0595 25.2794 88.403 25.2737C90.541 25.2584 91.6273 26.3313 91.6119 28.4178Z" fill="#01ADC3"/>
<path d="M120.538 81.233C120.469 81.7284 120.379 82.2199 120.273 82.7114L120.538 81.233Z" fill="#006BC5"/>
</g>
<defs>
<clipPath id="clip0_1153_380">
<rect width="247.008" height="112.399" fill="white" transform="translate(0 0.654297)"/>
</clipPath>
</defs>
</svg>
