<svg width="25" height="25" viewBox="0 0 25 25" fill="none" xmlns="http://www.w3.org/2000/svg">
<g clip-path="url(#clip0_884_1772)">
<g clip-path="url(#clip1_884_1772)">
<g clip-path="url(#clip2_884_1772)">
<path d="M1.76953 21.5452H5.26953C5.33592 21.5455 5.39966 21.5192 5.4466 21.4723C5.49355 21.4253 5.5198 21.3616 5.51953 21.2952V19.0452C5.51953 18.7691 5.29567 18.5452 5.01953 18.5452H2.01953C1.74339 18.5452 1.51953 18.7691 1.51953 19.0452V21.2952C1.51927 21.3616 1.54552 21.4253 1.59246 21.4723C1.6394 21.5192 1.70315 21.5455 1.76953 21.5452Z" fill="black"/>
<path d="M8.01953 13.5452C7.74339 13.5452 7.51953 13.7691 7.51953 14.0452V21.2952C7.51926 21.3616 7.54552 21.4253 7.59246 21.4723C7.6394 21.5192 7.70315 21.5455 7.76953 21.5452H11.2695C11.3359 21.5455 11.3996 21.5192 11.4466 21.4723C11.4935 21.4253 11.5198 21.3616 11.5195 21.2952V14.0452C11.5195 13.7691 11.2956 13.5452 11.0195 13.5452H8.01953Z" fill="black"/>
<path d="M14.0195 15.5452C13.7434 15.5452 13.5195 15.7691 13.5195 16.0452V21.2952C13.5192 21.3616 13.5455 21.4253 13.5924 21.4723C13.6394 21.5192 13.7031 21.5455 13.7695 21.5452H17.2695C17.3359 21.5455 17.3996 21.5192 17.4466 21.4723C17.4935 21.4253 17.5198 21.3616 17.5195 21.2952V16.0452C17.5195 15.7691 17.2956 15.5452 17.0195 15.5452H14.0195Z" fill="black"/>
<path d="M20.0195 8.54517C19.7434 8.54517 19.5195 8.76903 19.5195 9.04517V21.2952C19.5192 21.3616 19.5455 21.4253 19.5924 21.4723C19.6394 21.5192 19.7031 21.5455 19.7695 21.5452H23.2695C23.3359 21.5455 23.3996 21.5192 23.4466 21.4723C23.4935 21.4253 23.5198 21.3616 23.5195 21.2952V9.04517C23.5195 8.76903 23.2956 8.54517 23.0195 8.54517H20.0195Z" fill="black"/>
<path d="M1.51953 24.5452H23.5195C24.0718 24.5452 24.5195 24.0975 24.5195 23.5452C24.5195 22.9929 24.0718 22.5452 23.5195 22.5452H1.51953C0.967246 22.5452 0.519531 22.9929 0.519531 23.5452C0.519531 24.0975 0.967246 24.5452 1.51953 24.5452Z" fill="black"/>
<path d="M20.6276 4.96917C20.6956 4.96793 20.7612 4.99426 20.8096 5.04217L21.6656 5.89917C21.7595 5.99288 21.8869 6.04541 22.0196 6.04517C22.0851 6.04544 22.1501 6.03252 22.2106 6.00717C22.3975 5.92988 22.5195 5.74751 22.5196 5.54517V1.54517C22.5196 1.26902 22.2957 1.04517 22.0196 1.04517H18.0196C17.817 1.0448 17.6343 1.16663 17.5568 1.3537C17.4792 1.54078 17.5222 1.75615 17.6656 1.89917L18.6866 2.92017C18.7818 3.01477 18.7848 3.1678 18.6936 3.26617L15.4796 6.75117C15.2792 6.96574 14.9721 7.04387 14.6936 6.95117L10.9716 5.71117C9.90494 5.35066 8.72753 5.57197 7.86459 6.29517L2.71959 10.5852C2.18912 11.027 2.11726 11.8152 2.55909 12.3457C3.00091 12.8762 3.78912 12.948 4.31959 12.5062L9.46459 8.21817C9.6645 8.05371 9.93473 8.00314 10.1806 8.08417L13.9026 9.32417C15.1147 9.72868 16.4515 9.38599 17.3196 8.44817L20.4536 5.04817C20.4991 5.00028 20.5615 4.97195 20.6276 4.96917Z" fill="black"/>
</g>
</g>
</g>
<defs>
<clipPath id="clip0_884_1772">
<rect width="24" height="24" fill="white" transform="translate(0.519531 0.795166)"/>
</clipPath>
<clipPath id="clip1_884_1772">
<rect width="24" height="24" fill="white" transform="translate(0.519531 0.795166)"/>
</clipPath>
<clipPath id="clip2_884_1772">
<rect width="24" height="24" fill="white" transform="translate(0.519531 0.795166)"/>
</clipPath>
</defs>
</svg>
