<svg width="25" height="25" viewBox="0 0 25 25" fill="none" xmlns="http://www.w3.org/2000/svg">
<g clip-path="url(#clip0_884_1763)">
<g clip-path="url(#clip1_884_1763)">
<path d="M23.9019 1.02927C23.4135 0.541512 22.6223 0.541512 22.1339 1.02927L18.3689 4.79427C18.322 4.8413 18.2583 4.86772 18.1919 4.86772C18.1255 4.86772 18.0618 4.8413 18.0149 4.79427L16.6899 3.46927C16.547 3.32603 16.3319 3.28301 16.1449 3.3603C15.9579 3.43759 15.8359 3.61995 15.8359 3.82227V8.59527C15.8359 8.87142 16.0597 9.09527 16.3359 9.09527H21.1089C21.3112 9.09523 21.4936 8.97326 21.5708 8.78628C21.6481 8.59929 21.6051 8.38416 21.4619 8.24127L20.1359 6.91427C20.0893 6.86712 20.0631 6.80356 20.0629 6.73727C20.0632 6.67111 20.0898 6.60778 20.1369 6.56127L23.9019 2.79627C24.389 2.30798 24.389 1.51757 23.9019 1.02927Z" fill="white"/>
<path d="M1.13535 23.7972C1.62376 24.285 2.41494 24.285 2.90335 23.7972L6.66835 20.0322C6.71508 19.9852 6.7786 19.9588 6.84485 19.9588C6.9111 19.9588 6.97462 19.9852 7.02135 20.0322L8.34735 21.3572C8.44114 21.4513 8.56851 21.5042 8.70135 21.5042C8.76686 21.5039 8.8317 21.491 8.89235 21.4662C9.07934 21.3889 9.20132 21.2065 9.20135 21.0042V16.2312C9.20135 15.9551 8.97749 15.7312 8.70135 15.7312H3.92835C3.72602 15.7312 3.54366 15.8532 3.46637 16.0402C3.38909 16.2272 3.4321 16.4423 3.57535 16.5852L4.90035 17.9142C4.94737 17.9611 4.9738 18.0248 4.9738 18.0912C4.9738 18.1576 4.94737 18.2213 4.90035 18.2682L1.13535 22.0292C0.647592 22.5176 0.647592 23.3088 1.13535 23.7972Z" fill="white"/>
<path d="M16.1449 21.4662C16.2055 21.491 16.2704 21.5039 16.3359 21.5042C16.4687 21.5042 16.5961 21.4513 16.6899 21.3572L18.0179 20.0322C18.0646 19.9852 18.1281 19.9588 18.1944 19.9588C18.2606 19.9588 18.3241 19.9852 18.3709 20.0322L22.1359 23.7972C22.6241 24.2854 23.4157 24.2854 23.9039 23.7972C24.3921 23.309 24.3921 22.5174 23.9039 22.0292L20.1369 18.2642C20.0899 18.2173 20.0634 18.1536 20.0634 18.0872C20.0634 18.0208 20.0899 17.9571 20.1369 17.9102L21.4619 16.5852C21.6051 16.4423 21.6481 16.2272 21.5708 16.0402C21.4936 15.8532 21.3112 15.7312 21.1089 15.7312H16.3359C16.0597 15.7312 15.8359 15.9551 15.8359 16.2312V21.0042C15.8359 21.2065 15.9579 21.3889 16.1449 21.4662Z" fill="white"/>
<path d="M9.2017 3.82225C9.20166 3.61993 9.07968 3.43757 8.8927 3.36028C8.70572 3.28299 8.49059 3.32601 8.3477 3.46925L7.0197 4.79425C6.97324 4.84171 6.90962 4.86846 6.8432 4.86846C6.77678 4.86846 6.71316 4.84171 6.6667 4.79425L2.9037 1.02925C2.41548 0.541031 1.62392 0.541031 1.1357 1.02925C0.647476 1.51747 0.647476 2.30903 1.1357 2.79725L4.9007 6.56225C4.94772 6.60916 4.97415 6.67284 4.97415 6.73925C4.97415 6.80567 4.94772 6.86935 4.9007 6.91625L3.5757 8.24125C3.43245 8.38414 3.38944 8.59927 3.46673 8.78625C3.54402 8.97324 3.72637 9.09521 3.9287 9.09525H8.7017C8.97784 9.09525 9.2017 8.8714 9.2017 8.59525V3.82225Z" fill="white"/>
<path d="M12.5184 15.3223C14.125 15.3223 15.4274 14.0199 15.4274 12.4133C15.4274 10.8067 14.125 9.50427 12.5184 9.50427C10.9118 9.50427 9.60938 10.8067 9.60938 12.4133C9.60938 14.0199 10.9118 15.3223 12.5184 15.3223Z" fill="white"/>
</g>
</g>
<defs>
<clipPath id="clip0_884_1763">
<rect width="24" height="24" fill="white" transform="translate(0.519531 0.414307)"/>
</clipPath>
<clipPath id="clip1_884_1763">
<rect width="24" height="24" fill="white" transform="translate(0.519531 0.414307)"/>
</clipPath>
</defs>
</svg>