<svg width="25" height="25" viewBox="0 0 25 25" fill="none" xmlns="http://www.w3.org/2000/svg">
<path fill-rule="evenodd" clip-rule="evenodd" d="M21.3359 0.544189H3.33594C1.67909 0.544189 0.335938 1.88734 0.335938 3.54419V21.5442C0.335938 23.2011 1.67909 24.5442 3.33594 24.5442H21.3359C22.9928 24.5442 24.3359 23.2011 24.3359 21.5442V3.54419C24.3359 1.88734 22.9928 0.544189 21.3359 0.544189ZM3.33594 2.54419H21.3359C21.8882 2.54419 22.3359 2.99191 22.3359 3.54419V13.0742H19.6899C19.0189 13.0742 18.7789 12.6662 18.1829 11.0442L18.1407 10.9302C18.0481 10.6798 17.9529 10.4223 17.8479 10.1612C17.6054 9.55411 16.9978 9.17396 16.3458 9.22151C15.6938 9.26906 15.1477 9.73336 14.9959 10.3692L13.4119 16.9692L10.8019 4.24419C10.6572 3.54864 10.0464 3.04862 9.33594 3.04419C8.62229 3.04309 8.00667 3.54495 7.86394 4.24419C7.54094 5.79519 7.28894 7.11219 7.07594 8.22619C6.20694 12.7802 6.03194 13.0802 5.20994 13.0802H2.33594V3.54419C2.33594 2.99191 2.78366 2.54419 3.33594 2.54419ZM3.33594 22.5442H21.3359C21.8882 22.5442 22.3359 22.0965 22.3359 21.5442V15.0752H19.6929C17.8459 15.0752 17.1029 13.7742 16.5659 12.4162L14.8359 19.6232C14.6787 20.3028 14.0714 20.7826 13.3739 20.7782H13.3479C12.6438 20.7688 12.042 20.2687 11.9039 19.5782L9.33594 7.05719C9.33594 7.05719 9.13594 8.12119 9.04094 8.59519L9.03384 8.63235C8.16399 13.1845 7.8029 15.0742 5.20994 15.0742H2.33594V21.5442C2.33594 22.0965 2.78366 22.5442 3.33594 22.5442Z" fill="white"/>
</svg>
