<svg width="66" height="66" viewBox="0 0 66 66" fill="none" xmlns="http://www.w3.org/2000/svg">
<path d="M0.160156 32.9243C0.160156 14.9751 14.7109 0.424316 32.6602 0.424316C50.6094 0.424316 65.1602 14.9751 65.1602 32.9243C65.1602 50.8736 50.6094 65.4243 32.6602 65.4243H0.160156V32.9243Z" fill="url(#paint0_linear_883_337)"/>
<g clip-path="url(#clip0_883_337)">
<path d="M27.3899 49.8804C27.2766 49.8804 27.1859 49.8634 27.1179 49.8294C27.0499 49.7954 26.982 49.7444 26.914 49.6764L24.0924 46.8549H20.0471C18.7553 46.8549 17.6335 46.396 16.6817 45.4781C15.7298 44.5603 15.2539 43.4441 15.2539 42.1297V31.6594C15.2539 30.345 15.7185 29.2288 16.6477 28.311C17.5769 27.3931 18.6873 26.9342 19.9791 26.9342H26.846C27.0046 26.9342 27.1576 26.9965 27.3049 27.1212C27.4522 27.2458 27.5259 27.4101 27.5259 27.6141C27.5259 27.818 27.4635 27.9824 27.3389 28.107C27.2142 28.2316 27.0499 28.294 26.846 28.294H19.9791C19.0499 28.294 18.2454 28.6226 17.5655 29.2798C16.8856 29.937 16.5457 30.7529 16.5457 31.7274V42.1977C16.5457 43.1268 16.88 43.9314 17.5485 44.6112C18.2171 45.2911 19.0273 45.6311 19.9791 45.6311H24.3644C24.5004 45.6311 24.6307 45.6651 24.7553 45.7331C24.88 45.8011 24.9536 45.903 24.9763 46.039L26.642 47.6707V46.311C26.642 46.1523 26.7043 45.9994 26.829 45.852C26.9536 45.7047 27.1179 45.6311 27.3219 45.6311H34.6307C35.5599 45.6311 36.3644 45.3025 37.0443 44.6452C37.7242 43.988 38.0641 43.1722 38.0641 42.1977V37.5404C38.0641 37.3818 38.1264 37.2288 38.2511 37.0815C38.3757 36.9342 38.54 36.8605 38.744 36.8605C38.9253 36.8605 39.0896 36.9229 39.2369 37.0475C39.3842 37.1722 39.4579 37.3365 39.4579 37.5404V42.1977C39.4579 43.5121 38.9933 44.6282 38.0641 45.5461C37.1349 46.4639 36.0131 46.9229 34.6987 46.9229H28.0698V49.2685C28.0698 49.4045 28.0358 49.5291 27.9678 49.6424C27.8998 49.7557 27.7978 49.835 27.6618 49.8804H27.4919H27.3899ZM45.6788 37.2685C45.5655 37.2685 45.4749 37.2515 45.4069 37.2175C45.3389 37.1835 45.2709 37.1325 45.2029 37.0645L42.6533 34.5149C42.2454 34.6282 41.8318 34.7189 41.4125 34.7869C40.9933 34.8549 40.5684 34.8889 40.1378 34.8889H38.404C37.0443 34.9115 35.7525 34.6849 34.5287 34.209C33.3276 33.7331 32.2681 33.0588 31.3502 32.1863C30.4324 31.3138 29.7015 30.2883 29.1576 29.1098C28.6137 27.9314 28.3191 26.6509 28.2737 25.2685C28.2284 23.9087 28.455 22.6169 28.9536 21.3931C29.4295 20.192 30.0981 19.1325 30.9593 18.2146C31.8205 17.2968 32.8516 16.5659 34.0528 16.022C35.2312 15.4781 36.5004 15.1835 37.8601 15.1382H38.1661H38.404H40.1378C41.4975 15.1382 42.778 15.3988 43.9791 15.92C45.1803 16.4413 46.2284 17.1495 47.1236 18.0447C48.0188 18.9399 48.7157 19.988 49.2142 21.1892C49.7355 22.3903 49.9961 23.6594 49.9961 24.9965C49.9961 25.7897 49.9055 26.5603 49.7242 27.3081C49.5429 28.056 49.2709 28.7699 48.9083 29.4498C48.591 30.0843 48.2114 30.6679 47.7695 31.2005C47.3276 31.7331 46.8346 32.226 46.2907 32.6792V36.5886C46.2907 36.7246 46.2567 36.8549 46.1888 36.9795C46.1208 37.1042 46.0188 37.1778 45.8828 37.2005C45.8828 37.2458 45.8715 37.2685 45.8488 37.2685H45.6788ZM42.8573 33.0872C42.9706 33.0872 43.0613 33.1042 43.1293 33.1382C43.1973 33.1722 43.2652 33.2231 43.3332 33.2911L44.9989 34.9569V32.3393C44.9989 32.226 45.0159 32.124 45.0499 32.0333C45.0839 31.9427 45.1576 31.8634 45.2709 31.7954C46.2001 31.0928 46.948 30.2543 47.5145 29.2798C48.0811 28.3053 48.438 27.2741 48.5854 26.1863C48.7327 25.0985 48.6703 24.0107 48.3984 22.9229C48.1264 21.835 47.6278 20.8152 46.9026 19.8634C46.1321 18.7982 45.1463 17.971 43.9451 17.3818C42.744 16.7925 41.4749 16.4753 40.1378 16.4299H38.404C37.2482 16.362 36.1378 16.5093 35.0726 16.8719C34.0074 17.2345 33.0613 17.7727 32.2341 18.4866C31.4069 19.2005 30.7327 20.056 30.2114 21.0532C29.6902 22.0503 29.3842 23.1382 29.2936 24.3166C29.2029 25.4951 29.3502 26.6056 29.7355 27.6481C30.0981 28.7132 30.6363 29.6594 31.3502 30.4866C32.0641 31.3138 32.9196 31.988 33.9168 32.5093C34.914 33.0305 36.0018 33.3365 37.1803 33.4271H37.8261H38.472H40.2057C40.6137 33.4271 41.0329 33.3988 41.4635 33.3421C41.8941 33.2855 42.3134 33.2005 42.7213 33.0872H42.7893H42.8573ZM39.5259 27.818C39.3446 27.818 39.1803 27.7557 39.0329 27.6311C38.8856 27.5064 38.812 27.3421 38.812 27.1382V25.4724C38.812 25.1778 38.9083 24.9115 39.1009 24.6736C39.2936 24.4356 39.5485 24.294 39.8658 24.2486C40.2737 24.158 40.5797 23.9314 40.7837 23.5688C40.9876 23.2061 41.0443 22.8209 40.9536 22.4129C40.8856 22.0957 40.727 21.8294 40.4777 21.6141C40.2284 21.3988 39.9338 21.2685 39.5939 21.2231C39.1633 21.2005 38.7893 21.3365 38.472 21.6311C38.1548 21.9257 37.9735 22.277 37.9281 22.6849V22.7189V22.7529C37.9281 22.9115 37.8658 23.0645 37.7412 23.2118C37.6165 23.3591 37.4522 23.4328 37.2482 23.4328C37.0669 23.4328 36.9083 23.3705 36.7723 23.2458C36.6363 23.1212 36.5684 22.9569 36.5684 22.7529C36.5684 21.9597 36.8516 21.2798 37.4182 20.7132C37.9848 20.1467 38.6647 19.8634 39.4579 19.8634C40.2284 19.8634 40.897 20.1467 41.4635 20.7132C42.0301 21.2798 42.3134 21.9597 42.3134 22.7529C42.3134 23.3875 42.1094 23.971 41.7015 24.5036C41.2936 25.0362 40.7723 25.3818 40.1378 25.5404V27.2062C40.1604 27.3648 40.1038 27.5064 39.9678 27.6311C39.8318 27.7557 39.6845 27.818 39.5259 27.818ZM39.5259 30.5036C39.4125 30.5036 39.3162 30.4866 39.2369 30.4526C39.1576 30.4186 39.0839 30.3563 39.0159 30.2656C38.948 30.1977 38.897 30.1297 38.863 30.0617C38.829 29.9937 38.812 29.903 38.812 29.7897C38.812 29.6991 38.829 29.6141 38.863 29.5348C38.897 29.4554 38.948 29.3818 39.0159 29.3138C39.1746 29.1778 39.3446 29.1098 39.5259 29.1098C39.7072 29.1098 39.8658 29.1778 40.0018 29.3138C40.0698 29.3818 40.1208 29.4554 40.1548 29.5348C40.1888 29.6141 40.2057 29.6991 40.2057 29.7897C40.2057 29.903 40.1888 29.9937 40.1548 30.0617C40.1208 30.1297 40.0698 30.1977 40.0018 30.2656C39.9338 30.3563 39.8601 30.4186 39.7808 30.4526C39.7015 30.4866 39.6165 30.5036 39.5259 30.5036ZM33.9508 37.4724H19.5712C19.3899 37.4498 19.2426 37.3705 19.1293 37.2345C19.0159 37.0985 18.9593 36.9285 18.9593 36.7246C18.982 36.5433 19.0443 36.4016 19.1463 36.2996C19.2482 36.1977 19.3899 36.1353 19.5712 36.1127H33.8828C34.0641 36.0673 34.2284 36.107 34.3757 36.2316C34.523 36.3563 34.608 36.5206 34.6307 36.7246C34.676 36.9059 34.6363 37.0702 34.5117 37.2175C34.3871 37.3648 34.2227 37.4498 34.0188 37.4724C34.0188 37.5178 34.0074 37.5404 33.9848 37.5404C33.9621 37.5404 33.9508 37.5178 33.9508 37.4724ZM33.9508 41.3138C33.8601 41.3138 33.7752 41.2968 33.6958 41.2628C33.6165 41.2288 33.5429 41.1778 33.4749 41.1098C33.4069 41.0418 33.3559 40.9682 33.3219 40.8889C33.2879 40.8095 33.2709 40.7246 33.2709 40.6339C33.2709 40.5206 33.2879 40.4299 33.3219 40.362C33.3559 40.294 33.4069 40.226 33.4749 40.158C33.6108 40.022 33.7695 39.954 33.9508 39.954C34.1321 39.954 34.2907 40.022 34.4267 40.158C34.4947 40.226 34.5457 40.294 34.5797 40.362C34.6137 40.4299 34.6307 40.5206 34.6307 40.6339C34.6307 40.7246 34.6137 40.8095 34.5797 40.8889C34.5457 40.9682 34.4947 41.0418 34.4267 41.1098C34.3587 41.1778 34.2794 41.2288 34.1888 41.2628C34.0981 41.2968 34.0188 41.3138 33.9508 41.3138ZM31.2992 41.3138H19.6392C19.4579 41.3138 19.2992 41.2515 19.1633 41.1268C19.0273 41.0022 18.9593 40.8379 18.9593 40.6339C18.9593 40.4526 19.0216 40.294 19.1463 40.158C19.2709 40.022 19.4352 39.954 19.6392 39.954H31.2992C31.4579 39.954 31.6108 40.0163 31.7582 40.141C31.9055 40.2656 31.9791 40.4299 31.9791 40.6339C31.9791 40.8379 31.9055 41.0022 31.7582 41.1268C31.6108 41.2515 31.4579 41.3138 31.2992 41.3138ZM29.4975 33.6991H19.5712C19.3899 33.6991 19.2312 33.6367 19.0953 33.5121C18.9593 33.3875 18.8913 33.2231 18.8913 33.0192C18.8913 32.8152 18.9536 32.6509 19.0783 32.5263C19.2029 32.4016 19.3672 32.3393 19.5712 32.3393H29.4975C29.6788 32.3393 29.8375 32.4016 29.9735 32.5263C30.1094 32.6509 30.1774 32.8152 30.1774 33.0192C30.1774 33.2231 30.1151 33.3875 29.9905 33.5121C29.8658 33.6367 29.7015 33.6991 29.4975 33.6991Z" fill="white"/>
</g>
<defs>
<linearGradient id="paint0_linear_883_337" x1="83.4171" y1="85.2278" x2="-13.515" y2="64.5598" gradientUnits="userSpaceOnUse">
<stop stop-color="#36474E"/>
<stop offset="1" stop-color="#006BC5"/>
</linearGradient>
<clipPath id="clip0_883_337">
<rect width="35" height="36" fill="white" transform="matrix(1 0 0 -1 15.1602 50.4243)"/>
</clipPath>
</defs>
</svg>
