<svg width="17" height="16" viewBox="0 0 17 16" fill="none" xmlns="http://www.w3.org/2000/svg">
<g clip-path="url(#clip0_1174_236)">
<path d="M0.126953 13.5163V2.25831C0.235057 2.04759 0.389376 1.91599 0.644566 1.87213C1.62272 1.70449 2.59727 1.51963 3.57342 1.34103C5.29464 1.02613 7.01546 0.710447 8.73708 0.396331C9.07827 0.334057 9.35878 0.552606 9.36642 0.890221C9.37285 1.18201 9.36802 1.4738 9.36802 1.76559C9.36802 1.9673 9.36802 2.16862 9.36802 2.38364C9.448 2.38364 9.51109 2.38364 9.57378 2.38364C11.6909 2.38364 13.8079 2.38364 15.9254 2.38364C16.3707 2.38364 16.5555 2.56537 16.5555 3.00247C16.5555 6.25917 16.5555 9.51587 16.5555 12.7722C16.5555 13.2108 16.3723 13.3914 15.9266 13.3914C13.8039 13.3914 11.6816 13.3914 9.55892 13.3914H9.36802C9.36802 13.8892 9.36963 14.3631 9.36762 14.8366C9.36602 15.2244 9.09234 15.4433 8.70534 15.3724C6.04453 14.8872 3.38413 14.3999 0.722529 13.9201C0.452068 13.8712 0.23787 13.7741 0.126953 13.5163ZM9.37446 10.3893C9.88202 10.3893 10.3735 10.3873 10.865 10.3901C11.1929 10.3916 11.422 10.602 11.4208 10.8926C11.4192 11.1824 11.1897 11.388 10.8602 11.3896C10.4217 11.3916 9.98329 11.39 9.54485 11.39C9.48859 11.39 9.43233 11.39 9.37646 11.39V12.3809H15.5175V3.39179H9.37847V4.38466C9.87921 4.38466 10.3703 4.38309 10.8614 4.38544C11.1913 4.38701 11.4204 4.59381 11.4208 4.88403C11.4216 5.17426 11.1921 5.38301 10.8642 5.38497C10.4258 5.38732 9.98731 5.38537 9.54887 5.38576C9.4922 5.38576 9.43554 5.38576 9.38089 5.38576V6.38646C9.87961 6.38646 10.3659 6.38529 10.8521 6.38685C11.1925 6.38803 11.4244 6.596 11.4212 6.8921C11.418 7.18154 11.1885 7.38521 10.8582 7.38638C10.4197 7.38834 9.98128 7.38678 9.54284 7.38678C9.48698 7.38678 9.43072 7.38678 9.37807 7.38678V8.38748H9.54364C9.94471 8.38748 10.3458 8.38748 10.7469 8.38748C11.1797 8.38748 11.4188 8.56373 11.4212 8.88411C11.4236 9.20567 11.1825 9.38819 10.7553 9.38819C10.4237 9.38819 10.0922 9.38819 9.76066 9.38819H9.37526V10.3889L9.37446 10.3893ZM5.56671 7.75337C5.60328 7.70559 5.63101 7.6676 5.66034 7.63117C6.16188 7.00216 6.66302 6.37275 7.16616 5.74491C7.28029 5.60235 7.34781 5.4496 7.29757 5.26708C7.24292 5.06772 7.10829 4.94122 6.90294 4.89931C6.6811 4.85387 6.50669 4.94082 6.37126 5.11081C5.91232 5.68616 5.45298 6.26191 4.99364 6.83727C4.95666 6.88388 4.91648 6.92813 4.87348 6.97866C4.80797 6.90698 4.75774 6.85293 4.70831 6.79849C4.33858 6.38724 3.97288 5.97208 3.59793 5.56553C3.39177 5.3415 3.08273 5.3274 2.86773 5.51422C2.65112 5.70222 2.63665 5.9944 2.83397 6.22823C2.90189 6.30852 2.97422 6.38529 3.04455 6.46401C3.43799 6.90268 3.83142 7.34134 4.23008 7.78588C4.19511 7.83249 4.16457 7.8744 4.13242 7.91513C3.70322 8.45406 3.27442 8.99299 2.84362 9.53075C2.7335 9.66823 2.66438 9.81549 2.70778 9.99331C2.75681 10.1938 2.88662 10.32 3.09197 10.3701C3.32305 10.4265 3.49987 10.338 3.63892 10.1649C4.02713 9.68076 4.41333 9.19509 4.80034 8.70982C4.83851 8.66204 4.8783 8.61582 4.92451 8.5602C5.00609 8.65068 5.07682 8.72823 5.14675 8.80617C5.55505 9.26089 5.96416 9.71483 6.37086 10.1707C6.51432 10.3313 6.68472 10.4241 6.90736 10.3767C7.29436 10.2941 7.44104 9.85936 7.17862 9.55503C6.88646 9.21624 6.58224 8.88725 6.28325 8.55394C6.04494 8.288 5.80663 8.02206 5.56671 7.75416V7.75337Z" fill="black"/>
<path d="M13.4688 5.38474C13.298 5.38474 13.1268 5.38944 12.956 5.38396C12.6654 5.37417 12.448 5.1564 12.4492 4.8838C12.45 4.61747 12.6614 4.39618 12.9443 4.38874C13.2964 4.37934 13.6496 4.37973 14.0017 4.38874C14.2918 4.39618 14.506 4.62296 14.5008 4.89595C14.4956 5.16228 14.281 5.37417 13.9976 5.38396C13.8216 5.39023 13.6452 5.38514 13.4688 5.38514V5.38474Z" fill="black"/>
<path d="M13.4692 7.38621C13.2984 7.38621 13.1272 7.39091 12.9564 7.38543C12.6658 7.37563 12.4484 7.15826 12.4492 6.88566C12.45 6.61933 12.6614 6.39804 12.9439 6.3902C13.296 6.3808 13.6492 6.3812 14.0013 6.3902C14.2914 6.39725 14.506 6.62442 14.5004 6.89702C14.4952 7.16335 14.281 7.37524 13.9976 7.38543C13.8216 7.39169 13.6452 7.3866 13.4688 7.3866L13.4692 7.38621Z" fill="black"/>
<path d="M13.4688 9.38719C13.298 9.38719 13.1268 9.39189 12.956 9.3864C12.6654 9.37661 12.448 9.15885 12.4492 8.88625C12.45 8.61991 12.6614 8.39862 12.9443 8.39118C13.2964 8.38178 13.6496 8.38217 14.0017 8.39118C14.2918 8.39862 14.506 8.6254 14.5008 8.89839C14.4956 9.16472 14.281 9.37661 13.9976 9.3864C13.8216 9.39267 13.6452 9.38758 13.4688 9.38758V9.38719Z" fill="black"/>
<path d="M13.4785 11.389C13.3077 11.389 13.1365 11.393 12.9657 11.3883C12.6723 11.38 12.4533 11.1693 12.4493 10.8967C12.4449 10.6179 12.6655 10.3962 12.9669 10.3907C13.3085 10.3844 13.6505 10.3836 13.9925 10.3911C14.2846 10.3973 14.5012 10.6175 14.5008 10.8901C14.5004 11.1627 14.2822 11.3785 13.9913 11.3879C13.8205 11.3934 13.6497 11.389 13.4785 11.389Z" fill="black"/>
</g>
<defs>
<clipPath id="clip0_1174_236">
<rect width="16.4286" height="15" fill="white" transform="translate(0.126953 0.385742)"/>
</clipPath>
</defs>
</svg>
