<svg width="15" height="15" viewBox="0 0 15 15" fill="none" xmlns="http://www.w3.org/2000/svg">
<g clip-path="url(#clip0_1579_703)">
<path d="M7.46333 14.9962C6.73943 14.9962 6.0155 14.9696 5.2916 14.9089C4.40026 14.8889 3.5225 14.6872 2.71227 14.3165C2.02603 13.9526 1.43341 13.4357 0.980693 12.8059C0.527975 12.1762 0.227372 11.4507 0.102373 10.6861C0.0705586 10.481 0.0502406 10.2744 0.0414461 10.0671C-0.011894 8.33924 -0.015704 6.6076 0.0414461 4.87975C0.08715 3.61193 0.614171 2.40871 1.51596 1.5134C2.41776 0.618105 3.62703 0.0975347 4.89921 0.0569631C6.04221 0.0189885 7.15855 0.0227868 8.29012 0.0341793C9.05212 0.0341793 12.3706 -0.250632 11.9706 1.1962C11.9114 1.39424 11.776 1.5609 11.594 1.6598C11.4119 1.75869 11.1981 1.7818 10.999 1.72406C8.93401 1.37849 6.7204 1.47342 4.62108 1.60254C3.83959 1.67532 3.10853 2.01937 2.55562 2.57463C2.00271 3.12989 1.66305 3.86107 1.59591 4.64051C1.50828 6.53924 1.50828 8.43798 1.59591 10.3367C1.65939 11.1175 1.9979 11.8507 2.55153 12.4067C3.10516 12.9627 3.83824 13.3055 4.62108 13.3747C6.52609 13.4582 8.43109 13.462 10.3361 13.3747C11.1203 13.3034 11.8547 12.9604 12.4116 12.4053C12.9684 11.8503 13.3125 11.1184 13.3841 10.3367C13.4755 9.06836 13.4527 7.78861 13.4755 6.51646C13.4755 6.37595 13.4755 6.23543 13.4755 6.09873C13.4637 5.9922 13.4746 5.88439 13.5076 5.78237C13.5405 5.68035 13.5948 5.58646 13.6668 5.50683C13.7388 5.4272 13.8268 5.36365 13.9252 5.32036C14.0236 5.27708 14.13 5.25505 14.2375 5.2557C14.3436 5.25527 14.4487 5.27693 14.5459 5.3193C14.6431 5.36167 14.7304 5.42382 14.8021 5.50176C14.8738 5.57969 14.9285 5.67168 14.9625 5.77187C14.9965 5.87206 15.0091 5.97821 14.9995 6.08354C14.9995 7.16962 14.9995 8.2595 14.9805 9.34558C14.9786 9.85457 14.9353 10.3626 14.8509 10.8646C14.7104 11.56 14.4243 12.218 14.0113 12.7958C13.5984 13.3735 13.0679 13.8581 12.4544 14.2177C11.2619 14.9127 9.85983 14.9772 8.5149 15.0114C8.16057 14.9962 7.81385 15 7.46333 14.9962Z" fill="#34C759"/>
<path d="M7.31536 8.43037C7.95544 7.55696 8.53076 6.69113 9.18228 5.88606C10.4624 4.32726 12.0185 3.0157 13.7733 2.01646C14.2419 1.74684 14.6763 1.83037 14.9163 2.22531C14.971 2.31992 15.0047 2.42517 15.0149 2.5339C15.0251 2.64263 15.0117 2.75228 14.9755 2.85537C14.9394 2.95845 14.8813 3.05255 14.8053 3.13124C14.7294 3.20994 14.6373 3.27139 14.5353 3.31139C11.8381 4.86434 9.66369 7.17969 8.28693 9.96457C7.98213 10.5722 7.44111 10.6519 6.95343 10.1696C6.00601 9.23038 5.05983 8.28861 4.11495 7.3443C4.02336 7.28123 3.94674 7.19892 3.8905 7.10316C3.83425 7.0074 3.79978 6.90053 3.78943 6.79005C3.77908 6.67957 3.79315 6.56818 3.83064 6.4637C3.86813 6.35923 3.9281 6.2642 4.0064 6.18531C4.08469 6.10643 4.17941 6.04561 4.28382 6.00712C4.38823 5.96863 4.49983 5.95341 4.61078 5.96253C4.72173 5.97165 4.8293 6.0049 4.92597 6.05992C5.02264 6.11494 5.10606 6.19041 5.17033 6.28102C5.87899 6.99874 6.59527 7.72025 7.31536 8.43037Z" fill="#34C759"/>
</g>
<defs>
<clipPath id="clip0_1579_703">
<rect width="15" height="15" fill="white"/>
</clipPath>
</defs>
</svg>
