<svg width="18" height="20" viewBox="0 0 18 20" fill="none" xmlns="http://www.w3.org/2000/svg">
<g clip-path="url(#clip0_1534_127)">
<path d="M6.16044 11.9671C6.09201 12.0255 6.03304 12.1056 5.95405 12.139C5.67368 12.2575 5.38718 12.3643 5.10069 12.4677C4.99444 12.5061 4.95327 12.5606 4.95438 12.6791C4.9605 13.4429 4.95939 14.2062 4.95494 14.97C4.95438 15.079 4.99277 15.1285 5.09179 15.1647C5.38496 15.2704 5.67757 15.3799 5.96351 15.5023C6.03416 15.5329 6.10202 15.6097 6.13485 15.682C6.25834 15.9524 6.37405 16.2277 6.47641 16.5065C6.50534 16.5854 6.50645 16.695 6.47641 16.7729C6.3646 17.0561 6.22608 17.3292 6.11538 17.6129C6.0909 17.6752 6.11204 17.7909 6.15765 17.8382C6.32844 18.0162 6.51813 18.1759 6.70116 18.3422C6.68725 18.3645 6.6739 18.3867 6.65999 18.409C6.59435 18.409 6.5287 18.409 6.46306 18.409C4.48487 18.409 2.50668 18.409 0.528482 18.409C0.114597 18.409 0 18.2922 0 17.8733C0 12.0911 0 6.30841 0 0.525145C0 0.11571 0.113485 0 0.514019 0C4.01257 0 7.51057 0 11.0086 0C11.0764 0 11.1449 0 11.2366 0C11.2366 0.119604 11.2366 0.221406 11.2366 0.323209C11.2366 0.906208 11.2344 1.48976 11.2372 2.07276C11.24 2.60959 11.5888 2.96006 12.1223 2.96228C12.7331 2.96506 13.3439 2.96284 13.9547 2.96284C14.0293 2.96284 14.1032 2.96284 14.1884 2.96284V8.33723C13.977 8.26268 13.7711 8.19593 13.5709 8.11471C13.5308 8.09857 13.5063 8.02959 13.4869 7.98064C13.3723 7.69025 13.2688 7.39597 13.1442 7.11059C13.1169 7.04829 13.0201 6.97819 12.9539 6.97764C12.1907 6.96818 11.4269 6.9743 10.6637 6.96929C10.5468 6.96873 10.4751 7.00489 10.4545 7.11782C10.4245 7.28249 10.3227 7.30919 10.1708 7.30863C8.71328 7.30307 7.25578 7.30529 5.79829 7.30529C5.46173 7.30529 5.29651 7.41433 5.29317 7.63685C5.28983 7.86104 5.45338 7.97174 5.7905 7.97174C7.15064 7.97174 8.51135 7.97174 9.87149 7.97174C9.94548 7.97174 10.0189 7.97174 10.0929 7.97174C10.1018 7.99232 10.1107 8.0129 10.1196 8.03293C10.0612 8.07354 10.0078 8.12583 9.94381 8.15309C9.67067 8.27103 9.39697 8.3884 9.11771 8.49021C9.03816 8.51913 8.92801 8.52025 8.84958 8.48965C8.57254 8.38062 8.30107 8.25656 8.03238 8.12806C7.92223 8.07521 7.84935 8.08189 7.76201 8.1759C7.56342 8.38952 7.35759 8.59646 7.14286 8.79283C7.07888 8.85124 6.97708 8.89464 6.89085 8.89686C6.49533 8.90799 6.0998 8.89964 5.70427 8.90242C5.44281 8.90465 5.28816 9.03482 5.29372 9.23954C5.29873 9.43591 5.45116 9.56275 5.6976 9.5672C5.90231 9.57109 6.10647 9.56776 6.30285 9.56776C6.31175 9.60169 6.31675 9.61282 6.31509 9.61393C6.00356 9.81809 6.09535 10.0595 6.2372 10.3188C6.33344 10.4945 6.40409 10.6842 6.4842 10.8684C6.581 11.0915 6.49088 11.235 6.25278 11.2372C6.05863 11.2389 5.86393 11.2344 5.66978 11.2389C5.43892 11.2439 5.29317 11.3741 5.29317 11.5671C5.29317 11.7568 5.44281 11.892 5.66922 11.9031C5.74544 11.907 5.82165 11.9042 5.89842 11.9042C5.97352 11.9042 6.04862 11.9042 6.12372 11.9042C6.13596 11.9253 6.14875 11.9465 6.16099 11.9676L6.16044 11.9671ZM9.09435 4.04428C10.2036 4.04428 11.3129 4.04428 12.4221 4.04428C12.7637 4.04428 12.9144 3.94025 12.9117 3.70828C12.9089 3.47741 12.7587 3.37784 12.4132 3.37784C10.2086 3.37784 8.00345 3.37784 5.79884 3.37784C5.72263 3.37784 5.64419 3.37116 5.57076 3.38729C5.3933 3.42679 5.2876 3.54584 5.29706 3.72719C5.30652 3.90576 5.41388 4.01925 5.59969 4.04039C5.66144 4.04706 5.7243 4.04372 5.7866 4.04372C6.88918 4.04372 7.99121 4.04372 9.09379 4.04372L9.09435 4.04428ZM9.11549 5.63418C10.2192 5.63418 11.3229 5.63418 12.4266 5.63418C12.4961 5.63418 12.5662 5.63807 12.6346 5.6275C12.7987 5.60191 12.895 5.50178 12.9105 5.33656C12.9261 5.17134 12.8532 5.04951 12.6947 4.99889C12.6113 4.97218 12.5172 4.9694 12.4282 4.9694C10.2142 4.96773 7.99955 4.96773 5.78549 4.9694C5.69648 4.9694 5.60247 4.97218 5.51902 4.99889C5.36048 5.04895 5.28371 5.17468 5.29929 5.33545C5.31486 5.49455 5.40888 5.60414 5.57632 5.6275C5.64475 5.63696 5.71484 5.63418 5.78438 5.63418C6.89475 5.63418 8.00567 5.63418 9.11604 5.63418H9.11549ZM3.7055 8.43625C3.7055 8.21484 3.70828 7.99288 3.70494 7.77147C3.70105 7.52225 3.58756 7.39597 3.33834 7.39096C2.88829 7.38262 2.43825 7.38262 1.98821 7.39096C1.73954 7.39541 1.62216 7.52336 1.62049 7.77092C1.61716 8.21428 1.61716 8.6571 1.62049 9.10047C1.62216 9.33967 1.73565 9.4743 1.96762 9.4793C2.43102 9.48932 2.89553 9.48932 3.35892 9.4793C3.5909 9.4743 3.70105 9.34079 3.70494 9.10047C3.70828 8.87906 3.7055 8.6571 3.7055 8.43569V8.43625ZM3.7055 4.5188C3.7055 4.29016 3.70883 4.06153 3.70438 3.83344C3.69993 3.59869 3.58033 3.4674 3.34891 3.46351C2.89219 3.45627 2.43491 3.45627 1.97819 3.46351C1.74733 3.46684 1.62328 3.5998 1.62105 3.83289C1.61716 4.28293 1.61716 4.73298 1.62105 5.18302C1.62328 5.42112 1.74177 5.54517 1.97764 5.54795C2.43436 5.55407 2.89163 5.55351 3.34835 5.54795C3.58478 5.54517 3.69993 5.42223 3.70438 5.18358C3.70883 4.96217 3.7055 4.74021 3.7055 4.5188ZM3.7055 12.3754C3.7055 12.1467 3.70883 11.9181 3.70438 11.69C3.69993 11.4503 3.58589 11.3268 3.35002 11.324C2.8933 11.3179 2.43603 11.3179 1.97931 11.324C1.74288 11.3268 1.62328 11.4508 1.62105 11.6872C1.6166 12.1373 1.61716 12.5873 1.62105 13.0379C1.62328 13.271 1.74733 13.4051 1.97652 13.409C2.43324 13.4162 2.89052 13.4157 3.34724 13.409C3.57922 13.4056 3.69993 13.2749 3.70438 13.0413C3.70883 12.8199 3.7055 12.5979 3.7055 12.3765V12.3754Z" fill="white"/>
<path d="M11.7938 19.9961C11.5719 19.9961 11.3494 19.9877 11.1274 19.9994C10.9994 20.0061 10.946 19.9549 10.906 19.8414C10.8187 19.5933 10.7263 19.3457 10.6189 19.1054C10.5883 19.0364 10.5099 18.9725 10.4381 18.9413C10.0076 18.7538 9.57366 18.5731 9.13752 18.3984C9.07076 18.3717 8.97675 18.3628 8.91222 18.3884C8.65465 18.4902 8.40655 18.6159 8.14842 18.7166C8.09057 18.7394 7.98265 18.7199 7.93814 18.6776C7.60214 18.3561 7.27281 18.0273 6.95238 17.6908C6.90677 17.6429 6.8873 17.5278 6.91122 17.4644C7.00746 17.2123 7.13262 16.9709 7.22998 16.7195C7.25724 16.6494 7.24722 16.5481 7.2183 16.4758C7.04807 16.0452 6.87117 15.6174 6.68647 15.193C6.65254 15.1157 6.583 15.0322 6.50846 14.9988C6.26925 14.8904 6.02114 14.8002 5.77359 14.7107C5.67123 14.674 5.61894 14.6289 5.62117 14.5054C5.62951 14.0476 5.62895 13.5892 5.62117 13.1308C5.61894 13.0095 5.66845 12.9589 5.77192 12.9216C6.01947 12.8321 6.26814 12.7436 6.5079 12.6357C6.58245 12.6023 6.65254 12.5178 6.68647 12.4404C6.87172 12.0165 7.04862 11.5882 7.21885 11.1582C7.24778 11.0853 7.25668 10.9846 7.22942 10.914C7.13151 10.6625 7.00635 10.4211 6.91066 10.1691C6.88674 10.1062 6.90677 9.99106 6.95238 9.94321C7.26781 9.6111 7.5988 9.29346 7.917 8.96413C7.99822 8.88013 8.06387 8.86567 8.16845 8.91573C8.40543 9.03033 8.64464 9.14159 8.89052 9.23505C8.96729 9.26453 9.07577 9.25619 9.15421 9.22559C9.58534 9.05703 10.0131 8.88013 10.4376 8.69655C10.5099 8.6654 10.5878 8.59976 10.6184 8.53022C10.7257 8.2899 10.8187 8.0429 10.906 7.79479C10.946 7.68075 11.0006 7.63069 11.1285 7.63291C11.5797 7.6407 12.0308 7.64126 12.482 7.63291C12.6133 7.63013 12.6633 7.68576 12.7028 7.79702C12.7891 8.03845 12.8775 8.27989 12.9832 8.51297C13.0171 8.58807 13.0972 8.66206 13.174 8.69544C13.5979 8.88124 14.0257 9.05814 14.4563 9.22726C14.5347 9.25786 14.6432 9.26398 14.72 9.23449C14.9653 9.14048 15.2045 9.02755 15.4426 8.91573C15.5349 8.87234 15.5989 8.86956 15.6779 8.95134C16.0017 9.28511 16.3377 9.60721 16.6581 9.94377C16.7032 9.99106 16.721 10.1068 16.697 10.1702C16.6008 10.4222 16.4756 10.6636 16.3783 10.9151C16.351 10.9852 16.3622 11.0858 16.3911 11.1587C16.5613 11.5893 16.7377 12.0176 16.9223 12.4415C16.9563 12.5189 17.0269 12.6023 17.1015 12.6357C17.3412 12.7431 17.5899 12.8321 17.8375 12.9216C17.9415 12.9595 17.9888 13.0106 17.9871 13.1319C17.9793 13.5897 17.981 14.0481 17.986 14.5065C17.9871 14.6122 17.9565 14.6678 17.8541 14.7046C17.5932 14.7975 17.3323 14.8937 17.0798 15.0061C17.0114 15.0361 16.9524 15.1207 16.9207 15.1935C16.7371 15.6186 16.5591 16.0458 16.3889 16.4764C16.3605 16.5487 16.3521 16.6499 16.3794 16.72C16.4773 16.9715 16.6025 17.2129 16.6982 17.4649C16.7221 17.5278 16.7026 17.6435 16.657 17.6913C16.341 18.0229 16.0111 18.3411 15.6913 18.6693C15.61 18.7527 15.5427 18.765 15.4376 18.7138C15.1945 18.5964 14.9475 18.4857 14.696 18.3867C14.6315 18.3611 14.5375 18.3711 14.4707 18.3978C14.0346 18.5725 13.6007 18.7527 13.1701 18.9402C13.0984 18.9714 13.0205 19.0359 12.9899 19.1043C12.8825 19.3446 12.7896 19.5916 12.7028 19.8397C12.6628 19.9538 12.6083 20.0033 12.4814 19.9966C12.2528 19.9855 12.0236 19.9933 11.7944 19.9933L11.7938 19.9961ZM14.7183 13.8367C14.7227 12.2129 13.4271 10.9089 11.8072 10.9067C10.195 10.9045 8.90332 12.1918 8.89219 13.81C8.88162 15.4183 10.1923 16.7312 11.8128 16.7362C13.3988 16.7406 14.7144 15.4277 14.7189 13.8367H14.7183Z" fill="white"/>
<path d="M14.1024 2.29639C13.8115 2.29639 13.4955 2.29639 13.1801 2.29639C12.8335 2.29639 12.4875 2.29472 12.1409 2.29694C12.0158 2.2975 11.9084 2.26412 11.9073 2.12227C11.9023 1.43913 11.9051 0.756557 11.9051 0.0979004C12.6366 0.829431 13.3698 1.56319 14.1024 2.29639Z" fill="white"/>
<path d="M11.3878 14.0582C11.8412 13.6181 12.274 13.1981 12.7068 12.7781C12.7663 12.7203 12.8225 12.6574 12.8887 12.6073C13.0589 12.4788 13.292 12.4944 13.4422 12.6368C13.5952 12.782 13.6207 13.0073 13.5 13.187C13.4655 13.2382 13.4221 13.2843 13.3782 13.3288C12.8558 13.8573 12.334 14.3853 11.81 14.9121C11.5252 15.198 11.3193 15.1963 11.0301 14.9076C10.7597 14.6384 10.4888 14.3691 10.2201 14.0976C9.99146 13.8662 9.97199 13.6098 10.165 13.4223C10.357 13.2359 10.5989 13.2549 10.8254 13.4807C11.0212 13.676 11.2114 13.8768 11.3872 14.0582H11.3878Z" fill="white"/>
</g>
<defs>
<clipPath id="clip0_1534_127">
<rect width="17.9862" height="20" fill="white"/>
</clipPath>
</defs>
</svg>
