<svg width="15" height="15" viewBox="0 0 15 15" fill="none" xmlns="http://www.w3.org/2000/svg">
<g clip-path="url(#clip0_1505_430)">
<path d="M12.6974 9.17875V10.938H14.4566V12.1108H12.6974V13.87H11.5246V12.1108H9.76538V10.938H11.5246V9.17875H12.6974ZM12.7021 2.14185C13.0235 2.14185 13.2838 2.4028 13.2838 2.72415V8.00593H12.111V3.31466H2.72848V11.5238L8.59256 5.6603L10.3518 7.41952V9.07847L8.59256 7.31924L4.38626 11.5244H8.59256V12.6972H2.13738C1.98305 12.697 1.83509 12.6356 1.72601 12.5264C1.61693 12.4172 1.55566 12.2692 1.55566 12.1149V2.72415C1.55674 2.57015 1.61835 2.42275 1.7272 2.31379C1.83604 2.20484 1.98338 2.14307 2.13738 2.14185H12.7021ZM5.07411 4.48748C5.38516 4.48748 5.68348 4.61104 5.90342 4.83099C6.12337 5.05093 6.24693 5.34925 6.24693 5.6603C6.24693 5.97135 6.12337 6.26966 5.90342 6.4896C5.68348 6.70955 5.38516 6.83311 5.07411 6.83311C4.76306 6.83311 4.46475 6.70955 4.24481 6.4896C4.02486 6.26966 3.9013 5.97135 3.9013 5.6603C3.9013 5.34925 4.02486 5.05093 4.24481 4.83099C4.46475 4.61104 4.76306 4.48748 5.07411 4.48748Z" fill="#293950"/>
</g>
<defs>
<clipPath id="clip0_1505_430">
<rect width="14.0738" height="14.0738" fill="white" transform="translate(0.382812 0.382568)"/>
</clipPath>
</defs>
</svg>
