<svg width="13" height="16" viewBox="0 0 13 16" fill="none" xmlns="http://www.w3.org/2000/svg">
<path d="M12.2784 9.18084C12.2784 7.83928 12.2784 6.50112 12.2784 5.15956C12.2944 4.97617 12.2408 4.79348 12.1285 4.6482C12.0161 4.50291 11.8533 4.40581 11.6727 4.37641C11.5738 4.35955 11.4725 4.36363 11.3753 4.38839C11.2781 4.41315 11.1871 4.45806 11.1082 4.52023C11.0292 4.5824 10.964 4.66047 10.9167 4.74945C10.8694 4.83843 10.8411 4.93636 10.8335 5.03698C10.8335 5.10167 10.8335 5.16296 10.8335 5.22425V13.0795C10.8453 13.2757 10.8157 13.4721 10.7466 13.6558C10.6776 13.8396 10.5707 14.0066 10.433 14.1459C10.2952 14.2851 10.1298 14.3935 9.94747 14.4638C9.76516 14.5341 9.57013 14.5648 9.37518 14.5539H3.62297C3.42923 14.5646 3.23541 14.5343 3.05409 14.4648C2.87276 14.3953 2.70799 14.2881 2.57047 14.1504C2.43295 14.0127 2.32575 13.8474 2.25583 13.6652C2.18591 13.4831 2.15483 13.2882 2.16462 13.0932V5.15615C2.17914 4.97935 2.12907 4.80329 2.02379 4.66099C1.91851 4.51869 1.76526 4.41993 1.59278 4.38322C1.49743 4.36206 1.39878 4.3608 1.30293 4.37953C1.20708 4.39825 1.11606 4.43657 1.03551 4.4921C0.954956 4.54763 0.88658 4.61919 0.834604 4.70237C0.782629 4.78555 0.748158 4.87857 0.733329 4.97569C0.726604 5.05386 0.726604 5.13247 0.733329 5.21063C0.733329 7.83928 0.733329 10.4691 0.733329 13.1C0.721275 13.7827 0.954077 14.4469 1.38908 14.9709C1.82408 15.495 2.43215 15.8437 3.10189 15.9533C3.26962 15.9817 3.43935 15.9965 3.60943 15.9976H9.42932C9.80694 16.0026 10.1817 15.9316 10.5317 15.7887C10.8816 15.6458 11.1996 15.4339 11.467 15.1655C11.7343 14.8971 11.9456 14.5776 12.0884 14.2258C12.2313 13.874 12.3028 13.497 12.2987 13.117C12.2817 11.8027 12.2784 10.4918 12.2784 9.18084Z" fill="#EB4643"/>
<path d="M3.61372 2.18021H3.09941C2.32117 2.18021 1.54293 2.18021 0.764687 2.18021C0.648607 2.17366 0.532667 2.19534 0.42667 2.24341C0.320672 2.29147 0.227735 2.36451 0.155716 2.45636C0.0836964 2.5482 0.0347118 2.65615 0.0129061 2.77107C-0.00890064 2.88598 -0.00288773 3.0045 0.0304346 3.11658C0.0717916 3.25666 0.154423 3.38081 0.267403 3.47261C0.380382 3.56442 0.518388 3.61955 0.663176 3.63073H12.2184C12.3186 3.63827 12.4194 3.6248 12.5142 3.59118C12.6091 3.55757 12.6959 3.50453 12.7694 3.43542C12.8428 3.36631 12.9012 3.28263 12.9409 3.18965C12.9806 3.09668 13.0007 2.99644 13 2.89526C12.9984 2.79568 12.9767 2.69747 12.9362 2.60659C12.8957 2.5157 12.8373 2.43403 12.7646 2.36654C12.6918 2.29904 12.6061 2.24711 12.5128 2.21392C12.4195 2.18072 12.3205 2.16693 12.2217 2.1734H9.38624V1.98953C9.38624 1.58094 9.38624 1.17234 9.38624 0.763742C9.39156 0.662461 9.37572 0.561183 9.33973 0.466448C9.30373 0.371713 9.2484 0.285627 9.17729 0.213751C9.10618 0.141874 9.02088 0.085805 8.9269 0.0491636C8.83292 0.0125222 8.73235 -0.00387666 8.63168 0.00102649C7.21055 0.00102649 5.78941 0.00102649 4.36828 0.00102649C4.26778 -0.00437255 4.16727 0.0115703 4.07329 0.0478192C3.97932 0.0840682 3.89397 0.139812 3.82281 0.211426C3.75164 0.283041 3.69625 0.368925 3.66022 0.463494C3.6242 0.558064 3.60836 0.659202 3.61372 0.760337C3.61034 1.22682 3.61372 1.6899 3.61372 2.18021ZM7.93465 2.18021H5.06531V1.46517H7.93465V2.18021Z" fill="#EB4643"/>
<path d="M8.65618 9.0728C8.65618 8.22837 8.65618 7.37031 8.65618 6.53609C8.65532 6.36684 8.59511 6.20333 8.48616 6.07438C8.37721 5.94543 8.22652 5.85934 8.06066 5.83126C7.90381 5.80207 7.74176 5.82683 7.60059 5.90157C7.45943 5.9763 7.34736 6.09666 7.28242 6.24326C7.23677 6.35812 7.21268 6.4805 7.21136 6.60419C7.21136 8.26355 7.21136 9.92064 7.21136 11.5755C7.20387 11.6764 7.21726 11.7777 7.25066 11.8732C7.28407 11.9686 7.33677 12.0561 7.40545 12.13C7.47413 12.2039 7.55729 12.2627 7.64967 12.3026C7.74206 12.3425 7.84168 12.3628 7.94223 12.362C8.04135 12.3604 8.13911 12.3385 8.22949 12.2975C8.31988 12.2565 8.401 12.1974 8.46786 12.1238C8.53472 12.0501 8.58591 11.9635 8.61829 11.8692C8.65068 11.7749 8.66357 11.6749 8.65618 11.5755V9.0728Z" fill="#EB4643"/>
<path d="M4.33493 9.10634C4.33493 9.95418 4.33493 10.8088 4.33493 11.6431C4.33224 11.8039 4.38355 11.961 4.48056 12.0889C4.57758 12.2168 4.71463 12.3081 4.86955 12.3479C5.02129 12.3909 5.18307 12.3806 5.32822 12.3187C5.47338 12.2568 5.59325 12.147 5.66809 12.0074C5.73584 11.8781 5.7729 11.7347 5.77637 11.5886C5.77637 9.92013 5.77637 8.25169 5.77637 6.58325C5.78153 6.48346 5.76614 6.38366 5.73116 6.29013C5.69619 6.19661 5.64238 6.11136 5.57312 6.03975C5.50386 5.96813 5.42064 5.91169 5.32868 5.87397C5.23672 5.83625 5.13801 5.81806 5.03873 5.82054C4.94126 5.82171 4.84506 5.84286 4.75599 5.8827C4.66691 5.92253 4.58684 5.98022 4.52066 6.05223C4.45448 6.12425 4.40358 6.20908 4.37107 6.30155C4.33855 6.39402 4.3251 6.49219 4.33155 6.59006C4.33155 7.42428 4.33493 8.2585 4.33493 9.10634Z" fill="#EB4643"/>
</svg>
