<svg width="5" height="9" viewBox="0 0 5 9" fill="none" xmlns="http://www.w3.org/2000/svg">
<path d="M2.81256 6.39363V6.2344C2.81256 4.56453 2.81256 2.89467 2.81256 1.22481C2.81256 0.921836 2.65412 0.707643 2.38336 0.637889C2.0862 0.561441 1.7725 0.749918 1.70666 1.04937C1.68976 1.12581 1.68659 1.20614 1.68659 1.2847C1.68553 2.92814 1.68588 4.57158 1.68588 6.21502V6.41019C1.52111 6.21854 1.38274 6.05719 1.24402 5.8962C1.16374 5.80284 1.08452 5.70878 1.00354 5.61613C0.784896 5.36635 0.445135 5.33183 0.203956 5.53334C-0.0421515 5.73908 -0.0703182 6.08573 0.147974 6.34431C0.530339 6.79771 0.918689 7.24583 1.30457 7.69641C1.47041 7.88982 1.63377 8.08534 1.80277 8.27628C2.0686 8.57679 2.44322 8.57362 2.70306 8.271C3.24668 7.63758 3.78959 7.00345 4.33215 6.36933C4.56347 6.09877 4.55467 5.76162 4.31209 5.54602C4.06422 5.32619 3.72199 5.35966 3.48469 5.63092C3.27062 5.87541 3.06007 6.12307 2.84776 6.36933C2.84495 6.3725 2.84037 6.37496 2.81256 6.39363Z" fill="#808080"/>
</svg>
