<svg width="16" height="16" viewBox="0 0 16 16" fill="none" xmlns="http://www.w3.org/2000/svg">
<g clip-path="url(#clip0_1534_432)">
<path d="M-0.000396497 4.06406C0.0637596 3.83613 0.148431 3.61447 0.25258 3.40182C0.391932 3.14524 0.598981 2.93181 0.851189 2.78475C1.1034 2.63769 1.3911 2.56264 1.68299 2.56777C3.97852 2.56777 6.27405 2.56777 8.56958 2.56777C8.6324 2.56483 8.69515 2.57457 8.75412 2.59641C8.8131 2.61824 8.86707 2.65173 8.91282 2.69487C8.95858 2.73801 8.99519 2.78993 9.02046 2.84752C9.04573 2.90511 9.05915 2.9672 9.05992 3.03009C9.06056 3.09558 9.04756 3.16049 9.02174 3.22068C8.99592 3.28086 8.95786 3.33502 8.90997 3.37968C8.86208 3.42435 8.80542 3.45855 8.74359 3.48011C8.68176 3.50167 8.61611 3.51011 8.55084 3.50491H1.8329C1.23638 3.50491 0.936554 3.81728 0.936554 4.4108V14.1695C0.920674 14.2906 0.932842 14.4137 0.972115 14.5293C1.01139 14.6449 1.07672 14.75 1.16305 14.8363C1.24939 14.9227 1.35442 14.988 1.47002 15.0273C1.58563 15.0666 1.70872 15.0788 1.82978 15.0629H11.6053C11.7251 15.0785 11.8468 15.0665 11.9613 15.0279C12.0757 14.9893 12.1798 14.9251 12.2657 14.8401C12.3515 14.7551 12.4169 14.6517 12.4567 14.5376C12.4965 14.4236 12.5097 14.3019 12.4954 14.182V7.52521C12.4892 7.45767 12.4892 7.3897 12.4954 7.32217C12.5179 7.20921 12.5807 7.10828 12.672 7.03816C12.7634 6.96805 12.8771 6.93354 12.992 6.94106C13.1075 6.9503 13.2155 7.00204 13.2951 7.08627C13.3747 7.17051 13.4203 7.28126 13.423 7.39714C13.423 7.56894 13.423 7.74075 13.423 7.91256C13.423 10.0055 13.423 12.0984 13.423 14.1945C13.439 14.6195 13.2988 15.0356 13.0289 15.3642C12.759 15.6929 12.3781 15.9113 11.9582 15.9782C11.943 15.9834 11.9291 15.9919 11.9176 16.0031H1.48311C1.46031 15.9911 1.4362 15.9817 1.41127 15.975C1.10048 15.9229 0.810406 15.7851 0.573694 15.577C0.336981 15.369 0.163033 15.099 0.0714351 14.7974C0.0370802 14.7005 0.0152197 14.6006 -0.00976562 14.485L-0.000396497 4.06406Z" fill="#242E69"/>
<path d="M14.0137 0C14.1633 0.000560763 14.3111 0.0312807 14.4485 0.0903218C14.5859 0.149363 14.7099 0.235512 14.8133 0.343616C15.0881 0.618509 15.3692 0.893401 15.6409 1.17142C15.7535 1.27333 15.8434 1.3977 15.905 1.53651C15.9666 1.67532 15.9984 1.82549 15.9984 1.97735C15.9984 2.12921 15.9666 2.27939 15.905 2.4182C15.8434 2.55701 15.7535 2.68138 15.6409 2.78329C14.5999 3.83704 13.5505 4.88767 12.4928 5.93518L8.71684 9.71496C8.58498 9.85456 8.41218 9.94863 8.22338 9.9836C7.54253 10.1117 6.86793 10.2522 6.18708 10.3834C6.1077 10.4058 6.02382 10.4066 5.94402 10.3859C5.86422 10.3651 5.79136 10.3236 5.7329 10.2654C5.67444 10.2073 5.63247 10.1346 5.6113 10.0549C5.59013 9.9752 5.59052 9.8913 5.61241 9.81179C5.75296 9.10269 5.89037 8.3936 6.04029 7.6845C6.0704 7.56759 6.12947 7.46016 6.21206 7.37212C8.54611 5.03137 10.8833 2.69166 13.2236 0.352987C13.3256 0.244999 13.4478 0.158225 13.5834 0.0976485C13.7191 0.0370722 13.8653 0.00388704 14.0137 0ZM6.66492 9.32761C7.1334 9.23389 7.56752 9.14955 7.99851 9.05584C8.05509 9.03244 8.10538 8.99606 8.1453 8.94963L13.6764 3.41742C13.7139 3.37993 13.7514 3.3362 13.7795 3.31121L12.6583 2.18665C12.6262 2.23589 12.5907 2.28286 12.5521 2.32722C10.7885 4.09528 9.01875 5.86542 7.24271 7.63764C7.02457 7.83253 6.88471 8.10009 6.84919 8.39047C6.81171 8.70285 6.73363 8.99336 6.66492 9.32761ZM14.4728 2.62398C14.6477 2.44592 14.8258 2.26786 14.9975 2.08981C15.0146 2.07544 15.0283 2.05751 15.0378 2.03728C15.0472 2.01704 15.0521 1.99499 15.0521 1.97267C15.0521 1.95035 15.0472 1.92829 15.0378 1.90806C15.0283 1.88782 15.0146 1.86989 14.9975 1.85553L14.1262 0.993362C14.1124 0.977478 14.0954 0.96474 14.0762 0.95601C14.0571 0.94728 14.0363 0.942763 14.0153 0.942763C13.9943 0.942763 13.9735 0.94728 13.9544 0.95601C13.9352 0.96474 13.9182 0.977478 13.9044 0.993362C13.717 1.17142 13.539 1.35884 13.361 1.53378L14.4728 2.62398Z" fill="#242E69"/>
</g>
<defs>
<clipPath id="clip0_1534_432">
<rect width="16" height="16" fill="white"/>
</clipPath>
</defs>
</svg>
