<svg width="15" height="16" viewBox="0 0 15 16" fill="none" xmlns="http://www.w3.org/2000/svg">
<path d="M7.43 15.0217C6.71 15.0217 5.99 15.0217 5.26 14.9317C4.36888 14.9121 3.49107 14.7114 2.68 14.3417C1.99871 13.9772 1.41118 13.4597 0.963536 12.8298C0.515891 12.2 0.220312 11.475 0.1 10.7117C0.1 10.5017 0.1 10.2917 0.04 10.0917C-0.0133333 8.3584 -0.0133333 6.6284 0.04 4.90173C0.0848906 3.63597 0.608472 2.43442 1.50499 1.53975C2.40151 0.645091 3.60415 0.124001 4.87 0.0817341C6.01 0.0217341 7.1 0.0217341 8.26 0.0217341C9.02 0.0217341 12.34 -0.258266 11.94 1.19173C11.8798 1.38663 11.7475 1.55118 11.57 1.65173C11.3858 1.75028 11.1701 1.77185 10.97 1.71173C8.85316 1.44659 6.71348 1.4164 4.59 1.62173C3.80836 1.70685 3.08038 2.06024 2.53 2.62173C1.95786 3.1685 1.6027 3.90369 1.53 4.69173C1.43667 6.59173 1.43667 8.49173 1.53 10.3917C1.59268 11.1722 1.92916 11.9053 2.48 12.4617C3.03296 13.0253 3.76482 13.3789 4.55 13.4617C6.46 13.5417 8.36 13.5417 10.27 13.4617C11.0374 13.3794 11.7536 13.0368 12.2993 12.4911C12.8451 11.9453 13.1876 11.2292 13.27 10.4617C13.36 9.19173 13.33 7.91173 13.36 6.64173V6.12173C13.3349 6.01654 13.3349 5.90693 13.36 5.80173C13.3934 5.70133 13.448 5.60926 13.52 5.53173C13.5907 5.44906 13.6797 5.384 13.78 5.34173C13.8782 5.30081 13.9837 5.28039 14.09 5.28173C14.1962 5.2822 14.3013 5.30255 14.4 5.34173C14.4953 5.383 14.5806 5.4444 14.65 5.52173C14.722 5.59926 14.7766 5.69133 14.81 5.79173C14.8342 5.89365 14.8342 5.99982 14.81 6.10173C14.81 7.19173 14.81 8.28173 14.81 9.37173C14.8114 9.87792 14.7679 10.3832 14.68 10.8817C14.5415 11.5809 14.2551 12.2423 13.84 12.8217C13.4269 13.397 12.8991 13.8805 12.29 14.2417C11.1052 14.8057 9.80115 15.0734 8.49 15.0217H7.43Z" fill="#EB4643"/>
<path d="M8.64695 7.5314L10.327 5.8514C10.4821 5.69493 10.5687 5.48322 10.5678 5.26287C10.5669 5.04251 10.4784 4.83156 10.322 4.6764C10.1655 4.52125 9.95377 4.43462 9.73342 4.43555C9.51306 4.43649 9.3021 4.52493 9.14695 4.6814L7.46695 6.3614L5.78695 4.6814C5.62809 4.54625 5.42415 4.47586 5.21574 4.48425C5.00733 4.49263 4.80971 4.57919 4.66222 4.72668C4.51473 4.87417 4.42818 5.07178 4.41979 5.28019C4.4114 5.48861 4.48179 5.69254 4.61695 5.8514L6.29695 7.5314L4.61695 9.2114C4.46047 9.36656 4.37204 9.57751 4.3711 9.79787C4.37016 10.0182 4.4568 10.2299 4.61195 10.3864C4.7671 10.5429 4.97806 10.6313 5.19842 10.6323C5.41877 10.6332 5.63047 10.5466 5.78695 10.3914L7.46695 8.7114L9.14695 10.3914C9.30343 10.5479 9.51566 10.6358 9.73695 10.6358C9.95825 10.6358 10.1705 10.5479 10.327 10.3914C10.4834 10.2349 10.5713 10.0227 10.5713 9.8014C10.5713 9.58011 10.4834 9.36788 10.327 9.2114L8.64695 7.5314Z" fill="#EB4643"/>
</svg>
