<svg width="5" height="9" viewBox="0 0 5 9" fill="none" xmlns="http://www.w3.org/2000/svg">
<path d="M3.34421 2.61694C3.56708 2.87658 3.78643 3.13903 4.01353 3.39445C4.17408 3.57517 4.38075 3.63506 4.61102 3.55967C4.83529 3.48639 4.96451 3.32187 4.99514 3.08654C5.01556 2.93048 4.9712 2.78815 4.87015 2.66978C4.30822 2.01135 3.74805 1.35151 3.17944 0.699413C2.94284 0.427796 2.54674 0.435899 2.30943 0.709982C1.74856 1.35749 1.19121 2.00818 0.637031 2.66168C0.428596 2.90723 0.460284 3.25141 0.696181 3.45328C0.932782 3.65585 1.27254 3.6333 1.48732 3.39304C1.68906 3.16686 1.88306 2.93365 2.08093 2.70395C2.10839 2.67225 2.13762 2.64195 2.18761 2.58734C2.18761 2.66274 2.18761 2.70889 2.18761 2.75504C2.18761 4.4249 2.18761 6.09476 2.18761 7.76498C2.18761 8.10177 2.39886 8.34732 2.70447 8.37127C3.02769 8.39664 3.29527 8.15426 3.31288 7.81676C3.31851 7.71143 3.31464 7.60574 3.31464 7.50041C3.31464 5.92284 3.31464 4.34493 3.31464 2.76737V2.62574L3.34421 2.61729V2.61694Z" fill="#808080"/>
</svg>
